<svg width="212" height="212" viewBox="0 0 212 212" fill="none" xmlns="http://www.w3.org/2000/svg">
<g filter="url(#filter0_d_633_48)">
<path d="M204 78C204 116.66 172.66 148 134 148C95.3401 148 64 116.66 64 78C64 39.3401 95.3401 8 134 8C172.66 8 204 39.3401 204 78Z" fill="url(#paint0_radial_633_48)"/>
<path d="M51.2745 122.837L52.1817 122.65L52.421 121.755C57.5421 102.613 75.1096 88.5 96 88.5C119.619 88.5 138.985 106.538 140.928 129.485L141.029 130.682L142.22 130.845C155.942 132.717 166.5 144.412 166.5 158.542C166.5 173.974 153.907 186.5 138.353 186.5H98.1176H57.8824C39.989 186.5 25.5 172.089 25.5 154.333C25.5 138.825 36.5525 125.868 51.2745 122.837Z" fill="url(#paint1_linear_633_48)" stroke="url(#paint2_linear_633_48)" stroke-width="3"/>
</g>
<defs>
<filter id="filter0_d_633_48" x="0" y="0" width="212" height="212" filterUnits="userSpaceOnUse" color-interpolation-filters="sRGB">
<feFlood flood-opacity="0" result="BackgroundImageFix"/>
<feColorMatrix in="SourceAlpha" type="matrix" values="0 0 0 0 0 0 0 0 0 0 0 0 0 0 0 0 0 0 127 0" result="hardAlpha"/>
<feOffset dx="-8" dy="8"/>
<feGaussianBlur stdDeviation="8"/>
<feComposite in2="hardAlpha" operator="out"/>
<feColorMatrix type="matrix" values="0 0 0 0 0.164271 0 0 0 0 0.31478 0 0 0 0 0.475 0 0 0 0.1 0"/>
<feBlend mode="normal" in2="BackgroundImageFix" result="effect1_dropShadow_633_48"/>
<feBlend mode="normal" in="SourceGraphic" in2="effect1_dropShadow_633_48" result="shape"/>
</filter>
<radialGradient id="paint0_radial_633_48" cx="0" cy="0" r="1" gradientUnits="userSpaceOnUse" gradientTransform="translate(162.171 44.1951) rotate(127.112) scale(119.197)">
<stop stop-color="#FFD600"/>
<stop offset="1" stop-color="#FF6B00"/>
</radialGradient>
<linearGradient id="paint1_linear_633_48" x1="24" y1="87" x2="169.835" y2="185.276" gradientUnits="userSpaceOnUse">
<stop stop-color="white" stop-opacity="0.9"/>
<stop offset="1" stop-color="white" stop-opacity="0.4"/>
</linearGradient>
<linearGradient id="paint2_linear_633_48" x1="24" y1="87" x2="146.413" y2="179.427" gradientUnits="userSpaceOnUse">
<stop stop-color="white" stop-opacity="0.9"/>
<stop offset="1" stop-color="white" stop-opacity="0.2"/>
</linearGradient>
</defs>
</svg>
