<svg width="212" height="212" viewBox="0 0 212 212" fill="none" xmlns="http://www.w3.org/2000/svg">
<g filter="url(#filter0_d_633_45)">
<path fill-rule="evenodd" clip-rule="evenodd" d="M204 79.7683C195.105 92.7878 180.142 101.333 163.182 101.333C135.901 101.333 113.786 79.2212 113.786 51.9444C113.786 32.9996 124.454 16.5462 140.112 8.26208C138.101 8.08856 136.066 8 134.011 8C95.345 8 64 39.3401 64 78C64 116.66 95.345 148 134.011 148C172.086 148 203.062 117.611 204 79.7683Z" fill="url(#paint0_radial_633_45)"/>
<path d="M51.2745 122.837L52.1817 122.65L52.421 121.755C57.5421 102.613 75.1096 88.5 96 88.5C119.619 88.5 138.985 106.538 140.928 129.485L141.029 130.682L142.22 130.845C155.942 132.717 166.5 144.412 166.5 158.542C166.5 173.974 153.907 186.5 138.353 186.5H98.1176H57.8824C39.989 186.5 25.5 172.089 25.5 154.333C25.5 138.825 36.5525 125.868 51.2745 122.837Z" fill="url(#paint1_linear_633_45)" stroke="url(#paint2_linear_633_45)" stroke-width="3"/>
</g>
<defs>
<filter id="filter0_d_633_45" x="0" y="0" width="212" height="212" filterUnits="userSpaceOnUse" color-interpolation-filters="sRGB">
<feFlood flood-opacity="0" result="BackgroundImageFix"/>
<feColorMatrix in="SourceAlpha" type="matrix" values="0 0 0 0 0 0 0 0 0 0 0 0 0 0 0 0 0 0 127 0" result="hardAlpha"/>
<feOffset dx="-8" dy="8"/>
<feGaussianBlur stdDeviation="8"/>
<feComposite in2="hardAlpha" operator="out"/>
<feColorMatrix type="matrix" values="0 0 0 0 0.164271 0 0 0 0 0.31478 0 0 0 0 0.475 0 0 0 0.1 0"/>
<feBlend mode="normal" in2="BackgroundImageFix" result="effect1_dropShadow_633_45"/>
<feBlend mode="normal" in="SourceGraphic" in2="effect1_dropShadow_633_45" result="shape"/>
</filter>
<radialGradient id="paint0_radial_633_45" cx="0" cy="0" r="1" gradientUnits="userSpaceOnUse" gradientTransform="translate(144.902 64.7778) rotate(126.271) scale(92.3713 92.3756)">
<stop stop-color="#CFDDF9"/>
<stop offset="1" stop-color="#465897"/>
</radialGradient>
<linearGradient id="paint1_linear_633_45" x1="24" y1="87" x2="169.835" y2="185.276" gradientUnits="userSpaceOnUse">
<stop stop-color="white" stop-opacity="0.9"/>
<stop offset="1" stop-color="white" stop-opacity="0.4"/>
</linearGradient>
<linearGradient id="paint2_linear_633_45" x1="24" y1="87" x2="146.413" y2="179.427" gradientUnits="userSpaceOnUse">
<stop stop-color="white" stop-opacity="0.9"/>
<stop offset="1" stop-color="white" stop-opacity="0.2"/>
</linearGradient>
</defs>
</svg>
