<svg width="212" height="212" viewBox="0 0 212 212" fill="none" xmlns="http://www.w3.org/2000/svg">
<g filter="url(#filter0_d_633_34)">
<path d="M203.764 56.1083C203.764 82.6778 182.226 104.217 155.656 104.217C129.087 104.217 107.548 82.6778 107.548 56.1083C107.548 29.5388 129.087 8 155.656 8C182.226 8 203.764 29.5388 203.764 56.1083Z" fill="url(#paint0_radial_633_34)"/>
<path d="M58.0215 105.023L58.9289 104.834L59.1653 103.937C65.6148 79.4957 87.7287 61.5 114 61.5C143.7 61.5 168.086 84.5008 170.533 113.807L170.633 115.004L171.823 115.168C189.143 117.563 202.5 132.537 202.5 150.667C202.5 170.467 186.569 186.5 166.941 186.5H116.647H66.3529C43.8009 186.5 25.5 168.08 25.5 145.333C25.5 125.468 39.4616 108.897 58.0215 105.023Z" fill="url(#paint1_linear_633_34)" stroke="url(#paint2_linear_633_34)" stroke-width="3"/>
</g>
<defs>
<filter id="filter0_d_633_34" x="0" y="0" width="212" height="212" filterUnits="userSpaceOnUse" color-interpolation-filters="sRGB">
<feFlood flood-opacity="0" result="BackgroundImageFix"/>
<feColorMatrix in="SourceAlpha" type="matrix" values="0 0 0 0 0 0 0 0 0 0 0 0 0 0 0 0 0 0 127 0" result="hardAlpha"/>
<feOffset dx="-8" dy="8"/>
<feGaussianBlur stdDeviation="8"/>
<feComposite in2="hardAlpha" operator="out"/>
<feColorMatrix type="matrix" values="0 0 0 0 0.164271 0 0 0 0 0.31478 0 0 0 0 0.475 0 0 0 0.1 0"/>
<feBlend mode="normal" in2="BackgroundImageFix" result="effect1_dropShadow_633_34"/>
<feBlend mode="normal" in="SourceGraphic" in2="effect1_dropShadow_633_34" result="shape"/>
</filter>
<radialGradient id="paint0_radial_633_34" cx="0" cy="0" r="1" gradientUnits="userSpaceOnUse" gradientTransform="translate(175.017 32.8755) rotate(127.112) scale(81.9197)">
<stop stop-color="#FFD600"/>
<stop offset="1" stop-color="#FF6B00"/>
</radialGradient>
<linearGradient id="paint1_linear_633_34" x1="24" y1="60" x2="207.853" y2="182.202" gradientUnits="userSpaceOnUse">
<stop stop-color="white" stop-opacity="0.9"/>
<stop offset="1" stop-color="white" stop-opacity="0.4"/>
</linearGradient>
<linearGradient id="paint2_linear_633_34" x1="24" y1="60" x2="178.54" y2="175.089" gradientUnits="userSpaceOnUse">
<stop stop-color="white" stop-opacity="0.9"/>
<stop offset="1" stop-color="white" stop-opacity="0.2"/>
</linearGradient>
</defs>
</svg>
