<svg width="212" height="212" viewBox="0 0 212 212" fill="none" xmlns="http://www.w3.org/2000/svg">
<g filter="url(#filter0_d_333_29)">
<path fill-rule="evenodd" clip-rule="evenodd" d="M204 60.0363C198.564 63.716 192.005 65.8656 184.943 65.8656C166.165 65.8656 150.943 50.6683 150.943 31.9214C150.943 22.6998 154.626 14.3371 160.604 8.21963C159.078 8.07433 157.532 8 155.969 8C129.355 8 107.78 29.5396 107.78 56.11C107.78 82.6804 129.355 104.22 155.969 104.22C181.259 104.22 201.999 84.7703 204 60.0363Z" fill="url(#paint0_radial_333_29)"/>
<path d="M58.0215 105.023L58.9289 104.834L59.1653 103.937C65.6148 79.4957 87.7287 61.5 114 61.5C143.7 61.5 168.086 84.5008 170.533 113.807L170.633 115.004L171.823 115.168C189.143 117.563 202.5 132.537 202.5 150.667C202.5 170.467 186.569 186.5 166.941 186.5H116.647H66.3529C43.8009 186.5 25.5 168.08 25.5 145.333C25.5 125.468 39.4616 108.897 58.0215 105.023Z" fill="url(#paint1_linear_333_29)" stroke="url(#paint2_linear_333_29)" stroke-width="3"/>
</g>
<defs>
<filter id="filter0_d_333_29" x="0" y="0" width="212" height="212" filterUnits="userSpaceOnUse" color-interpolation-filters="sRGB">
<feFlood flood-opacity="0" result="BackgroundImageFix"/>
<feColorMatrix in="SourceAlpha" type="matrix" values="0 0 0 0 0 0 0 0 0 0 0 0 0 0 0 0 0 0 127 0" result="hardAlpha"/>
<feOffset dx="-8" dy="8"/>
<feGaussianBlur stdDeviation="8"/>
<feComposite in2="hardAlpha" operator="out"/>
<feColorMatrix type="matrix" values="0 0 0 0 0.164271 0 0 0 0 0.31478 0 0 0 0 0.475 0 0 0 0.1 0"/>
<feBlend mode="normal" in2="BackgroundImageFix" result="effect1_dropShadow_333_29"/>
<feBlend mode="normal" in="SourceGraphic" in2="effect1_dropShadow_333_29" result="shape"/>
</filter>
<radialGradient id="paint0_radial_333_29" cx="0" cy="0" r="1" gradientUnits="userSpaceOnUse" gradientTransform="translate(163.465 47.0226) rotate(126.312) scale(63.5185 63.5498)">
<stop stop-color="#CFDDF9"/>
<stop offset="1" stop-color="#465897"/>
</radialGradient>
<linearGradient id="paint1_linear_333_29" x1="24" y1="60" x2="207.853" y2="182.202" gradientUnits="userSpaceOnUse">
<stop stop-color="white" stop-opacity="0.9"/>
<stop offset="1" stop-color="white" stop-opacity="0.4"/>
</linearGradient>
<linearGradient id="paint2_linear_333_29" x1="24" y1="60" x2="178.54" y2="175.089" gradientUnits="userSpaceOnUse">
<stop stop-color="white" stop-opacity="0.9"/>
<stop offset="1" stop-color="white" stop-opacity="0.2"/>
</linearGradient>
</defs>
</svg>
