<svg width="212" height="212" viewBox="0 0 212 212" fill="none" xmlns="http://www.w3.org/2000/svg">
<g filter="url(#filter0_d_633_30)">
<path fill-rule="evenodd" clip-rule="evenodd" d="M204 60.0363C198.564 63.716 192.005 65.8656 184.943 65.8656C166.165 65.8656 150.943 50.6683 150.943 31.9214C150.943 22.6998 154.626 14.3371 160.604 8.21963C159.078 8.07433 157.532 8 155.969 8C129.355 8 107.78 29.5396 107.78 56.11C107.78 82.6804 129.355 104.22 155.969 104.22C181.259 104.22 201.999 84.7703 204 60.0363Z" fill="url(#paint0_radial_633_30)"/>
<path d="M135.288 76.6637L136.196 76.4759L136.434 75.5805C139.204 65.1704 148.707 57.5 160 57.5C172.769 57.5 183.244 67.3045 184.296 79.7839L184.396 80.9809L185.586 81.1441C192.882 82.1445 198.5 88.3978 198.5 95.9573C198.5 104.214 191.799 110.91 183.529 110.91H161.176H138.824C129.254 110.91 121.5 103.162 121.5 93.6068C121.5 85.2627 127.415 78.2934 135.288 76.6637Z" fill="url(#paint1_linear_633_30)" stroke="url(#paint2_linear_633_30)" stroke-width="3"/>
<path d="M49.7084 77.0114L50.6157 76.8236L50.8539 75.9283C55.6693 57.833 72.1847 44.5 91.8153 44.5C114.009 44.5 132.218 61.5414 134.045 83.2352L134.146 84.4323L135.336 84.5954C148.213 86.3613 158.131 97.3974 158.131 110.743C158.131 125.318 146.302 137.137 131.707 137.137H93.8099H55.9131C39.1149 137.137 25.5 123.534 25.5 106.758C25.5 92.1063 35.886 79.8725 49.7084 77.0114Z" fill="url(#paint3_linear_633_30)" stroke="url(#paint4_linear_633_30)" stroke-width="3"/>
<path d="M78.2803 116.898L79.1877 116.709L79.4242 115.813C84.9431 94.8973 103.866 79.5 126.344 79.5C151.755 79.5 172.622 99.1801 174.717 124.258L174.817 125.454L176.006 125.619C190.786 127.663 202.188 140.442 202.188 155.917C202.188 172.818 188.59 186.5 171.84 186.5H128.619H85.3971C66.1344 186.5 50.5 170.766 50.5 151.333C50.5 134.363 62.4273 120.208 78.2803 116.898Z" fill="url(#paint5_linear_633_30)" stroke="url(#paint6_linear_633_30)" stroke-width="3"/>
</g>
<defs>
<filter id="filter0_d_633_30" x="0" y="0" width="212" height="212" filterUnits="userSpaceOnUse" color-interpolation-filters="sRGB">
<feFlood flood-opacity="0" result="BackgroundImageFix"/>
<feColorMatrix in="SourceAlpha" type="matrix" values="0 0 0 0 0 0 0 0 0 0 0 0 0 0 0 0 0 0 127 0" result="hardAlpha"/>
<feOffset dx="-8" dy="8"/>
<feGaussianBlur stdDeviation="8"/>
<feComposite in2="hardAlpha" operator="out"/>
<feColorMatrix type="matrix" values="0 0 0 0 0.164271 0 0 0 0 0.31478 0 0 0 0 0.475 0 0 0 0.1 0"/>
<feBlend mode="normal" in2="BackgroundImageFix" result="effect1_dropShadow_633_30"/>
<feBlend mode="normal" in="SourceGraphic" in2="effect1_dropShadow_633_30" result="shape"/>
</filter>
<radialGradient id="paint0_radial_633_30" cx="0" cy="0" r="1" gradientUnits="userSpaceOnUse" gradientTransform="translate(163.465 47.0226) rotate(126.312) scale(63.5185 63.5498)">
<stop stop-color="#CFDDF9"/>
<stop offset="1" stop-color="#465897"/>
</radialGradient>
<linearGradient id="paint1_linear_633_30" x1="120" y1="56" x2="201.288" y2="110.488" gradientUnits="userSpaceOnUse">
<stop stop-color="white" stop-opacity="0.9"/>
<stop offset="1" stop-color="white" stop-opacity="0.4"/>
</linearGradient>
<linearGradient id="paint2_linear_633_30" x1="120" y1="56" x2="188.269" y2="107.273" gradientUnits="userSpaceOnUse">
<stop stop-color="white" stop-opacity="0.9"/>
<stop offset="1" stop-color="white" stop-opacity="0.2"/>
</linearGradient>
<linearGradient id="paint3_linear_633_30" x1="24" y1="43" x2="161.815" y2="135.379" gradientUnits="userSpaceOnUse">
<stop stop-color="white" stop-opacity="0.9"/>
<stop offset="1" stop-color="white" stop-opacity="0.4"/>
</linearGradient>
<linearGradient id="paint4_linear_633_30" x1="24" y1="43" x2="139.742" y2="129.927" gradientUnits="userSpaceOnUse">
<stop stop-color="white" stop-opacity="0.9"/>
<stop offset="1" stop-color="white" stop-opacity="0.2"/>
</linearGradient>
<linearGradient id="paint5_linear_633_30" x1="49" y1="78" x2="206.999" y2="183.018" gradientUnits="userSpaceOnUse">
<stop stop-color="white" stop-opacity="0.9"/>
<stop offset="1" stop-color="white" stop-opacity="0.4"/>
</linearGradient>
<linearGradient id="paint6_linear_633_30" x1="49" y1="78" x2="181.807" y2="176.905" gradientUnits="userSpaceOnUse">
<stop stop-color="white" stop-opacity="0.9"/>
<stop offset="1" stop-color="white" stop-opacity="0.2"/>
</linearGradient>
</defs>
</svg>
