<svg width="213" height="212" viewBox="0 0 213 212" fill="none" xmlns="http://www.w3.org/2000/svg">
<g filter="url(#filter0_d_633_8)">
<path fill-rule="evenodd" clip-rule="evenodd" d="M82.8838 165.372C85.3751 166.997 86.0685 170.321 84.4326 172.796L76.9078 184.042C75.2719 186.517 71.9262 187.206 69.435 185.581C66.9437 183.956 66.2503 180.632 67.8862 178.157L75.411 166.911C77.0469 164.436 80.3926 163.747 82.8838 165.372Z" fill="url(#paint0_linear_633_8)"/>
<path fill-rule="evenodd" clip-rule="evenodd" d="M96.3326 137.999C98.8239 139.624 99.5173 142.948 97.8815 145.423L90.3566 156.669C88.7207 159.144 85.3751 159.833 82.8838 158.208C80.3926 156.583 79.6991 153.259 81.335 150.784L88.8599 139.537C90.4957 137.062 93.8414 136.374 96.3326 137.999Z" fill="url(#paint1_linear_633_8)"/>
<path fill-rule="evenodd" clip-rule="evenodd" d="M105.435 164.254C107.926 165.879 108.62 169.203 106.984 171.678L99.4589 182.924C97.8231 185.399 94.4774 186.088 91.9861 184.463C89.4949 182.837 88.8015 179.514 90.4373 177.039L97.9622 165.792C99.5981 163.317 102.944 162.628 105.435 164.254Z" fill="url(#paint2_linear_633_8)"/>
<path fill-rule="evenodd" clip-rule="evenodd" d="M118.884 136.88C121.375 138.506 122.068 141.829 120.433 144.304L112.908 155.551C111.272 158.026 107.926 158.715 105.435 157.089C102.944 155.464 102.25 152.14 103.886 149.665L111.411 138.419C113.047 135.944 116.393 135.255 118.884 136.88Z" fill="url(#paint3_linear_633_8)"/>
<path fill-rule="evenodd" clip-rule="evenodd" d="M125.93 166.911C128.422 168.536 129.115 171.86 127.479 174.335L119.954 185.581C118.318 188.056 114.973 188.745 112.481 187.12C109.99 185.494 109.297 182.171 110.933 179.696L118.457 168.449C120.093 165.974 123.439 165.285 125.93 166.911Z" fill="url(#paint4_linear_633_8)"/>
<path fill-rule="evenodd" clip-rule="evenodd" d="M139.379 139.537C141.87 141.163 142.564 144.486 140.928 146.961L133.403 158.208C131.767 160.683 128.422 161.372 125.93 159.746C123.439 158.121 122.746 154.797 124.381 152.322L131.906 141.076C133.542 138.601 136.888 137.912 139.379 139.537Z" fill="url(#paint5_linear_633_8)"/>
<path fill-rule="evenodd" clip-rule="evenodd" d="M151.43 164.254C153.922 165.879 154.615 169.203 152.979 171.678L145.454 182.924C143.818 185.399 140.473 186.088 137.981 184.463C135.49 182.837 134.797 179.514 136.433 177.039L143.957 165.792C145.593 163.317 148.939 162.628 151.43 164.254Z" fill="url(#paint6_linear_633_8)"/>
<path fill-rule="evenodd" clip-rule="evenodd" d="M164.879 136.88C167.37 138.506 168.064 141.829 166.428 144.304L158.903 155.551C157.267 158.026 153.922 158.715 151.43 157.089C148.939 155.464 148.246 152.14 149.881 149.665L157.406 138.419C159.042 135.944 162.388 135.255 164.879 136.88Z" fill="url(#paint7_linear_633_8)"/>
<path fill-rule="evenodd" clip-rule="evenodd" d="M204.004 61.9744C199.785 63.8476 195.115 64.8885 190.2 64.8885C171.422 64.8885 156.2 49.6912 156.2 30.9443C156.2 22.4432 159.33 14.672 164.503 8.71678C161.796 8.24563 159.011 8 156.169 8C129.555 8 107.98 29.5396 107.98 56.11C107.98 82.6804 129.555 104.22 156.169 104.22C180.795 104.22 201.106 85.7788 204.004 61.9744Z" fill="url(#paint8_radial_633_8)"/>
<path d="M46.6172 38.0517L47.5245 37.8639L47.7627 36.9685C51.9714 21.1532 66.4063 9.5 83.5636 9.5C102.961 9.5 118.876 24.3945 120.473 43.3548L120.574 44.5518L121.764 44.715C132.985 46.2538 141.627 55.871 141.627 67.5C141.627 80.201 131.32 90.5 118.601 90.5H85.3155H52.0299C37.3763 90.5 25.5 78.634 25.5 64C25.5 51.2195 34.5596 40.5475 46.6172 38.0517Z" fill="url(#paint9_linear_633_8)" stroke="url(#paint10_linear_633_8)" stroke-width="3"/>
<path d="M61.0991 72.9059L62.0065 72.7165L62.243 71.8203C68.2789 48.9459 88.9745 32.105 113.56 32.105C141.354 32.105 164.176 53.6299 166.466 81.0568L166.566 82.2534L167.756 82.4179C183.947 84.657 196.435 98.6557 196.435 115.605C196.435 134.117 181.541 149.105 163.192 149.105H116.041H68.8907C47.8006 149.105 30.6848 131.878 30.6848 110.605C30.6848 92.0263 43.7423 76.5292 61.0991 72.9059Z" fill="url(#paint11_linear_633_8)" stroke="url(#paint12_linear_633_8)" stroke-width="3"/>
</g>
<defs>
<filter id="filter0_d_633_8" x="0" y="0" width="212.004" height="212" filterUnits="userSpaceOnUse" color-interpolation-filters="sRGB">
<feFlood flood-opacity="0" result="BackgroundImageFix"/>
<feColorMatrix in="SourceAlpha" type="matrix" values="0 0 0 0 0 0 0 0 0 0 0 0 0 0 0 0 0 0 127 0" result="hardAlpha"/>
<feOffset dx="-8" dy="8"/>
<feGaussianBlur stdDeviation="8"/>
<feComposite in2="hardAlpha" operator="out"/>
<feColorMatrix type="matrix" values="0 0 0 0 0.164271 0 0 0 0 0.31478 0 0 0 0 0.475 0 0 0 0.1 0"/>
<feBlend mode="normal" in2="BackgroundImageFix" result="effect1_dropShadow_633_8"/>
<feBlend mode="normal" in="SourceGraphic" in2="effect1_dropShadow_633_8" result="shape"/>
</filter>
<linearGradient id="paint0_linear_633_8" x1="117.157" y1="136" x2="117.157" y2="188" gradientUnits="userSpaceOnUse">
<stop stop-color="#0066FF"/>
<stop offset="1" stop-color="#00C2FF"/>
</linearGradient>
<linearGradient id="paint1_linear_633_8" x1="117.157" y1="136" x2="117.157" y2="188" gradientUnits="userSpaceOnUse">
<stop stop-color="#0066FF"/>
<stop offset="1" stop-color="#00C2FF"/>
</linearGradient>
<linearGradient id="paint2_linear_633_8" x1="117.157" y1="136" x2="117.157" y2="188" gradientUnits="userSpaceOnUse">
<stop stop-color="#0066FF"/>
<stop offset="1" stop-color="#00C2FF"/>
</linearGradient>
<linearGradient id="paint3_linear_633_8" x1="117.157" y1="136" x2="117.157" y2="188" gradientUnits="userSpaceOnUse">
<stop stop-color="#0066FF"/>
<stop offset="1" stop-color="#00C2FF"/>
</linearGradient>
<linearGradient id="paint4_linear_633_8" x1="117.157" y1="136" x2="117.157" y2="188" gradientUnits="userSpaceOnUse">
<stop stop-color="#0066FF"/>
<stop offset="1" stop-color="#00C2FF"/>
</linearGradient>
<linearGradient id="paint5_linear_633_8" x1="117.157" y1="136" x2="117.157" y2="188" gradientUnits="userSpaceOnUse">
<stop stop-color="#0066FF"/>
<stop offset="1" stop-color="#00C2FF"/>
</linearGradient>
<linearGradient id="paint6_linear_633_8" x1="117.157" y1="136" x2="117.157" y2="188" gradientUnits="userSpaceOnUse">
<stop stop-color="#0066FF"/>
<stop offset="1" stop-color="#00C2FF"/>
</linearGradient>
<linearGradient id="paint7_linear_633_8" x1="117.157" y1="136" x2="117.157" y2="188" gradientUnits="userSpaceOnUse">
<stop stop-color="#0066FF"/>
<stop offset="1" stop-color="#00C2FF"/>
</linearGradient>
<radialGradient id="paint8_radial_633_8" cx="0" cy="0" r="1" gradientUnits="userSpaceOnUse" gradientTransform="translate(163.665 47.0226) rotate(126.312) scale(63.5185 63.5498)">
<stop stop-color="#CFDDF9"/>
<stop offset="1" stop-color="#465897"/>
</radialGradient>
<linearGradient id="paint9_linear_633_8" x1="24" y1="8" x2="145.046" y2="89.1383" gradientUnits="userSpaceOnUse">
<stop stop-color="white" stop-opacity="0.9"/>
<stop offset="1" stop-color="white" stop-opacity="0.4"/>
</linearGradient>
<linearGradient id="paint10_linear_633_8" x1="24" y1="8" x2="125.659" y2="84.3502" gradientUnits="userSpaceOnUse">
<stop stop-color="white" stop-opacity="0.9"/>
<stop offset="1" stop-color="white" stop-opacity="0.2"/>
</linearGradient>
<linearGradient id="paint11_linear_633_8" x1="29.1848" y1="30.605" x2="201.547" y2="145.17" gradientUnits="userSpaceOnUse">
<stop stop-color="white" stop-opacity="0.9"/>
<stop offset="1" stop-color="white" stop-opacity="0.4"/>
</linearGradient>
<linearGradient id="paint12_linear_633_8" x1="29.1848" y1="30.605" x2="174.066" y2="138.501" gradientUnits="userSpaceOnUse">
<stop stop-color="white" stop-opacity="0.9"/>
<stop offset="1" stop-color="white" stop-opacity="0.2"/>
</linearGradient>
</defs>
</svg>
