<svg width="213" height="212" viewBox="0 0 213 212" fill="none" xmlns="http://www.w3.org/2000/svg">
<g filter="url(#filter0_d_633_65)">
<path fill-rule="evenodd" clip-rule="evenodd" d="M162.317 138.027C164.808 139.666 165.502 143.017 163.866 145.512L144.979 174.319C143.343 176.814 139.997 177.508 137.506 175.87C135.015 174.232 134.321 170.881 135.957 168.386L154.844 139.579C156.48 137.084 159.826 136.389 162.317 138.027ZM135.335 143.432C137.827 145.07 138.52 148.421 136.884 150.916L117.997 179.723C116.361 182.218 113.015 182.913 110.524 181.275C108.033 179.636 107.339 176.285 108.975 173.79C108.975 173.79 126.227 147.478 127.863 144.983C129.498 142.488 132.844 141.794 135.335 143.432ZM183.903 148.837C186.394 150.475 187.087 153.826 185.451 156.321L166.564 185.128C164.928 187.623 161.583 188.317 159.091 186.679C156.6 185.041 155.907 181.69 157.543 179.195L176.43 150.388C178.066 147.893 181.411 147.198 183.903 148.837Z" fill="url(#paint0_linear_633_65)"/>
<path fill-rule="evenodd" clip-rule="evenodd" d="M84.228 138.457C86.7192 140.096 87.4127 143.446 85.7768 145.942L66.8896 174.749C65.2537 177.244 61.908 177.938 59.4168 176.3C56.9255 174.662 56.2321 171.311 57.868 168.816L76.7552 140.009C78.3911 137.513 81.7368 136.819 84.228 138.457ZM57.2462 143.862C59.7375 145.5 60.4309 148.851 58.795 151.346L39.9078 180.153C38.2719 182.648 34.9262 183.343 32.435 181.704C29.9437 180.066 29.2503 176.715 30.8862 174.22C30.8862 174.22 48.1376 147.908 49.7734 145.413C51.4093 142.918 54.755 142.224 57.2462 143.862ZM105.813 149.267C108.305 150.905 108.998 154.256 107.362 156.751L88.475 185.558C86.8391 188.053 83.4934 188.747 81.0022 187.109C78.5109 185.471 77.8175 182.12 79.4534 179.625L98.3406 150.818C99.9765 148.323 103.322 147.628 105.813 149.267Z" fill="url(#paint1_linear_633_65)"/>
<path fill-rule="evenodd" clip-rule="evenodd" d="M204.004 61.9744C199.785 63.8476 195.115 64.8885 190.2 64.8885C171.422 64.8885 156.2 49.6912 156.2 30.9443C156.2 22.4432 159.33 14.672 164.503 8.71678C161.796 8.24563 159.011 8 156.169 8C129.555 8 107.98 29.5396 107.98 56.11C107.98 82.6804 129.555 104.22 156.169 104.22C180.795 104.22 201.106 85.7788 204.004 61.9744Z" fill="url(#paint2_radial_633_65)"/>
<path d="M46.6172 38.0517L47.5245 37.8639L47.7627 36.9685C51.9714 21.1532 66.4063 9.5 83.5636 9.5C102.961 9.5 118.876 24.3945 120.473 43.3548L120.574 44.5518L121.764 44.715C132.985 46.2538 141.627 55.871 141.627 67.5C141.627 80.201 131.32 90.5 118.601 90.5H85.3155H52.0299C37.3763 90.5 25.5 78.634 25.5 64C25.5 51.2195 34.5596 40.5475 46.6172 38.0517Z" fill="url(#paint3_linear_633_65)" stroke="url(#paint4_linear_633_65)" stroke-width="3"/>
<path d="M61.0991 72.9059L62.0065 72.7165L62.243 71.8203C68.2789 48.9459 88.9745 32.105 113.56 32.105C141.354 32.105 164.176 53.6299 166.466 81.0568L166.566 82.2534L167.756 82.4179C183.947 84.657 196.435 98.6557 196.435 115.605C196.435 134.117 181.541 149.105 163.192 149.105H116.041H68.8907C47.8006 149.105 30.6848 131.878 30.6848 110.605C30.6848 92.0263 43.7423 76.5292 61.0991 72.9059Z" fill="url(#paint5_linear_633_65)" stroke="url(#paint6_linear_633_65)" stroke-width="3"/>
</g>
<defs>
<filter id="filter0_d_633_65" x="0" y="0" width="212.004" height="211.997" filterUnits="userSpaceOnUse" color-interpolation-filters="sRGB">
<feFlood flood-opacity="0" result="BackgroundImageFix"/>
<feColorMatrix in="SourceAlpha" type="matrix" values="0 0 0 0 0 0 0 0 0 0 0 0 0 0 0 0 0 0 127 0" result="hardAlpha"/>
<feOffset dx="-8" dy="8"/>
<feGaussianBlur stdDeviation="8"/>
<feComposite in2="hardAlpha" operator="out"/>
<feColorMatrix type="matrix" values="0 0 0 0 0.164271 0 0 0 0 0.31478 0 0 0 0 0.475 0 0 0 0.1 0"/>
<feBlend mode="normal" in2="BackgroundImageFix" result="effect1_dropShadow_633_65"/>
<feBlend mode="normal" in="SourceGraphic" in2="effect1_dropShadow_633_65" result="shape"/>
</filter>
<linearGradient id="paint0_linear_633_65" x1="147.213" y1="137.14" x2="147.213" y2="187.567" gradientUnits="userSpaceOnUse">
<stop stop-color="#0066FF"/>
<stop offset="1" stop-color="#00C2FF"/>
</linearGradient>
<linearGradient id="paint1_linear_633_65" x1="69.1242" y1="137.57" x2="69.1242" y2="187.997" gradientUnits="userSpaceOnUse">
<stop stop-color="#0066FF"/>
<stop offset="1" stop-color="#00C2FF"/>
</linearGradient>
<radialGradient id="paint2_radial_633_65" cx="0" cy="0" r="1" gradientUnits="userSpaceOnUse" gradientTransform="translate(163.665 47.0226) rotate(126.312) scale(63.5185 63.5498)">
<stop stop-color="#CFDDF9"/>
<stop offset="1" stop-color="#465897"/>
</radialGradient>
<linearGradient id="paint3_linear_633_65" x1="24" y1="8" x2="145.046" y2="89.1383" gradientUnits="userSpaceOnUse">
<stop stop-color="white" stop-opacity="0.9"/>
<stop offset="1" stop-color="white" stop-opacity="0.4"/>
</linearGradient>
<linearGradient id="paint4_linear_633_65" x1="24" y1="8" x2="125.659" y2="84.3502" gradientUnits="userSpaceOnUse">
<stop stop-color="white" stop-opacity="0.9"/>
<stop offset="1" stop-color="white" stop-opacity="0.2"/>
</linearGradient>
<linearGradient id="paint5_linear_633_65" x1="29.1848" y1="30.605" x2="201.547" y2="145.17" gradientUnits="userSpaceOnUse">
<stop stop-color="white" stop-opacity="0.9"/>
<stop offset="1" stop-color="white" stop-opacity="0.4"/>
</linearGradient>
<linearGradient id="paint6_linear_633_65" x1="29.1848" y1="30.605" x2="174.066" y2="138.501" gradientUnits="userSpaceOnUse">
<stop stop-color="white" stop-opacity="0.9"/>
<stop offset="1" stop-color="white" stop-opacity="0.2"/>
</linearGradient>
</defs>
</svg>
