<svg width="132" height="132" viewBox="0 0 132 132" fill="none" xmlns="http://www.w3.org/2000/svg">
<g filter="url(#filter0_d_675_230)">
<path d="M123.869 34.7268C123.869 49.4876 111.903 61.4536 97.1423 61.4536C82.3815 61.4536 70.4155 49.4876 70.4155 34.7268C70.4155 19.966 82.3815 8 97.1423 8C111.903 8 123.869 19.966 123.869 34.7268Z" fill="url(#paint0_radial_675_230)"/>
<path d="M43.0371 62.5543L43.9444 62.3649L44.1809 61.4687C47.6894 48.1724 59.718 38.3889 74 38.3889C90.1464 38.3889 103.412 50.8945 104.743 66.8372L104.843 68.0337L106.032 68.1982C115.326 69.4834 122.5 77.5212 122.5 87.2593C122.5 97.8961 113.943 106.5 103.412 106.5H75.4706H47.5294C35.3733 106.5 25.5 96.5695 25.5 84.2963C25.5 73.5789 33.032 64.6429 43.0371 62.5543Z" fill="url(#paint1_linear_675_230)" stroke="url(#paint2_linear_675_230)" stroke-width="3"/>
</g>
<defs>
<filter id="filter0_d_675_230" x="0" y="0" width="132" height="132" filterUnits="userSpaceOnUse" color-interpolation-filters="sRGB">
<feFlood flood-opacity="0" result="BackgroundImageFix"/>
<feColorMatrix in="SourceAlpha" type="matrix" values="0 0 0 0 0 0 0 0 0 0 0 0 0 0 0 0 0 0 127 0" result="hardAlpha"/>
<feOffset dx="-8" dy="8"/>
<feGaussianBlur stdDeviation="8"/>
<feComposite in2="hardAlpha" operator="out"/>
<feColorMatrix type="matrix" values="0 0 0 0 0.164271 0 0 0 0 0.31478 0 0 0 0 0.475 0 0 0 0.1 0"/>
<feBlend mode="normal" in2="BackgroundImageFix" result="effect1_dropShadow_675_230"/>
<feBlend mode="normal" in="SourceGraphic" in2="effect1_dropShadow_675_230" result="shape"/>
</filter>
<radialGradient id="paint0_radial_675_230" cx="0" cy="0" r="1" gradientUnits="userSpaceOnUse" gradientTransform="translate(107.898 21.8197) rotate(127.112) scale(45.511)">
<stop stop-color="#FFD600"/>
<stop offset="1" stop-color="#FF6B00"/>
</radialGradient>
<linearGradient id="paint1_linear_675_230" x1="24" y1="36.8889" x2="126.141" y2="104.779" gradientUnits="userSpaceOnUse">
<stop stop-color="white" stop-opacity="0.9"/>
<stop offset="1" stop-color="white" stop-opacity="0.4"/>
</linearGradient>
<linearGradient id="paint2_linear_675_230" x1="24" y1="36.8889" x2="109.855" y2="100.827" gradientUnits="userSpaceOnUse">
<stop stop-color="white" stop-opacity="0.9"/>
<stop offset="1" stop-color="white" stop-opacity="0.2"/>
</linearGradient>
</defs>
</svg>
