<svg width="132" height="132" viewBox="0 0 132 132" fill="none" xmlns="http://www.w3.org/2000/svg">
<g filter="url(#filter0_d_675_238)">
<path d="M124 34.7268C124 49.4876 112.034 61.4536 97.2727 61.4536C82.5116 61.4536 70.5453 49.4876 70.5453 34.7268C70.5453 19.966 82.5116 8 97.2727 8C112.034 8 124 19.966 124 34.7268Z" fill="url(#paint0_radial_675_238)"/>
<path d="M85.9632 46.7993L86.8705 46.6115L87.1088 45.7162C88.5719 40.2179 93.5919 36.1667 99.557 36.1667C106.302 36.1667 111.835 41.3459 112.39 47.9359L112.491 49.1329L113.681 49.2961C117.409 49.8073 120.28 53.0038 120.28 56.8652C120.28 61.0834 116.856 64.5057 112.629 64.5057H100.211H87.7921C82.8433 64.5057 78.8344 60.4988 78.8344 55.5594C78.8344 51.2467 81.8918 47.6421 85.9632 46.7993Z" fill="url(#paint1_linear_675_238)" stroke="url(#paint2_linear_675_238)" stroke-width="3"/>
<path d="M38.4178 46.9925L39.3251 46.8047L39.5634 45.9094C42.1627 36.1416 51.079 28.9445 61.6759 28.9445C73.6572 28.9445 83.4867 38.1441 84.4729 49.8533L84.5737 51.0503L85.7639 51.2135C92.5929 52.15 97.8518 58.0035 97.8518 65.0794C97.8518 72.808 91.5792 79.0761 83.8382 79.0761H62.784H41.7298C32.7648 79.0761 25.5 71.8168 25.5 62.8656C25.5 55.0487 31.0414 48.5194 38.4178 46.9925Z" fill="url(#paint3_linear_675_238)" stroke="url(#paint4_linear_675_238)" stroke-width="3"/>
<path d="M54.2925 69.1516L55.1999 68.9622L55.4364 68.066C58.428 56.7288 68.684 48.3889 80.8587 48.3889C94.623 48.3889 105.934 59.0496 107.069 72.6433L107.169 73.8398L108.358 74.0043C116.241 75.0944 122.328 81.9129 122.328 90.176C122.328 99.2019 115.068 106.5 106.135 106.5H82.1225H58.1101C47.7812 106.5 39.3892 98.0619 39.3892 87.6297C39.3892 78.5203 45.7911 70.9263 54.2925 69.1516Z" fill="url(#paint5_linear_675_238)" stroke="url(#paint6_linear_675_238)" stroke-width="3"/>
</g>
<defs>
<filter id="filter0_d_675_238" x="0" y="0" width="132" height="132" filterUnits="userSpaceOnUse" color-interpolation-filters="sRGB">
<feFlood flood-opacity="0" result="BackgroundImageFix"/>
<feColorMatrix in="SourceAlpha" type="matrix" values="0 0 0 0 0 0 0 0 0 0 0 0 0 0 0 0 0 0 127 0" result="hardAlpha"/>
<feOffset dx="-8" dy="8"/>
<feGaussianBlur stdDeviation="8"/>
<feComposite in2="hardAlpha" operator="out"/>
<feColorMatrix type="matrix" values="0 0 0 0 0.164271 0 0 0 0 0.31478 0 0 0 0 0.475 0 0 0 0.1 0"/>
<feBlend mode="normal" in2="BackgroundImageFix" result="effect1_dropShadow_675_238"/>
<feBlend mode="normal" in="SourceGraphic" in2="effect1_dropShadow_675_238" result="shape"/>
</filter>
<radialGradient id="paint0_radial_675_238" cx="0" cy="0" r="1" gradientUnits="userSpaceOnUse" gradientTransform="translate(108.029 21.8197) rotate(127.113) scale(45.5113 45.5115)">
<stop stop-color="#FFD600"/>
<stop offset="1" stop-color="#FF6B00"/>
</radialGradient>
<linearGradient id="paint1_linear_675_238" x1="77.3344" y1="34.6667" x2="122.495" y2="64.9389" gradientUnits="userSpaceOnUse">
<stop stop-color="white" stop-opacity="0.9"/>
<stop offset="1" stop-color="white" stop-opacity="0.4"/>
</linearGradient>
<linearGradient id="paint2_linear_675_238" x1="77.3344" y1="34.6667" x2="115.262" y2="63.1524" gradientUnits="userSpaceOnUse">
<stop stop-color="white" stop-opacity="0.9"/>
<stop offset="1" stop-color="white" stop-opacity="0.2"/>
</linearGradient>
<linearGradient id="paint3_linear_675_238" x1="24" y1="27.4445" x2="100.564" y2="78.7674" gradientUnits="userSpaceOnUse">
<stop stop-color="white" stop-opacity="0.9"/>
<stop offset="1" stop-color="white" stop-opacity="0.4"/>
</linearGradient>
<linearGradient id="paint4_linear_675_238" x1="24" y1="27.4445" x2="88.3017" y2="75.7386" gradientUnits="userSpaceOnUse">
<stop stop-color="white" stop-opacity="0.9"/>
<stop offset="1" stop-color="white" stop-opacity="0.2"/>
</linearGradient>
<linearGradient id="paint5_linear_675_238" x1="37.8892" y1="46.8889" x2="125.667" y2="105.234" gradientUnits="userSpaceOnUse">
<stop stop-color="white" stop-opacity="0.9"/>
<stop offset="1" stop-color="white" stop-opacity="0.4"/>
</linearGradient>
<linearGradient id="paint6_linear_675_238" x1="37.8892" y1="46.8889" x2="111.671" y2="101.837" gradientUnits="userSpaceOnUse">
<stop stop-color="white" stop-opacity="0.9"/>
<stop offset="1" stop-color="white" stop-opacity="0.2"/>
</linearGradient>
</defs>
</svg>
