<svg width="212" height="212" viewBox="0 0 212 212" fill="none" xmlns="http://www.w3.org/2000/svg">
<g filter="url(#filter0_d_634_133)">
<path fill-rule="evenodd" clip-rule="evenodd" d="M162.228 113.888C164.719 115.526 165.413 118.877 163.777 121.372L144.89 150.179C143.254 152.674 139.908 153.368 137.417 151.73C134.926 150.092 134.232 146.741 135.868 144.246L154.755 115.439C156.391 112.944 159.737 112.249 162.228 113.888ZM135.246 119.292C137.737 120.93 138.431 124.281 136.795 126.776L117.908 155.583C116.272 158.079 112.926 158.773 110.435 157.135C107.944 155.496 107.25 152.145 108.886 149.65C108.886 149.65 126.138 123.338 127.773 120.843C129.409 118.348 132.755 117.654 135.246 119.292ZM183.813 124.697C186.305 126.335 186.998 129.686 185.362 132.181L166.475 160.988C164.839 163.483 161.493 164.178 159.002 162.539C156.511 160.901 155.818 157.55 157.453 155.055L176.341 126.248C177.977 123.753 181.322 123.058 183.813 124.697Z" fill="url(#paint0_linear_634_133)"/>
<path fill-rule="evenodd" clip-rule="evenodd" d="M84.228 113.888C86.7192 115.526 87.4127 118.877 85.7768 121.372L66.8896 150.179C65.2537 152.674 61.908 153.368 59.4168 151.73C56.9255 150.092 56.2321 146.741 57.868 144.246L76.7552 115.439C78.3911 112.944 81.7368 112.249 84.228 113.888ZM57.2462 119.292C59.7375 120.93 60.4309 124.281 58.795 126.776L39.9078 155.583C38.2719 158.079 34.9262 158.773 32.435 157.135C29.9437 155.496 29.2503 152.145 30.8862 149.65C30.8862 149.65 48.1376 123.338 49.7734 120.843C51.4093 118.348 54.755 117.654 57.2462 119.292ZM105.813 124.697C108.305 126.335 108.998 129.686 107.362 132.181L88.475 160.988C86.8391 163.483 83.4934 164.178 81.0022 162.539C78.5109 160.901 77.8175 157.55 79.4534 155.055L98.3406 126.248C99.9765 123.753 103.322 123.058 105.813 124.697Z" fill="url(#paint1_linear_634_133)"/>
<path d="M134 138.247L92 188L107.75 152.989L93.75 151.146V106H127L115.625 134.562L134 138.247Z" fill="url(#paint2_linear_634_133)"/>
<path d="M203.997 56.1083C203.997 82.6778 182.458 104.217 155.888 104.217C129.319 104.217 107.78 82.6778 107.78 56.1083C107.78 29.5388 129.319 8 155.888 8C182.458 8 203.997 29.5388 203.997 56.1083Z" fill="url(#paint3_radial_634_133)"/>
<path d="M46.6172 38.0517L47.5245 37.8639L47.7627 36.9685C51.9714 21.1532 66.4063 9.5 83.5636 9.5C102.961 9.5 118.876 24.3945 120.473 43.3548L120.574 44.5518L121.764 44.715C132.985 46.2538 141.627 55.871 141.627 67.5C141.627 80.201 131.32 90.5 118.601 90.5H85.3155H52.0299C37.3763 90.5 25.5 78.634 25.5 64C25.5 51.2195 34.5596 40.5475 46.6172 38.0517Z" fill="url(#paint4_linear_634_133)" stroke="url(#paint5_linear_634_133)" stroke-width="3"/>
<path d="M70.0892 66.8362L70.9965 66.6481L71.2344 65.7526C76.3213 46.6054 93.7667 32.5 114.5 32.5C137.94 32.5 157.175 50.5286 159.105 73.4843L159.206 74.6812L160.396 74.8446C174.011 76.7147 184.5 88.4032 184.5 102.542C184.5 117.983 171.989 130.5 156.559 130.5H116.603H76.6471C58.8936 130.5 44.5 116.099 44.5 98.3333C44.5 82.8174 55.4801 69.8652 70.0892 66.8362Z" fill="url(#paint6_linear_634_133)" stroke="url(#paint7_linear_634_133)" stroke-width="3"/>
</g>
<defs>
<filter id="filter0_d_634_133" x="0" y="0" width="211.997" height="212" filterUnits="userSpaceOnUse" color-interpolation-filters="sRGB">
<feFlood flood-opacity="0" result="BackgroundImageFix"/>
<feColorMatrix in="SourceAlpha" type="matrix" values="0 0 0 0 0 0 0 0 0 0 0 0 0 0 0 0 0 0 127 0" result="hardAlpha"/>
<feOffset dx="-8" dy="8"/>
<feGaussianBlur stdDeviation="8"/>
<feComposite in2="hardAlpha" operator="out"/>
<feColorMatrix type="matrix" values="0 0 0 0 0.164271 0 0 0 0 0.31478 0 0 0 0 0.475 0 0 0 0.1 0"/>
<feBlend mode="normal" in2="BackgroundImageFix" result="effect1_dropShadow_634_133"/>
<feBlend mode="normal" in="SourceGraphic" in2="effect1_dropShadow_634_133" result="shape"/>
</filter>
<linearGradient id="paint0_linear_634_133" x1="147.124" y1="113" x2="147.124" y2="163.427" gradientUnits="userSpaceOnUse">
<stop stop-color="#0066FF"/>
<stop offset="1" stop-color="#00C2FF"/>
</linearGradient>
<linearGradient id="paint1_linear_634_133" x1="69.1242" y1="113" x2="69.1242" y2="163.427" gradientUnits="userSpaceOnUse">
<stop stop-color="#0066FF"/>
<stop offset="1" stop-color="#00C2FF"/>
</linearGradient>
<linearGradient id="paint2_linear_634_133" x1="113" y1="106" x2="113" y2="188" gradientUnits="userSpaceOnUse">
<stop stop-color="#FFC700"/>
<stop offset="1" stop-color="#FAFF00"/>
</linearGradient>
<radialGradient id="paint3_radial_634_133" cx="0" cy="0" r="1" gradientUnits="userSpaceOnUse" gradientTransform="translate(175.249 32.8755) rotate(127.112) scale(81.9197)">
<stop stop-color="#FFD600"/>
<stop offset="1" stop-color="#FF6B00"/>
</radialGradient>
<linearGradient id="paint4_linear_634_133" x1="24" y1="8" x2="145.046" y2="89.1383" gradientUnits="userSpaceOnUse">
<stop stop-color="white" stop-opacity="0.9"/>
<stop offset="1" stop-color="white" stop-opacity="0.4"/>
</linearGradient>
<linearGradient id="paint5_linear_634_133" x1="24" y1="8" x2="125.659" y2="84.3502" gradientUnits="userSpaceOnUse">
<stop stop-color="white" stop-opacity="0.9"/>
<stop offset="1" stop-color="white" stop-opacity="0.2"/>
</linearGradient>
<linearGradient id="paint6_linear_634_133" x1="43" y1="31" x2="188.451" y2="128.337" gradientUnits="userSpaceOnUse">
<stop stop-color="white" stop-opacity="0.9"/>
<stop offset="1" stop-color="white" stop-opacity="0.4"/>
</linearGradient>
<linearGradient id="paint7_linear_634_133" x1="43" y1="31" x2="165.176" y2="122.608" gradientUnits="userSpaceOnUse">
<stop stop-color="white" stop-opacity="0.9"/>
<stop offset="1" stop-color="white" stop-opacity="0.2"/>
</linearGradient>
</defs>
</svg>
