<svg width="213" height="212" viewBox="0 0 213 212" fill="none" xmlns="http://www.w3.org/2000/svg">
<g filter="url(#filter0_d_634_158)">
<path d="M171.48 156.289H166.492L168.728 154.068C169.322 153.478 169.322 152.522 168.728 151.932C168.135 151.343 167.172 151.342 166.578 151.932L162.192 156.289H154.82L158.1 152.787C158.672 152.176 158.637 151.221 158.022 150.653C157.771 150.42 157.46 150.29 157.142 150.258C156.949 150.248 152.785 150.257 152.785 150.257L157.658 145.416H163.777C164.617 145.416 165.297 144.74 165.297 143.906C165.297 143.072 164.617 142.396 163.777 142.396H160.699L164.285 138.834C164.878 138.244 164.878 137.288 164.285 136.698C163.691 136.109 162.695 136.109 162.101 136.698L158.439 140.302V137.161C158.439 136.327 157.759 135.651 156.919 135.651C156.079 135.651 155.399 136.327 155.399 137.161V143.322L150.364 148.357L150.28 143.797C150.28 143.79 150.287 143.783 150.287 143.776C150.28 143.409 150.144 143.043 149.867 142.757C149.285 142.157 148.291 142.139 147.686 142.718L144.453 145.784V138.693L148.805 134.403C149.399 133.813 149.415 132.857 148.822 132.268C148.228 131.678 147.24 131.678 146.646 132.268L144.453 134.421V129.51C144.453 128.676 143.772 128 142.933 128C142.093 128 141.412 128.676 141.412 129.51V134.421L139.278 132.268C138.684 131.678 137.738 131.678 137.145 132.268C136.551 132.858 136.525 133.814 137.119 134.403L141.412 138.693V145.825L138.133 142.709C137.523 142.136 136.579 142.162 136.001 142.767C135.783 142.996 135.66 143.274 135.613 143.563C135.584 143.681 135.572 143.803 135.572 143.928L135.554 148.202L130.466 143.18V137.161C130.466 136.327 129.786 135.651 128.946 135.651C128.106 135.651 127.426 136.327 127.426 137.161V140.16L123.975 136.698C123.381 136.109 122.435 136.109 121.841 136.698C121.248 137.288 121.256 138.244 121.85 138.834L125.444 142.396H122.223C121.383 142.396 120.703 143.072 120.703 143.906C120.703 144.74 121.383 145.416 122.223 145.416H128.485L133.501 150.398L128.827 150.565C128.012 150.595 127.302 151.257 127.294 152.059C127.293 152.082 127.223 152.104 127.223 152.127C127.223 152.127 127.223 152.128 127.223 152.129C127.223 152.131 127.293 152.132 127.293 152.134C127.302 152.511 127.487 152.886 127.778 153.172L130.989 156.289H123.951L119.565 151.932C118.971 151.342 118.009 151.342 117.415 151.932C116.821 152.522 116.821 153.478 117.415 154.068L119.651 156.288H114.52C113.68 156.288 113 156.964 113 157.798C113 158.633 113.68 159.309 114.52 159.309H119.592L117.415 161.471C116.821 162.061 116.821 163.017 117.415 163.607C117.712 163.901 118.101 164.049 118.49 164.049C118.879 164.049 119.268 163.901 119.565 163.607L123.892 159.309H130.992L127.9 162.61C127.328 163.22 127.363 164.175 127.978 164.744C128.271 165.014 128.642 165.148 129.013 165.148C129.02 165.148 129.027 165.147 129.034 165.147C129.038 165.147 129.043 165.148 129.047 165.148C129.051 165.148 129.054 165.148 129.058 165.148L133.519 165.123L128.426 170.181H122.223C121.383 170.181 120.703 170.857 120.703 171.691C120.703 172.525 121.383 173.201 122.223 173.201H125.385L121.859 176.704C121.265 177.294 121.265 178.25 121.859 178.84C122.155 179.135 122.545 179.282 122.934 179.282C123.323 179.282 123.678 179.135 123.975 178.84L127.426 175.379V178.436C127.426 179.27 128.106 179.946 128.946 179.946C129.786 179.946 130.466 179.27 130.466 178.436V172.359L135.624 167.269L135.822 172.18C135.852 172.995 136.535 173.651 137.349 173.635C137.626 173.629 137.926 173.541 138.223 173.324C138.439 173.167 141.412 170.14 141.412 170.14V177.265L137.162 181.521C136.568 182.11 136.585 183.067 137.178 183.656C137.475 183.951 137.872 184.099 138.262 184.099C138.651 184.099 139.01 183.951 139.307 183.656L141.412 181.536V186.49C141.412 187.324 142.093 188 142.933 188C143.772 188 144.453 187.324 144.453 186.49V181.394L146.765 183.656C147.062 183.951 147.468 184.099 147.857 184.099C148.246 184.099 148.643 183.951 148.94 183.656C149.534 183.067 149.504 182.111 148.91 181.521L144.453 177.122V169.935C144.453 169.935 147.236 172.531 147.675 172.95C148.114 173.369 148.474 173.604 148.998 173.604C149.001 173.604 149.004 173.604 149.007 173.604C149.847 173.604 150.523 172.879 150.518 172.045L150.456 167.274L155.399 172.217V178.436C155.399 179.27 156.079 179.946 156.919 179.946C157.759 179.946 158.439 179.27 158.439 178.436V175.237L162.101 178.84C162.398 179.135 162.804 179.282 163.193 179.282C163.582 179.282 163.98 179.135 164.276 178.84C164.87 178.25 164.874 177.294 164.281 176.704L160.758 173.201H163.777C164.617 173.201 165.297 172.525 165.297 171.691C165.297 170.857 164.617 170.181 163.777 170.181H157.717L152.499 164.998L157.174 164.831C157.19 164.83 157.206 164.828 157.223 164.827C157.229 164.826 157.235 164.826 157.241 164.825C158.047 164.761 158.667 164.078 158.638 163.268C158.62 162.779 158.371 162.355 157.999 162.092L155.19 159.309H162.251L166.578 163.607C166.875 163.902 167.264 164.049 167.653 164.049C168.042 164.049 168.431 163.902 168.728 163.607C169.322 163.017 169.322 162.061 168.728 161.471L166.551 159.309H171.48C172.32 159.309 173 158.633 173 157.799C173 156.965 172.32 156.289 171.48 156.289ZM153.499 153.265L150.667 156.289H146.713L149.754 153.268L153.499 153.265ZM147.299 147.285L147.371 151.313L144.453 154.195V149.979L147.299 147.285ZM138.594 147.302L141.412 149.984V154.052L138.59 151.232L138.594 147.302ZM132.431 153.459L136.437 153.315L139.431 156.289H135.316L132.431 153.459ZM132.509 162.123L135.145 159.309H139.372L136.566 162.096L132.509 162.123ZM138.715 168.59L138.542 164.354L141.412 161.486V165.836L138.715 168.59ZM147.423 168.523L144.453 165.809V161.344L147.38 164.235L147.423 168.523ZM153.539 161.939L149.563 162.081L146.772 159.309H150.885L153.539 161.939Z" fill="url(#paint0_linear_634_158)"/>
<path d="M101.986 156.859H98.6614L100.152 155.379C100.548 154.985 100.548 154.348 100.152 153.955C99.7563 153.562 99.1146 153.562 98.7189 153.955L95.7947 156.859H90.88L93.0668 154.525C93.448 154.118 93.4249 153.481 93.015 153.102C92.847 152.947 92.64 152.86 92.4278 152.839C92.2992 152.832 89.5231 152.838 89.5231 152.838L92.7723 149.611H96.8513C97.4112 149.611 97.8649 149.16 97.8649 148.604C97.8649 148.048 97.4112 147.597 96.8513 147.597H94.7992L97.1897 145.223C97.5855 144.83 97.5855 144.192 97.1897 143.799C96.7938 143.406 96.1297 143.406 95.7338 143.799L93.2928 146.201V144.107C93.2928 143.551 92.8392 143.101 92.2793 143.101C91.7195 143.101 91.2658 143.551 91.2658 144.107V148.215L87.9095 151.571L87.8534 148.532C87.8532 148.527 87.8581 148.522 87.858 148.517C87.8532 148.272 87.7628 148.029 87.5782 147.838C87.19 147.438 86.5272 147.426 86.1241 147.812L83.9685 149.856V145.128L86.8699 142.269C87.2657 141.876 87.2769 141.238 86.8811 140.845C86.4851 140.452 85.8266 140.452 85.4308 140.845L83.9685 142.281V139.007C83.9685 138.451 83.5149 138 82.955 138C82.3951 138 81.9415 138.451 81.9415 139.007V142.281L80.5185 140.845C80.1226 140.452 79.4923 140.452 79.0964 140.845C78.7005 141.239 78.6836 141.876 79.0795 142.269L81.9415 145.129V149.883L79.7555 147.806C79.3489 147.424 78.7191 147.441 78.3339 147.845C78.1886 147.997 78.1065 148.183 78.0753 148.376C78.0561 148.454 78.0478 148.535 78.0481 148.619L78.0362 151.468L74.6443 148.12V144.107C74.6443 143.551 74.1907 143.101 73.6308 143.101C73.0709 143.101 72.6173 143.551 72.6173 144.107V146.107L70.3165 143.799C69.9205 143.406 69.2903 143.406 68.8943 143.799C68.4985 144.192 68.5042 144.83 68.9 145.223L71.2962 147.597H69.1486C68.5888 147.597 68.1351 148.048 68.1351 148.604C68.1351 149.16 68.5888 149.611 69.1486 149.611H73.3232L76.667 152.932L73.5512 153.044C73.0078 153.063 72.5345 153.505 72.5292 154.039C72.5286 154.054 72.482 154.07 72.482 154.085C72.482 154.085 72.482 154.086 72.482 154.086C72.482 154.087 72.5286 154.088 72.5286 154.089C72.5347 154.341 72.6577 154.591 72.8523 154.782L74.993 156.859H70.3007L67.3766 153.955C66.9807 153.562 66.3391 153.562 65.9432 153.955C65.5474 154.348 65.5474 154.985 65.9432 155.378L67.4338 156.859H64.0135C63.4536 156.859 63 157.31 63 157.866C63 158.422 63.4536 158.872 64.0135 158.872H67.3946L65.9432 160.314C65.5474 160.707 65.5474 161.345 65.9432 161.738C66.1412 161.934 66.4007 162.032 66.66 162.032C66.9193 162.032 67.1788 161.934 67.3768 161.738L70.2614 158.872H74.9947L72.9335 161.073C72.5523 161.48 72.5754 162.117 72.9853 162.496C73.1804 162.676 73.4281 162.766 73.6753 162.766C73.6799 162.766 73.6845 162.765 73.6892 162.765C73.6922 162.765 73.6951 162.765 73.698 162.765C73.7004 162.765 73.703 162.765 73.7054 162.765L76.6791 162.748L73.2839 166.121H69.1486C68.5888 166.121 68.1351 166.571 68.1351 167.128C68.1351 167.684 68.5888 168.134 69.1486 168.134H71.2569L68.9057 170.47C68.5099 170.863 68.5099 171.5 68.9057 171.893C69.1036 172.09 69.3631 172.188 69.6224 172.188C69.8818 172.188 70.1186 172.09 70.3166 171.893L72.6173 169.586V171.624C72.6173 172.18 73.0709 172.631 73.6308 172.631C74.1907 172.631 74.6443 172.18 74.6443 171.624V167.572L78.0828 164.179L78.2149 167.453C78.2349 167.996 78.6901 168.434 79.2327 168.423C79.417 168.419 79.617 168.361 79.8154 168.216C79.9591 168.111 81.9416 166.094 81.9416 166.094V170.843L79.1077 173.68C78.7118 174.074 78.7231 174.711 79.1188 175.104C79.3168 175.301 79.5816 175.399 79.8411 175.399C80.1004 175.399 80.3401 175.301 80.538 175.104L81.9416 173.691V176.993C81.9416 177.549 82.3953 178 82.9551 178C83.515 178 83.9686 177.549 83.9686 176.993V173.596L85.5097 175.104C85.7077 175.301 85.9784 175.399 86.2377 175.399C86.497 175.399 86.7622 175.301 86.96 175.104C87.3558 174.711 87.3361 174.074 86.9403 173.681L83.9686 170.748V165.956C83.9686 165.956 85.8239 167.687 86.1168 167.967C86.4096 168.246 86.6495 168.403 86.9985 168.403C87.0005 168.403 87.0026 168.403 87.0047 168.403C87.5645 168.403 88.0155 167.919 88.0122 167.363L87.9708 164.182L91.2659 167.478V171.624C91.2659 172.18 91.7196 172.631 92.2795 172.631C92.8393 172.631 93.293 172.18 93.293 171.624V169.491L95.7341 171.893C95.932 172.09 96.2026 172.188 96.462 172.188C96.7214 172.188 96.9864 172.09 97.1843 171.893C97.5801 171.5 97.583 170.863 97.1872 170.47L94.8385 168.134H96.8513C97.4112 168.134 97.8649 167.684 97.8649 167.128C97.8649 166.571 97.4112 166.121 96.8513 166.121H92.8116L89.333 162.666L92.4491 162.554C92.4601 162.554 92.4709 162.552 92.4819 162.551C92.4859 162.551 92.49 162.55 92.4941 162.55C93.0315 162.507 93.445 162.052 93.4254 161.512C93.4136 161.186 93.247 160.903 92.9991 160.728L91.1268 158.872H95.8342L98.7186 161.738C98.9166 161.934 99.1759 162.033 99.4354 162.033C99.6947 162.033 99.9542 161.934 100.152 161.738C100.548 161.345 100.548 160.707 100.152 160.314L98.7008 158.873H101.986C102.546 158.873 103 158.422 103 157.866C103 157.31 102.546 156.859 101.986 156.859ZM89.9993 154.843L88.1112 156.859H85.4751L87.5024 154.845L89.9993 154.843ZM85.8662 150.857L85.9143 153.542L83.9685 155.463V152.652L85.8662 150.857ZM80.0626 150.868L81.9415 152.656V155.368L80.0597 153.488L80.0626 150.868ZM75.9543 154.972L78.6249 154.877L80.6205 156.859H77.8774L75.9543 154.972ZM76.0062 160.749L77.7635 158.872H80.5812L78.7108 160.73L76.0062 160.749ZM80.1436 165.06L80.0282 162.236L81.9415 160.324V163.224L80.1436 165.06ZM85.9485 165.015L83.9685 163.206V160.229L85.9201 162.157L85.9485 165.015ZM90.0258 160.626L87.3753 160.721L85.5145 158.872H88.2566L90.0258 160.626Z" fill="url(#paint1_linear_634_158)"/>
<path fill-rule="evenodd" clip-rule="evenodd" d="M204.004 61.9744C199.785 63.8476 195.115 64.8885 190.2 64.8885C171.422 64.8885 156.2 49.6912 156.2 30.9443C156.2 22.4432 159.33 14.672 164.503 8.71678C161.796 8.24563 159.011 8 156.169 8C129.555 8 107.98 29.5396 107.98 56.11C107.98 82.6804 129.555 104.22 156.169 104.22C180.795 104.22 201.106 85.7788 204.004 61.9744Z" fill="url(#paint2_radial_634_158)"/>
<path d="M46.6172 38.0517L47.5245 37.8639L47.7627 36.9685C51.9714 21.1532 66.4063 9.5 83.5636 9.5C102.961 9.5 118.876 24.3945 120.473 43.3548L120.574 44.5518L121.764 44.715C132.985 46.2538 141.627 55.871 141.627 67.5C141.627 80.201 131.32 90.5 118.601 90.5H85.3155H52.0299C37.3763 90.5 25.5 78.634 25.5 64C25.5 51.2195 34.5596 40.5475 46.6172 38.0517Z" fill="url(#paint3_linear_634_158)" stroke="url(#paint4_linear_634_158)" stroke-width="3"/>
<path d="M61.0991 72.9059L62.0065 72.7165L62.243 71.8203C68.2789 48.9459 88.9745 32.105 113.56 32.105C141.354 32.105 164.176 53.6299 166.466 81.0568L166.566 82.2534L167.756 82.4179C183.947 84.657 196.435 98.6557 196.435 115.605C196.435 134.117 181.541 149.105 163.192 149.105H116.041H68.8907C47.8006 149.105 30.6848 131.878 30.6848 110.605C30.6848 92.0263 43.7423 76.5292 61.0991 72.9059Z" fill="url(#paint5_linear_634_158)" stroke="url(#paint6_linear_634_158)" stroke-width="3"/>
</g>
<defs>
<filter id="filter0_d_634_158" x="0" y="0" width="212.004" height="212" filterUnits="userSpaceOnUse" color-interpolation-filters="sRGB">
<feFlood flood-opacity="0" result="BackgroundImageFix"/>
<feColorMatrix in="SourceAlpha" type="matrix" values="0 0 0 0 0 0 0 0 0 0 0 0 0 0 0 0 0 0 127 0" result="hardAlpha"/>
<feOffset dx="-8" dy="8"/>
<feGaussianBlur stdDeviation="8"/>
<feComposite in2="hardAlpha" operator="out"/>
<feColorMatrix type="matrix" values="0 0 0 0 0.164271 0 0 0 0 0.31478 0 0 0 0 0.475 0 0 0 0.1 0"/>
<feBlend mode="normal" in2="BackgroundImageFix" result="effect1_dropShadow_634_158"/>
<feBlend mode="normal" in="SourceGraphic" in2="effect1_dropShadow_634_158" result="shape"/>
</filter>
<linearGradient id="paint0_linear_634_158" x1="143" y1="128" x2="143" y2="188" gradientUnits="userSpaceOnUse">
<stop stop-color="#5EC5FF"/>
<stop offset="1" stop-color="#00A3FF"/>
</linearGradient>
<linearGradient id="paint1_linear_634_158" x1="83" y1="138" x2="83" y2="178" gradientUnits="userSpaceOnUse">
<stop stop-color="#5EC5FF"/>
<stop offset="1" stop-color="#00A3FF"/>
</linearGradient>
<radialGradient id="paint2_radial_634_158" cx="0" cy="0" r="1" gradientUnits="userSpaceOnUse" gradientTransform="translate(163.665 47.0226) rotate(126.312) scale(63.5185 63.5498)">
<stop stop-color="#CFDDF9"/>
<stop offset="1" stop-color="#465897"/>
</radialGradient>
<linearGradient id="paint3_linear_634_158" x1="24" y1="8" x2="145.046" y2="89.1383" gradientUnits="userSpaceOnUse">
<stop stop-color="white" stop-opacity="0.9"/>
<stop offset="1" stop-color="white" stop-opacity="0.4"/>
</linearGradient>
<linearGradient id="paint4_linear_634_158" x1="24" y1="8" x2="125.659" y2="84.3502" gradientUnits="userSpaceOnUse">
<stop stop-color="white" stop-opacity="0.9"/>
<stop offset="1" stop-color="white" stop-opacity="0.2"/>
</linearGradient>
<linearGradient id="paint5_linear_634_158" x1="29.1848" y1="30.605" x2="201.547" y2="145.17" gradientUnits="userSpaceOnUse">
<stop stop-color="white" stop-opacity="0.9"/>
<stop offset="1" stop-color="white" stop-opacity="0.4"/>
</linearGradient>
<linearGradient id="paint6_linear_634_158" x1="29.1848" y1="30.605" x2="174.066" y2="138.501" gradientUnits="userSpaceOnUse">
<stop stop-color="white" stop-opacity="0.9"/>
<stop offset="1" stop-color="white" stop-opacity="0.2"/>
</linearGradient>
</defs>
</svg>
