<svg width="132" height="132" viewBox="0 0 132 132" fill="none" xmlns="http://www.w3.org/2000/svg">
<g filter="url(#filter0_d_677_27)">
<path d="M91.4894 90.3775H88.7184L89.9606 89.1437C90.2906 88.8161 90.2906 88.2849 89.9607 87.9574C89.6309 87.6297 89.0961 87.6296 88.7663 87.9573L86.3295 90.3775H82.2338L84.0561 88.4321C84.3738 88.0929 84.3545 87.5622 84.013 87.2464C83.873 87.1171 83.7005 87.0448 83.5237 87.0271C83.4165 87.0218 81.103 87.0267 81.103 87.0267L83.8107 84.3372H87.21C87.6766 84.3372 88.0546 83.9617 88.0546 83.4983C88.0546 83.0349 87.6766 82.6594 87.21 82.6594H85.4998L87.492 80.6806C87.8218 80.3529 87.8218 79.8218 87.492 79.4941C87.162 79.1665 86.6086 79.1665 86.2787 79.4941L84.2445 81.4961V79.7511C84.2445 79.2877 83.8665 78.9122 83.3999 78.9122C82.9333 78.9122 82.5553 79.2877 82.5553 79.7511V83.174L79.7583 85.9709L79.7115 83.4379C79.7114 83.4339 79.7155 83.4301 79.7154 83.4261C79.7114 83.222 79.6361 83.0188 79.4823 82.8602C79.1587 82.5266 78.6063 82.5168 78.2704 82.8385L76.4741 84.5416V80.602L78.8919 78.219C79.2218 77.8913 79.2311 77.3602 78.9013 77.0325C78.5713 76.705 78.0226 76.705 77.6927 77.0325L76.4741 78.229V75.5005C76.4741 75.0371 76.0961 74.6616 75.6295 74.6616C75.1629 74.6616 74.7849 75.0371 74.7849 75.5005V78.2291L73.599 77.0327C73.2691 76.7051 72.7438 76.7051 72.4139 77.0327C72.084 77.3604 72.07 77.8915 72.3998 78.2191L74.7849 80.6021V84.5642L72.9632 82.8332C72.6244 82.5148 72.0995 82.5292 71.7785 82.8655C71.6574 82.9926 71.589 83.1474 71.563 83.3079C71.547 83.3731 71.5401 83.4408 71.5403 83.5105L71.5304 85.8851L68.7038 83.095V79.7511C68.7038 79.2877 68.3257 78.9122 67.8592 78.9122C67.3926 78.9122 67.0146 79.2877 67.0146 79.7511V81.4171L65.0972 79.4941C64.7672 79.1665 64.242 79.1665 63.912 79.4941C63.5822 79.8218 63.5869 80.3529 63.9168 80.6806L65.9136 82.6594H64.124C63.6574 82.6594 63.2794 83.0349 63.2794 83.4983C63.2794 83.9617 63.6574 84.3372 64.124 84.3372H67.6029L70.3894 87.105L67.7928 87.198C67.34 87.2143 66.9455 87.5822 66.9411 88.0277C66.9407 88.0403 66.9018 88.0529 66.9018 88.0654C66.9018 88.0658 66.9018 88.0662 66.9018 88.0667C66.9018 88.0675 66.9407 88.0686 66.9407 88.0693C66.9458 88.2791 67.0482 88.4872 67.2104 88.6463L68.9943 90.3775H65.084L62.6473 87.9571C62.3173 87.6296 61.7826 87.6296 61.4527 87.9571C61.1229 88.2849 61.1229 88.816 61.4527 89.1436L62.6949 90.3774H59.8446C59.378 90.3774 59 90.7529 59 91.2163C59 91.6797 59.378 92.0552 59.8446 92.0552H62.6622L61.4527 93.2566C61.1229 93.5843 61.1229 94.1154 61.4527 94.4431C61.6177 94.6068 61.834 94.6887 62.0501 94.6887C62.2662 94.6887 62.4824 94.6068 62.6474 94.4431L65.0512 92.0554H68.9958L67.2781 93.8891C66.9604 94.2283 66.9797 94.759 67.3212 95.0748C67.4838 95.2252 67.6903 95.2995 67.8962 95.2995C67.9001 95.2995 67.9039 95.299 67.9078 95.299C67.9103 95.299 67.9128 95.2993 67.9151 95.2993C67.9172 95.2993 67.9193 95.2993 67.9213 95.2993L70.3994 95.2853L67.5701 98.0956H64.124C63.6574 98.0956 63.2794 98.4711 63.2794 98.9346C63.2794 99.398 63.6574 99.7735 64.124 99.7735H65.8809L63.9215 101.72C63.5916 102.047 63.5916 102.579 63.9215 102.906C64.0865 103.07 64.3027 103.152 64.5188 103.152C64.7349 103.152 64.9323 103.07 65.0973 102.906L67.0146 100.983V102.682C67.0146 103.145 67.3926 103.521 67.8592 103.521C68.3257 103.521 68.7038 103.145 68.7038 102.682V99.3054L71.5693 96.4778L71.6793 99.206C71.696 99.6586 72.0754 100.023 72.5275 100.014C72.6811 100.011 72.8478 99.9622 73.0131 99.8416C73.1328 99.7542 74.785 98.0729 74.785 98.0729V102.031L72.4233 104.395C72.0934 104.723 72.1028 105.254 72.4326 105.582C72.5976 105.746 72.8183 105.828 73.0345 105.828C73.2506 105.828 73.4504 105.746 73.6153 105.582L74.785 104.404V107.156C74.785 107.619 75.163 107.995 75.6296 107.995C76.0962 107.995 76.4742 107.619 76.4742 107.156V104.325L77.7585 105.582C77.9234 105.746 78.149 105.828 78.3651 105.828C78.5812 105.828 78.8022 105.746 78.9671 105.582C79.2969 105.254 79.2805 104.723 78.9506 104.395L76.4742 101.952V97.9586C76.4742 97.9586 78.0203 99.4011 78.2643 99.6338C78.5084 99.8664 78.7083 99.9973 78.9991 99.9973C79.0008 99.9973 79.0025 99.9973 79.0043 99.9973C79.4708 99.9973 79.8467 99.5942 79.8439 99.1309L79.8094 96.4803L82.5554 99.2265V102.682C82.5554 103.145 82.9335 103.521 83.4 103.521C83.8666 103.521 84.2446 103.145 84.2446 102.682V100.904L86.2789 102.906C86.4439 103.07 86.6693 103.152 86.8856 103.152C87.1017 103.152 87.3225 103.07 87.4875 102.906C87.8173 102.578 87.8197 102.047 87.4898 101.72L85.5326 99.7735H87.21C87.6766 99.7735 88.0546 99.398 88.0546 98.9346C88.0546 98.4711 87.6766 98.0956 87.21 98.0956H83.8435L80.9446 95.2162L83.5413 95.1233C83.5506 95.1229 83.5596 95.1215 83.5687 95.1209C83.5721 95.1207 83.5755 95.1203 83.5788 95.12C84.0267 95.0843 84.3713 94.7051 84.355 94.2547C84.3452 93.9835 84.2063 93.7479 83.9997 93.6018L82.4394 92.0554H86.3624L88.7661 94.4431C88.9311 94.6069 89.1472 94.6888 89.3634 94.6888C89.5795 94.6888 89.7957 94.6069 89.9606 94.4432C90.2906 94.1155 90.2906 93.5843 89.9607 93.2568L88.7512 92.0555H91.4894C91.9559 92.0555 92.334 91.68 92.334 91.2165C92.334 90.7531 91.9559 90.3775 91.4894 90.3775ZM81.4999 88.6978L79.9264 90.3775H77.7296L79.4191 88.6994L81.4999 88.6978ZM78.0555 85.3757L78.0956 87.6131L76.4741 89.2143V86.8719L78.0555 85.3757ZM73.2191 85.3848L74.7849 86.875V89.1351L73.2167 87.5682L73.2191 85.3848ZM69.7955 88.8052L72.021 88.7256L73.6841 90.3775H71.3981L69.7955 88.8052ZM69.8387 93.6188L71.3032 92.0554H73.6513L72.0926 93.6036L69.8387 93.6188ZM73.2866 97.2118L73.1905 94.8582L74.7849 93.2652V95.6818L73.2866 97.2118ZM78.1241 97.1744L76.4741 95.6668V93.1859L78.1005 94.792L78.1241 97.1744ZM81.5219 93.5167L79.3131 93.5956L77.7624 92.0554H80.0476L81.5219 93.5167Z" fill="url(#paint0_linear_677_27)"/>
<path d="M124 34.7218C124 49.4826 112.034 61.4486 97.2727 61.4486C82.5116 61.4486 70.5453 49.4826 70.5453 34.7218C70.5453 19.961 82.5116 7.995 97.2727 7.995C112.034 7.995 124 19.961 124 34.7218Z" fill="url(#paint1_radial_677_27)"/>
<path d="M36.7005 25.3432L37.6077 25.1554L37.846 24.2601C40.1083 15.7589 47.8687 9.495 57.0915 9.495C67.5195 9.495 76.0745 17.502 76.9328 27.6925L77.0336 28.8895L78.2237 29.0527C84.1328 29.863 88.6831 34.9283 88.6831 41.0506C88.6831 47.7378 83.2557 53.1617 76.5572 53.1617H58.0648H39.5725C31.7989 53.1617 25.5 46.8672 25.5 39.1061C25.5 32.3288 30.3045 26.6671 36.7005 25.3432Z" fill="url(#paint2_linear_677_27)" stroke="url(#paint3_linear_677_27)" stroke-width="3"/>
<path d="M44.7472 44.7065L45.6545 44.5171L45.891 43.6208C49.1698 31.1952 60.4107 22.0533 73.7563 22.0533C88.8442 22.0533 101.241 33.739 102.485 48.6376L102.585 49.8342L103.774 49.9987C112.441 51.1972 119.132 58.6931 119.132 67.7756C119.132 77.6964 111.152 85.72 101.33 85.72H75.135H48.9397C37.5955 85.72 28.3804 76.4528 28.3804 64.9978C28.3804 54.9951 35.4103 46.6555 44.7472 44.7065Z" fill="url(#paint4_linear_677_27)" stroke="url(#paint5_linear_677_27)" stroke-width="3"/>
</g>
<defs>
<filter id="filter0_d_677_27" x="0" y="-0.00500488" width="132" height="132" filterUnits="userSpaceOnUse" color-interpolation-filters="sRGB">
<feFlood flood-opacity="0" result="BackgroundImageFix"/>
<feColorMatrix in="SourceAlpha" type="matrix" values="0 0 0 0 0 0 0 0 0 0 0 0 0 0 0 0 0 0 127 0" result="hardAlpha"/>
<feOffset dx="-8" dy="8"/>
<feGaussianBlur stdDeviation="8"/>
<feComposite in2="hardAlpha" operator="out"/>
<feColorMatrix type="matrix" values="0 0 0 0 0.164271 0 0 0 0 0.31478 0 0 0 0 0.475 0 0 0 0.1 0"/>
<feBlend mode="normal" in2="BackgroundImageFix" result="effect1_dropShadow_677_27"/>
<feBlend mode="normal" in="SourceGraphic" in2="effect1_dropShadow_677_27" result="shape"/>
</filter>
<linearGradient id="paint0_linear_677_27" x1="75.667" y1="74.6616" x2="75.667" y2="107.995" gradientUnits="userSpaceOnUse">
<stop stop-color="#5EC5FF"/>
<stop offset="1" stop-color="#00A3FF"/>
</linearGradient>
<radialGradient id="paint1_radial_677_27" cx="0" cy="0" r="1" gradientUnits="userSpaceOnUse" gradientTransform="translate(108.029 21.8147) rotate(127.113) scale(45.5113 45.5115)">
<stop stop-color="#FFD600"/>
<stop offset="1" stop-color="#FF6B00"/>
</radialGradient>
<linearGradient id="paint2_linear_677_27" x1="24" y1="7.995" x2="91.248" y2="53.073" gradientUnits="userSpaceOnUse">
<stop stop-color="white" stop-opacity="0.9"/>
<stop offset="1" stop-color="white" stop-opacity="0.4"/>
</linearGradient>
<linearGradient id="paint3_linear_677_27" x1="24" y1="7.995" x2="80.4775" y2="50.4128" gradientUnits="userSpaceOnUse">
<stop stop-color="white" stop-opacity="0.9"/>
<stop offset="1" stop-color="white" stop-opacity="0.2"/>
</linearGradient>
<linearGradient id="paint4_linear_677_27" x1="26.8804" y1="20.5533" x2="122.638" y2="84.2021" gradientUnits="userSpaceOnUse">
<stop stop-color="white" stop-opacity="0.9"/>
<stop offset="1" stop-color="white" stop-opacity="0.4"/>
</linearGradient>
<linearGradient id="paint5_linear_677_27" x1="26.8804" y1="20.5533" x2="107.37" y2="80.4971" gradientUnits="userSpaceOnUse">
<stop stop-color="white" stop-opacity="0.9"/>
<stop offset="1" stop-color="white" stop-opacity="0.2"/>
</linearGradient>
</defs>
</svg>
