<svg width="132" height="132" viewBox="0 0 132 132" fill="none" xmlns="http://www.w3.org/2000/svg">
<g filter="url(#filter0_d_677_32)">
<path d="M91.4881 90.3775H88.7172L89.9594 89.1437C90.2893 88.8161 90.2893 88.2849 89.9595 87.9574C89.6297 87.6297 89.0949 87.6296 88.7651 87.9573L86.3284 90.3775H82.2328L84.0551 88.4321C84.3728 88.0929 84.3535 87.5622 84.012 87.2464C83.872 87.1171 83.6995 87.0448 83.5227 87.0271C83.4155 87.0218 81.1021 87.0267 81.1021 87.0267L83.8097 84.3372H87.2089C87.6754 84.3372 88.0534 83.9617 88.0534 83.4983C88.0534 83.0349 87.6754 82.6594 87.2089 82.6594H85.4988L87.4908 80.6806C87.8207 80.3529 87.8207 79.8218 87.4908 79.4941C87.1609 79.1665 86.6075 79.1665 86.2776 79.4941L84.2435 81.4961V79.7511C84.2435 79.2877 83.8655 78.9122 83.3989 78.9122C82.9324 78.9122 82.5544 79.2877 82.5544 79.7511V83.174L79.7575 85.9709L79.7107 83.4379C79.7106 83.4339 79.7147 83.4301 79.7145 83.4261C79.7106 83.222 79.6353 83.0188 79.4814 82.8602C79.1579 82.5266 78.6056 82.5168 78.2696 82.8385L76.4734 84.5416V80.602L78.8911 78.219C79.221 77.8913 79.2303 77.3602 78.9005 77.0325C78.5705 76.705 78.0218 76.705 77.692 77.0325L76.4734 78.229V75.5005C76.4734 75.0371 76.0954 74.6616 75.6288 74.6616C75.1623 74.6616 74.7842 75.0371 74.7842 75.5005V78.2291L73.5985 77.0327C73.2685 76.7051 72.7433 76.7051 72.4133 77.0327C72.0835 77.3604 72.0694 77.8915 72.3993 78.2191L74.7842 80.6021V84.5642L72.9627 82.8332C72.6238 82.5148 72.0989 82.5292 71.778 82.8655C71.6569 82.9926 71.5885 83.1474 71.5625 83.3079C71.5465 83.3731 71.5396 83.4408 71.5398 83.5105L71.5299 85.8851L68.7034 83.095V79.7511C68.7034 79.2877 68.3254 78.9122 67.8588 78.9122C67.3923 78.9122 67.0142 79.2877 67.0142 79.7511V81.4171L65.0969 79.4941C64.767 79.1665 64.2418 79.1665 63.9118 79.4941C63.582 79.8218 63.5867 80.3529 63.9166 80.6806L65.9134 82.6594H64.1238C63.6572 82.6594 63.2792 83.0349 63.2792 83.4983C63.2792 83.9617 63.6572 84.3372 64.1238 84.3372H67.6025L70.389 87.105L67.7925 87.198C67.3397 87.2143 66.9452 87.5822 66.9408 88.0277C66.9404 88.0403 66.9015 88.0529 66.9015 88.0654C66.9015 88.0658 66.9015 88.0662 66.9015 88.0667C66.9015 88.0675 66.9404 88.0686 66.9404 88.0693C66.9454 88.2791 67.0479 88.4872 67.2101 88.6463L68.9939 90.3775H65.0838L62.6471 87.9571C62.3172 87.6296 61.7825 87.6296 61.4527 87.9571C61.1228 88.2849 61.1228 88.816 61.4527 89.1436L62.6947 90.3774H59.8446C59.378 90.3774 59 90.7529 59 91.2163C59 91.6797 59.378 92.0552 59.8446 92.0552H62.6621L61.4527 93.2566C61.1228 93.5843 61.1228 94.1154 61.4527 94.4431C61.6176 94.6068 61.8338 94.6887 62.0499 94.6887C62.266 94.6887 62.4822 94.6068 62.6472 94.4431L65.051 92.0554H68.9954L67.2778 93.8891C66.9601 94.2283 66.9793 94.759 67.3209 95.0748C67.4835 95.2252 67.6899 95.2995 67.8959 95.2995C67.8997 95.2995 67.9035 95.299 67.9075 95.299C67.9099 95.299 67.9124 95.2993 67.9148 95.2993C67.9168 95.2993 67.919 95.2993 67.921 95.2993L70.399 95.2853L67.5698 98.0956H64.1238C63.6572 98.0956 63.2792 98.4711 63.2792 98.9346C63.2792 99.398 63.6572 99.7735 64.1238 99.7735H65.8806L63.9213 101.72C63.5915 102.047 63.5915 102.579 63.9213 102.906C64.0863 103.07 64.3025 103.152 64.5186 103.152C64.7347 103.152 64.9321 103.07 65.0971 102.906L67.0142 100.983V102.682C67.0142 103.145 67.3923 103.521 67.8588 103.521C68.3254 103.521 68.7034 103.145 68.7034 102.682V99.3054L71.5688 96.4778L71.6788 99.206C71.6955 99.6586 72.0748 100.023 72.527 100.014C72.6806 100.011 72.8472 99.9622 73.0125 99.8416C73.1322 99.7542 74.7844 98.0729 74.7844 98.0729V102.031L72.4228 104.395C72.0929 104.723 72.1023 105.254 72.432 105.582C72.597 105.746 72.8177 105.828 73.0339 105.828C73.25 105.828 73.4498 105.746 73.6147 105.582L74.7844 104.404V107.156C74.7844 107.619 75.1624 107.995 75.6289 107.995C76.0955 107.995 76.4735 107.619 76.4735 107.156V104.325L77.7577 105.582C77.9227 105.746 78.1482 105.828 78.3643 105.828C78.5804 105.828 78.8014 105.746 78.9663 105.582C79.2961 105.254 79.2796 104.723 78.9498 104.395L76.4735 101.952V97.9586C76.4735 97.9586 78.0195 99.4011 78.2636 99.6338C78.5076 99.8664 78.7075 99.9973 78.9983 99.9973C79 99.9973 79.0017 99.9973 79.0035 99.9973C79.47 99.9973 79.8458 99.5942 79.843 99.1309L79.8086 96.4803L82.5545 99.2265V102.682C82.5545 103.145 82.9325 103.521 83.399 103.521C83.8656 103.521 84.2436 103.145 84.2436 102.682V100.904L86.2778 102.906C86.4428 103.07 86.6682 103.152 86.8844 103.152C87.1005 103.152 87.3214 103.07 87.4863 102.906C87.8162 102.578 87.8185 102.047 87.4887 101.72L85.5315 99.7735H87.2089C87.6754 99.7735 88.0534 99.398 88.0534 98.9346C88.0534 98.4711 87.6754 98.0956 87.2089 98.0956H83.8425L80.9437 95.2162L83.5404 95.1233C83.5496 95.1229 83.5586 95.1215 83.5677 95.1209C83.5711 95.1207 83.5745 95.1203 83.5779 95.12C84.0257 95.0843 84.3703 94.7051 84.354 94.2547C84.3442 93.9835 84.2053 93.7479 83.9987 93.6018L82.4385 92.0554H86.3613L88.7649 94.4431C88.9299 94.6069 89.146 94.6888 89.3622 94.6888C89.5783 94.6888 89.7945 94.6069 89.9594 94.4432C90.2893 94.1155 90.2893 93.5843 89.9595 93.2568L88.7501 92.0555H91.4881C91.9546 92.0555 92.3326 91.68 92.3326 91.2165C92.3326 90.7531 91.9546 90.3775 91.4881 90.3775ZM81.499 88.6978L79.9256 90.3775H77.7289L79.4183 88.6994L81.499 88.6978ZM78.0548 85.3757L78.0949 87.6131L76.4734 89.2143V86.8719L78.0548 85.3757ZM73.2185 85.3848L74.7842 86.875V89.1351L73.2161 87.5682L73.2185 85.3848ZM69.795 88.8052L72.0204 88.7256L73.6835 90.3775H71.3976L69.795 88.8052ZM69.8383 93.6188L71.3027 92.0554H73.6507L72.0921 93.6036L69.8383 93.6188ZM73.2861 97.2118L73.1899 94.8582L74.7842 93.2652V95.6818L73.2861 97.2118ZM78.1234 97.1744L76.4734 95.6668V93.1859L78.0997 94.792L78.1234 97.1744ZM81.521 93.5167L79.3123 93.5956L77.7617 92.0554H80.0467L81.521 93.5167Z" fill="url(#paint0_linear_677_32)"/>
<path fill-rule="evenodd" clip-rule="evenodd" d="M124 37.9808C121.657 39.0214 119.062 39.5997 116.331 39.5997C105.9 39.5997 97.4429 31.1568 97.4429 20.7418C97.4429 16.019 99.1818 11.7016 102.055 8.39321C100.552 8.13146 99.0046 7.995 97.4257 7.995C82.6404 7.995 70.6545 19.9614 70.6545 34.7228C70.6545 49.4841 82.6404 61.4505 97.4257 61.4505C111.106 61.4505 122.39 51.2055 124 37.9808Z" fill="url(#paint1_radial_677_32)"/>
<path d="M36.7 25.3432L37.6073 25.1554L37.8455 24.2601C40.1077 15.7588 47.8678 9.495 57.0902 9.495C67.5177 9.495 76.0723 17.5019 76.9306 27.6925L77.0314 28.8895L78.2215 29.0527C84.1303 29.863 88.6804 34.9283 88.6804 41.0506C88.6804 47.7379 83.2532 53.1617 76.555 53.1617H58.0635H39.5719C31.7987 53.1617 25.5 46.8673 25.5 39.1061C25.5 32.3287 30.3043 26.6671 36.7 25.3432Z" fill="url(#paint2_linear_677_32)" stroke="url(#paint3_linear_677_32)" stroke-width="3"/>
<path d="M44.7464 44.7065L45.6537 44.517L45.8902 43.6208C49.1689 31.1952 60.4093 22.0533 73.7543 22.0533C88.8415 22.0533 101.238 33.7389 102.482 48.6376L102.582 49.8342L103.771 49.9987C112.437 51.1971 119.128 58.693 119.128 67.7756C119.128 77.6965 111.148 85.72 101.327 85.72H75.133H48.9387C37.595 85.72 28.3803 76.4528 28.3803 64.9978C28.3803 54.995 35.4099 46.6555 44.7464 44.7065Z" fill="url(#paint4_linear_677_32)" stroke="url(#paint5_linear_677_32)" stroke-width="3"/>
</g>
<defs>
<filter id="filter0_d_677_32" x="0" y="-0.00500488" width="132" height="132" filterUnits="userSpaceOnUse" color-interpolation-filters="sRGB">
<feFlood flood-opacity="0" result="BackgroundImageFix"/>
<feColorMatrix in="SourceAlpha" type="matrix" values="0 0 0 0 0 0 0 0 0 0 0 0 0 0 0 0 0 0 127 0" result="hardAlpha"/>
<feOffset dx="-8" dy="8"/>
<feGaussianBlur stdDeviation="8"/>
<feComposite in2="hardAlpha" operator="out"/>
<feColorMatrix type="matrix" values="0 0 0 0 0.164271 0 0 0 0 0.31478 0 0 0 0 0.475 0 0 0 0.1 0"/>
<feBlend mode="normal" in2="BackgroundImageFix" result="effect1_dropShadow_677_32"/>
<feBlend mode="normal" in="SourceGraphic" in2="effect1_dropShadow_677_32" result="shape"/>
</filter>
<linearGradient id="paint0_linear_677_32" x1="75.6663" y1="74.6616" x2="75.6663" y2="107.995" gradientUnits="userSpaceOnUse">
<stop stop-color="#5EC5FF"/>
<stop offset="1" stop-color="#00A3FF"/>
</linearGradient>
<radialGradient id="paint1_radial_677_32" cx="0" cy="0" r="1" gradientUnits="userSpaceOnUse" gradientTransform="translate(101.59 29.6742) rotate(126.311) scale(35.2878 35.3049)">
<stop stop-color="#CFDDF9"/>
<stop offset="1" stop-color="#465897"/>
</radialGradient>
<linearGradient id="paint2_linear_677_32" x1="24" y1="7.995" x2="91.247" y2="53.0705" gradientUnits="userSpaceOnUse">
<stop stop-color="white" stop-opacity="0.9"/>
<stop offset="1" stop-color="white" stop-opacity="0.4"/>
</linearGradient>
<linearGradient id="paint3_linear_677_32" x1="24" y1="7.995" x2="80.4769" y2="50.4106" gradientUnits="userSpaceOnUse">
<stop stop-color="white" stop-opacity="0.9"/>
<stop offset="1" stop-color="white" stop-opacity="0.2"/>
</linearGradient>
<linearGradient id="paint4_linear_677_32" x1="26.8803" y1="20.5533" x2="122.637" y2="84.1986" gradientUnits="userSpaceOnUse">
<stop stop-color="white" stop-opacity="0.9"/>
<stop offset="1" stop-color="white" stop-opacity="0.4"/>
</linearGradient>
<linearGradient id="paint5_linear_677_32" x1="26.8803" y1="20.5533" x2="107.369" y2="80.494" gradientUnits="userSpaceOnUse">
<stop stop-color="white" stop-opacity="0.9"/>
<stop offset="1" stop-color="white" stop-opacity="0.2"/>
</linearGradient>
</defs>
</svg>
