<svg width="132" height="132" viewBox="0 0 132 132" fill="none" xmlns="http://www.w3.org/2000/svg">
<g filter="url(#filter0_d_677_44)">
<path d="M111.489 90.3776H108.718L109.961 89.1438C110.291 88.8162 110.291 88.285 109.961 87.9575C109.631 87.6299 109.096 87.6298 108.766 87.9574L106.329 90.3776H102.234L104.056 88.4322C104.374 88.0931 104.355 87.5623 104.013 87.2465C103.873 87.1172 103.7 87.045 103.524 87.0272C103.416 87.0219 101.103 87.0268 101.103 87.0268L103.811 84.3374H107.21C107.677 84.3374 108.055 83.9619 108.055 83.4984C108.055 83.035 107.677 82.6595 107.21 82.6595H105.5L107.492 80.6808C107.822 80.353 107.822 79.8219 107.492 79.4942C107.162 79.1667 106.609 79.1667 106.279 79.4942L104.245 81.4962V79.7512C104.245 79.2878 103.866 78.9123 103.4 78.9123C102.933 78.9123 102.555 79.2878 102.555 79.7512V83.1742L99.7583 85.971L99.7115 83.438C99.7114 83.434 99.7155 83.4302 99.7154 83.4262C99.7114 83.2221 99.6361 83.0189 99.4823 82.8603C99.1587 82.5267 98.6063 82.5169 98.2704 82.8386L96.4741 84.5417V80.6021L98.8919 78.2191C99.2218 77.8914 99.2311 77.3603 98.9013 77.0327C98.5713 76.7051 98.0226 76.7051 97.6927 77.0327L96.4741 78.2291V75.5007C96.4741 75.0372 96.0961 74.6617 95.6295 74.6617C95.1629 74.6617 94.7849 75.0372 94.7849 75.5007V78.2292L93.599 77.0328C93.2691 76.7053 92.7438 76.7053 92.4139 77.0328C92.084 77.3605 92.07 77.8916 92.3998 78.2192L94.7849 80.6022V84.5643L92.9632 82.8333C92.6244 82.5149 92.0995 82.5293 91.7785 82.8657C91.6574 82.9927 91.589 83.1475 91.563 83.3081C91.547 83.3733 91.5401 83.4409 91.5403 83.5106L91.5304 85.8852L88.7038 83.0951V79.7512C88.7038 79.2878 88.3257 78.9123 87.8592 78.9123C87.3926 78.9123 87.0146 79.2878 87.0146 79.7512V81.4172L85.0972 79.4942C84.7672 79.1667 84.242 79.1667 83.912 79.4942C83.5822 79.8219 83.5869 80.353 83.9168 80.6808L85.9136 82.6595H84.124C83.6574 82.6595 83.2794 83.035 83.2794 83.4984C83.2794 83.9619 83.6574 84.3374 84.124 84.3374H87.6029L90.3894 87.1051L87.7928 87.1981C87.34 87.2144 86.9455 87.5823 86.9411 88.0278C86.9407 88.0404 86.9018 88.053 86.9018 88.0655C86.9018 88.0659 86.9018 88.0663 86.9018 88.0668C86.9018 88.0677 86.9407 88.0687 86.9407 88.0695C86.9458 88.2792 87.0482 88.4874 87.2104 88.6464L88.9943 90.3776H85.084L82.6473 87.9573C82.3173 87.6298 81.7826 87.6298 81.4527 87.9573C81.1229 88.285 81.1229 88.8161 81.4527 89.1437L82.6949 90.3775H79.8446C79.378 90.3775 79 90.753 79 91.2164C79 91.6799 79.378 92.0554 79.8446 92.0554H82.6622L81.4527 93.2567C81.1229 93.5844 81.1229 94.1155 81.4527 94.4432C81.6177 94.6069 81.834 94.6888 82.0501 94.6888C82.2662 94.6888 82.4824 94.6069 82.6474 94.4432L85.0512 92.0555H88.9958L87.2781 93.8893C86.9604 94.2284 86.9797 94.7592 87.3212 95.0749C87.4838 95.2253 87.6903 95.2997 87.8962 95.2997C87.9001 95.2997 87.9039 95.2991 87.9078 95.2991C87.9103 95.2991 87.9128 95.2994 87.9151 95.2994C87.9172 95.2994 87.9193 95.2994 87.9213 95.2994L90.3994 95.2855L87.5701 98.0957H84.124C83.6574 98.0957 83.2794 98.4713 83.2794 98.9347C83.2794 99.3981 83.6574 99.7736 84.124 99.7736H85.8809L83.9215 101.72C83.5916 102.048 83.5916 102.579 83.9215 102.906C84.0865 103.07 84.3027 103.152 84.5188 103.152C84.7349 103.152 84.9323 103.07 85.0973 102.906L87.0146 100.983V102.682C87.0146 103.145 87.3926 103.521 87.8592 103.521C88.3257 103.521 88.7038 103.145 88.7038 102.682V99.3055L91.5693 96.478L91.6793 99.2062C91.696 99.6587 92.0754 100.023 92.5275 100.014C92.6811 100.011 92.8478 99.9623 93.0131 99.8417C93.1328 99.7544 94.785 98.073 94.785 98.073V102.031L92.4233 104.395C92.0934 104.723 92.1028 105.254 92.4326 105.582C92.5976 105.746 92.8183 105.828 93.0345 105.828C93.2506 105.828 93.4504 105.746 93.6153 105.582L94.785 104.404V107.156C94.785 107.62 95.163 107.995 95.6296 107.995C96.0962 107.995 96.4742 107.62 96.4742 107.156V104.325L97.7585 105.582C97.9234 105.746 98.149 105.828 98.3651 105.828C98.5812 105.828 98.8022 105.746 98.9671 105.582C99.2969 105.254 99.2805 104.723 98.9506 104.396L96.4742 101.952V97.9587C96.4742 97.9587 98.0203 99.4012 98.2643 99.6339C98.5084 99.8666 98.7083 99.9974 98.9991 99.9974C99.0008 99.9974 99.0025 99.9974 99.0043 99.9974C99.4708 99.9974 99.8467 99.5943 99.8439 99.131L99.8094 96.4804L102.555 99.2266V102.682C102.555 103.145 102.933 103.521 103.4 103.521C103.867 103.521 104.245 103.145 104.245 102.682V100.904L106.279 102.906C106.444 103.07 106.669 103.152 106.886 103.152C107.102 103.152 107.323 103.07 107.487 102.906C107.817 102.579 107.82 102.047 107.49 101.72L105.533 99.7736H107.21C107.677 99.7736 108.055 99.3981 108.055 98.9347C108.055 98.4713 107.677 98.0957 107.21 98.0957H103.843L100.945 95.2163L103.541 95.1234C103.551 95.123 103.56 95.1216 103.569 95.121C103.572 95.1208 103.575 95.1205 103.579 95.1201C104.027 95.0844 104.371 94.7053 104.355 94.2548C104.345 93.9837 104.206 93.748 104 93.6019L102.439 92.0555H106.362L108.766 94.4432C108.931 94.607 109.147 94.6889 109.363 94.6889C109.58 94.6889 109.796 94.607 109.961 94.4433C110.291 94.1157 110.291 93.5844 109.961 93.2569L108.751 92.0556H111.489C111.956 92.0556 112.334 91.6801 112.334 91.2167C112.334 90.7532 111.956 90.3776 111.489 90.3776ZM101.5 88.6979L99.9264 90.3776H97.7296L99.4191 88.6996L101.5 88.6979ZM98.0555 85.3758L98.0956 87.6132L96.4741 89.2144V86.872L98.0555 85.3758ZM93.2191 85.3849L94.7849 86.8752V89.1352L93.2167 87.5683L93.2191 85.3849ZM89.7955 88.8054L92.021 88.7257L93.6841 90.3776H91.3981L89.7955 88.8054ZM89.8387 93.6189L91.3032 92.0555H93.6513L92.0926 93.6037L89.8387 93.6189ZM93.2866 97.212L93.1905 94.8583L94.7849 93.2653V95.6819L93.2866 97.212ZM98.1241 97.1745L96.4741 95.6669V93.186L98.1005 94.7922L98.1241 97.1745ZM101.522 93.5168L99.3131 93.5957L97.7624 92.0555H100.048L101.522 93.5168Z" fill="url(#paint0_linear_677_44)"/>
<path fill-rule="evenodd" clip-rule="evenodd" d="M44.1517 99.5485C45.5357 100.451 45.9209 102.298 45.0121 103.673L43.3938 105.797C42.485 107.172 40.6262 107.554 39.2422 106.651C37.8581 105.749 37.4729 103.902 38.3817 102.527L40 100.403C40.9089 99.0284 42.7676 98.6457 44.1517 99.5485Z" fill="url(#paint1_linear_677_44)"/>
<path fill-rule="evenodd" clip-rule="evenodd" d="M56.6516 98.8948C58.0357 99.7977 58.4209 101.644 57.5121 103.019L55.9224 105.175C55.0136 106.55 53.1549 106.933 51.7708 106.03C50.3868 105.127 50.0015 103.281 50.9104 101.906L52.5 99.7496C53.4088 98.3746 55.2676 97.9919 56.6516 98.8948Z" fill="url(#paint2_linear_677_44)"/>
<path fill-rule="evenodd" clip-rule="evenodd" d="M68.0381 100.371C69.4222 101.274 69.8074 103.12 68.8986 104.495L67.3089 106.651C66.4001 108.026 64.5413 108.409 63.1573 107.506C61.7732 106.603 61.388 104.757 62.2968 103.382L63.8865 101.226C64.7953 99.8507 66.6541 99.468 68.0381 100.371Z" fill="url(#paint3_linear_677_44)"/>
<path fill-rule="evenodd" clip-rule="evenodd" d="M41.77 89.1488C43.154 90.0517 43.5393 91.8983 42.6304 93.2733L41.0121 95.3968C40.1033 96.7718 38.2445 97.1545 36.8605 96.2517C35.4764 95.3488 35.0912 93.5022 36 92.1272L37.6183 90.0037C38.5272 88.6287 40.3859 88.246 41.77 89.1488Z" fill="url(#paint4_linear_677_44)"/>
<path fill-rule="evenodd" clip-rule="evenodd" d="M54.27 88.4951C55.654 89.398 56.0393 91.2445 55.1304 92.6195L53.5408 94.7756C52.6319 96.1505 50.7732 96.5333 49.3891 95.6304C48.0051 94.7275 47.6199 92.8809 48.5287 91.506L50.1183 89.3499C51.0272 87.9749 52.8859 87.5922 54.27 88.4951Z" fill="url(#paint5_linear_677_44)"/>
<path fill-rule="evenodd" clip-rule="evenodd" d="M65.6565 89.9712C67.0405 90.8741 67.4258 92.7206 66.5169 94.0956L64.9273 96.2517C64.0184 97.6266 62.1597 98.0094 60.7756 97.1065C59.3916 96.2036 59.0063 94.357 59.9152 92.9821L61.5048 90.826C62.4137 89.451 64.2724 89.0683 65.6565 89.9712Z" fill="url(#paint6_linear_677_44)"/>
<path fill-rule="evenodd" clip-rule="evenodd" d="M124 37.9808C121.657 39.0214 119.062 39.5997 116.331 39.5997C105.9 39.5997 97.4429 31.1568 97.4429 20.7418C97.4429 16.019 99.1818 11.7016 102.055 8.39321C100.552 8.13146 99.0046 7.995 97.4257 7.995C82.6404 7.995 70.6545 19.9614 70.6545 34.7228C70.6545 49.4841 82.6404 61.4505 97.4257 61.4505C111.106 61.4505 122.39 51.2055 124 37.9808Z" fill="url(#paint7_radial_677_44)"/>
<path d="M36.7 25.3432L37.6073 25.1554L37.8455 24.2601C40.1077 15.7588 47.8678 9.495 57.0902 9.495C67.5177 9.495 76.0723 17.5019 76.9306 27.6925L77.0314 28.8895L78.2215 29.0527C84.1303 29.863 88.6804 34.9283 88.6804 41.0506C88.6804 47.7379 83.2532 53.1617 76.555 53.1617H58.0635H39.5719C31.7987 53.1617 25.5 46.8673 25.5 39.1061C25.5 32.3287 30.3043 26.6671 36.7 25.3432Z" fill="url(#paint8_linear_677_44)" stroke="url(#paint9_linear_677_44)" stroke-width="3"/>
<path d="M44.7464 44.7065L45.6537 44.517L45.8902 43.6208C49.1689 31.1952 60.4093 22.0533 73.7543 22.0533C88.8415 22.0533 101.238 33.7389 102.482 48.6376L102.582 49.8342L103.771 49.9987C112.437 51.1971 119.128 58.693 119.128 67.7756C119.128 77.6965 111.148 85.72 101.327 85.72H75.133H48.9387C37.595 85.72 28.3803 76.4528 28.3803 64.9978C28.3803 54.995 35.4099 46.6555 44.7464 44.7065Z" fill="url(#paint10_linear_677_44)" stroke="url(#paint11_linear_677_44)" stroke-width="3"/>
</g>
<defs>
<filter id="filter0_d_677_44" x="0" y="-0.00500488" width="132" height="132" filterUnits="userSpaceOnUse" color-interpolation-filters="sRGB">
<feFlood flood-opacity="0" result="BackgroundImageFix"/>
<feColorMatrix in="SourceAlpha" type="matrix" values="0 0 0 0 0 0 0 0 0 0 0 0 0 0 0 0 0 0 127 0" result="hardAlpha"/>
<feOffset dx="-8" dy="8"/>
<feGaussianBlur stdDeviation="8"/>
<feComposite in2="hardAlpha" operator="out"/>
<feColorMatrix type="matrix" values="0 0 0 0 0.164271 0 0 0 0 0.31478 0 0 0 0 0.475 0 0 0 0.1 0"/>
<feBlend mode="normal" in2="BackgroundImageFix" result="effect1_dropShadow_677_44"/>
<feBlend mode="normal" in="SourceGraphic" in2="effect1_dropShadow_677_44" result="shape"/>
</filter>
<linearGradient id="paint0_linear_677_44" x1="95.667" y1="74.6617" x2="95.667" y2="107.995" gradientUnits="userSpaceOnUse">
<stop stop-color="#5EC5FF"/>
<stop offset="1" stop-color="#00A3FF"/>
</linearGradient>
<linearGradient id="paint1_linear_677_44" x1="52.4493" y1="88.006" x2="52.4493" y2="107.995" gradientUnits="userSpaceOnUse">
<stop stop-color="#0066FF"/>
<stop offset="1" stop-color="#00C2FF"/>
</linearGradient>
<linearGradient id="paint2_linear_677_44" x1="52.4493" y1="88.006" x2="52.4493" y2="107.995" gradientUnits="userSpaceOnUse">
<stop stop-color="#0066FF"/>
<stop offset="1" stop-color="#00C2FF"/>
</linearGradient>
<linearGradient id="paint3_linear_677_44" x1="52.4493" y1="88.006" x2="52.4493" y2="107.995" gradientUnits="userSpaceOnUse">
<stop stop-color="#0066FF"/>
<stop offset="1" stop-color="#00C2FF"/>
</linearGradient>
<linearGradient id="paint4_linear_677_44" x1="52.4493" y1="88.006" x2="52.4493" y2="107.995" gradientUnits="userSpaceOnUse">
<stop stop-color="#0066FF"/>
<stop offset="1" stop-color="#00C2FF"/>
</linearGradient>
<linearGradient id="paint5_linear_677_44" x1="52.4493" y1="88.006" x2="52.4493" y2="107.995" gradientUnits="userSpaceOnUse">
<stop stop-color="#0066FF"/>
<stop offset="1" stop-color="#00C2FF"/>
</linearGradient>
<linearGradient id="paint6_linear_677_44" x1="52.4493" y1="88.006" x2="52.4493" y2="107.995" gradientUnits="userSpaceOnUse">
<stop stop-color="#0066FF"/>
<stop offset="1" stop-color="#00C2FF"/>
</linearGradient>
<radialGradient id="paint7_radial_677_44" cx="0" cy="0" r="1" gradientUnits="userSpaceOnUse" gradientTransform="translate(101.59 29.6742) rotate(126.311) scale(35.2878 35.3049)">
<stop stop-color="#CFDDF9"/>
<stop offset="1" stop-color="#465897"/>
</radialGradient>
<linearGradient id="paint8_linear_677_44" x1="24" y1="7.995" x2="91.247" y2="53.0705" gradientUnits="userSpaceOnUse">
<stop stop-color="white" stop-opacity="0.9"/>
<stop offset="1" stop-color="white" stop-opacity="0.4"/>
</linearGradient>
<linearGradient id="paint9_linear_677_44" x1="24" y1="7.995" x2="80.4769" y2="50.4106" gradientUnits="userSpaceOnUse">
<stop stop-color="white" stop-opacity="0.9"/>
<stop offset="1" stop-color="white" stop-opacity="0.2"/>
</linearGradient>
<linearGradient id="paint10_linear_677_44" x1="26.8803" y1="20.5533" x2="122.637" y2="84.1986" gradientUnits="userSpaceOnUse">
<stop stop-color="white" stop-opacity="0.9"/>
<stop offset="1" stop-color="white" stop-opacity="0.4"/>
</linearGradient>
<linearGradient id="paint11_linear_677_44" x1="26.8803" y1="20.5533" x2="107.369" y2="80.494" gradientUnits="userSpaceOnUse">
<stop stop-color="white" stop-opacity="0.9"/>
<stop offset="1" stop-color="white" stop-opacity="0.2"/>
</linearGradient>
</defs>
</svg>
