<svg width="132" height="132" viewBox="0 0 132 132" fill="none" xmlns="http://www.w3.org/2000/svg">
<g filter="url(#filter0_d_678_60)">
<path d="M88.4894 90.3779H85.7184L86.9606 89.1441C87.2906 88.8165 87.2906 88.2853 86.9607 87.9577C86.6309 87.6301 86.0961 87.63 85.7663 87.9576L83.3295 90.3779H79.2338L81.0561 88.4325C81.3738 88.0933 81.3545 87.5625 81.013 87.2468C80.873 87.1175 80.7005 87.0452 80.5237 87.0274C80.4165 87.0222 78.103 87.0271 78.103 87.0271L80.8107 84.3376H84.21C84.6766 84.3376 85.0546 83.9621 85.0546 83.4987C85.0546 83.0353 84.6766 82.6597 84.21 82.6597H82.4998L84.492 80.681C84.8218 80.3533 84.8218 79.8222 84.492 79.4944C84.162 79.1669 83.6086 79.1669 83.2787 79.4944L81.2445 81.4964V79.7515C81.2445 79.288 80.8665 78.9125 80.3999 78.9125C79.9333 78.9125 79.5553 79.288 79.5553 79.7515V83.1744L76.7583 85.9713L76.7115 83.4383C76.7114 83.4342 76.7155 83.4304 76.7154 83.4264C76.7114 83.2224 76.6361 83.0191 76.4823 82.8605C76.1587 82.527 75.6063 82.5171 75.2704 82.8388L73.4741 84.542V80.6024L75.8919 78.2194C76.2218 77.8916 76.2311 77.3605 75.9013 77.0329C75.5713 76.7054 75.0226 76.7054 74.6927 77.0329L73.4741 78.2293V75.5009C73.4741 75.0375 73.0961 74.662 72.6295 74.662C72.1629 74.662 71.7849 75.0375 71.7849 75.5009V78.2294L70.599 77.033C70.2691 76.7055 69.7438 76.7055 69.4139 77.033C69.084 77.3608 69.07 77.8919 69.3998 78.2195L71.7849 80.6025V84.5646L69.9632 82.8336C69.6244 82.5151 69.0995 82.5295 68.7785 82.8659C68.6574 82.993 68.589 83.1478 68.563 83.3083C68.547 83.3735 68.5401 83.4412 68.5403 83.5109L68.5304 85.8855L65.7038 83.0953V79.7515C65.7038 79.288 65.3257 78.9125 64.8592 78.9125C64.3926 78.9125 64.0146 79.288 64.0146 79.7515V81.4175L62.0972 79.4944C61.7672 79.1669 61.242 79.1669 60.912 79.4944C60.5822 79.8222 60.5869 80.3533 60.9168 80.681L62.9136 82.6597H61.124C60.6574 82.6597 60.2794 83.0353 60.2794 83.4987C60.2794 83.9621 60.6574 84.3376 61.124 84.3376H64.6029L67.3894 87.1054L64.7928 87.1983C64.34 87.2147 63.9455 87.5826 63.9411 88.0281C63.9407 88.0406 63.9018 88.0533 63.9018 88.0658C63.9018 88.0661 63.9018 88.0666 63.9018 88.067C63.9018 88.0679 63.9407 88.0689 63.9407 88.0697C63.9458 88.2794 64.0482 88.4876 64.2104 88.6467L65.9943 90.3779H62.084L59.6473 87.9575C59.3173 87.63 58.7826 87.63 58.4527 87.9575C58.1229 88.2853 58.1229 88.8163 58.4527 89.144L59.6949 90.3778H56.8446C56.378 90.3778 56 90.7533 56 91.2167C56 91.6801 56.378 92.0556 56.8446 92.0556H59.6622L58.4527 93.257C58.1229 93.5847 58.1229 94.1158 58.4527 94.4434C58.6177 94.6072 58.834 94.6891 59.0501 94.6891C59.2662 94.6891 59.4824 94.6072 59.6474 94.4434L62.0512 92.0557H65.9958L64.2781 93.8895C63.9604 94.2287 63.9797 94.7594 64.3212 95.0752C64.4838 95.2255 64.6903 95.2999 64.8962 95.2999C64.9001 95.2999 64.9039 95.2993 64.9078 95.2993C64.9103 95.2993 64.9128 95.2997 64.9151 95.2997C64.9172 95.2997 64.9193 95.2997 64.9213 95.2997L67.3994 95.2857L64.5701 98.096H61.124C60.6574 98.096 60.2794 98.4715 60.2794 98.9349C60.2794 99.3983 60.6574 99.7738 61.124 99.7738H62.8809L60.9215 101.72C60.5916 102.048 60.5916 102.579 60.9215 102.907C61.0865 103.07 61.3027 103.152 61.5188 103.152C61.7349 103.152 61.9323 103.07 62.0973 102.907L64.0146 100.984V102.682C64.0146 103.146 64.3926 103.521 64.8592 103.521C65.3257 103.521 65.7038 103.146 65.7038 102.682V99.3057L68.5693 96.4782L68.6793 99.2064C68.696 99.659 69.0754 100.024 69.5275 100.015C69.6811 100.012 69.8478 99.9625 70.0131 99.842C70.1328 99.7546 71.785 98.0733 71.785 98.0733V102.031L69.4233 104.396C69.0934 104.723 69.1028 105.254 69.4326 105.582C69.5976 105.746 69.8183 105.828 70.0345 105.828C70.2506 105.828 70.4504 105.746 70.6153 105.582L71.785 104.404V107.156C71.785 107.62 72.163 107.995 72.6296 107.995C73.0962 107.995 73.4742 107.62 73.4742 107.156V104.325L74.7585 105.582C74.9234 105.746 75.149 105.828 75.3651 105.828C75.5812 105.828 75.8022 105.746 75.9671 105.582C76.2969 105.254 76.2805 104.723 75.9506 104.396L73.4742 101.952V97.959C73.4742 97.959 75.0203 99.4015 75.2643 99.6341C75.5084 99.8668 75.7083 99.9977 75.9991 99.9977C76.0008 99.9977 76.0025 99.9977 76.0043 99.9977C76.4708 99.9977 76.8467 99.5945 76.8439 99.1312L76.8094 96.4807L79.5554 99.2269V102.682C79.5554 103.146 79.9335 103.521 80.4 103.521C80.8666 103.521 81.2446 103.146 81.2446 102.682V100.905L83.2789 102.907C83.4439 103.07 83.6693 103.152 83.8856 103.152C84.1017 103.152 84.3225 103.07 84.4875 102.907C84.8173 102.579 84.8197 102.048 84.4898 101.72L82.5326 99.7738H84.21C84.6766 99.7738 85.0546 99.3983 85.0546 98.9349C85.0546 98.4715 84.6766 98.096 84.21 98.096H80.8435L77.9446 95.2166L80.5413 95.1236C80.5506 95.1233 80.5596 95.1218 80.5687 95.1213C80.5721 95.121 80.5755 95.1207 80.5788 95.1204C81.0267 95.0847 81.3713 94.7055 81.355 94.2551C81.3452 93.9839 81.2063 93.7482 80.9997 93.6021L79.4394 92.0557H83.3624L85.7661 94.4434C85.9311 94.6073 86.1472 94.6892 86.3634 94.6892C86.5795 94.6892 86.7957 94.6073 86.9606 94.4435C87.2906 94.1159 87.2906 93.5847 86.9607 93.2572L85.7512 92.0558H88.4894C88.9559 92.0558 89.334 91.6803 89.334 91.2169C89.334 90.7535 88.9559 90.3779 88.4894 90.3779ZM78.4999 88.6981L76.9264 90.3779H74.7296L76.4191 88.6998L78.4999 88.6981ZM75.0555 85.3761L75.0956 87.6134L73.4741 89.2147V86.8723L75.0555 85.3761ZM70.2191 85.3851L71.7849 86.8754V89.1355L70.2167 87.5686L70.2191 85.3851ZM66.7955 88.8056L69.021 88.726L70.6841 90.3779H68.3981L66.7955 88.8056ZM66.8387 93.6191L68.3032 92.0557H70.6513L69.0926 93.6039L66.8387 93.6191ZM70.2866 97.2122L70.1905 94.8585L71.7849 93.2656V95.6821L70.2866 97.2122ZM75.1241 97.1747L73.4741 95.6671V93.1863L75.1005 94.7924L75.1241 97.1747ZM78.5219 93.517L76.3131 93.596L74.7624 92.0557H77.0476L78.5219 93.517Z" fill="url(#paint0_linear_678_60)"/>
<path fill-rule="evenodd" clip-rule="evenodd" d="M42.1517 99.5509C43.5357 100.454 43.9209 102.3 43.0121 103.675L41.3938 105.799C40.485 107.174 38.6262 107.557 37.2422 106.654C35.8581 105.751 35.4729 103.904 36.3817 102.529L38 100.406C38.9089 99.0307 40.7676 98.648 42.1517 99.5509Z" fill="url(#paint1_linear_678_60)"/>
<path fill-rule="evenodd" clip-rule="evenodd" d="M54.6516 98.8971C56.0357 99.8 56.4209 101.647 55.5121 103.022L53.9224 105.178C53.0136 106.553 51.1549 106.935 49.7708 106.032C48.3868 105.13 48.0015 103.283 48.9104 101.908L50.5 99.752C51.4088 98.377 53.2676 97.9943 54.6516 98.8971Z" fill="url(#paint2_linear_678_60)"/>
<path fill-rule="evenodd" clip-rule="evenodd" d="M39.77 89.1512C41.154 90.0541 41.5393 91.9007 40.6304 93.2756L39.0121 95.3992C38.1033 96.7742 36.2445 97.1569 34.8605 96.254C33.4764 95.3511 33.0912 93.5046 34 92.1296L35.6183 90.006C36.5272 88.6311 38.3859 88.2483 39.77 89.1512Z" fill="url(#paint3_linear_678_60)"/>
<path fill-rule="evenodd" clip-rule="evenodd" d="M52.27 88.4975C53.654 89.4003 54.0393 91.2469 53.1304 92.6219L51.5408 94.7779C50.6319 96.1529 48.7732 96.5356 47.3891 95.6328C46.0051 94.7299 45.6199 92.8833 46.5287 91.5083L48.1183 89.3523C49.0272 87.9773 50.8859 87.5946 52.27 88.4975Z" fill="url(#paint4_linear_678_60)"/>
<path fill-rule="evenodd" clip-rule="evenodd" d="M100.64 99.5509C102.024 100.454 102.409 102.3 101.5 103.675L99.8817 105.799C98.9729 107.174 97.1141 107.557 95.7301 106.654C94.346 105.751 93.9608 103.904 94.8696 102.529L96.4879 100.406C97.3968 99.0307 99.2555 98.648 100.64 99.5509Z" fill="url(#paint5_linear_678_60)"/>
<path fill-rule="evenodd" clip-rule="evenodd" d="M113.14 98.8971C114.524 99.8 114.909 101.647 114 103.022L112.41 105.178C111.502 106.553 109.643 106.935 108.259 106.032C106.875 105.13 106.489 103.283 107.398 101.908L108.988 99.7519C109.897 98.377 111.755 97.9942 113.14 98.8971Z" fill="url(#paint6_linear_678_60)"/>
<path fill-rule="evenodd" clip-rule="evenodd" d="M98.2579 89.1512C99.6419 90.054 100.027 91.9006 99.1183 93.2756L97.5 95.3992C96.5912 96.7741 94.7324 97.1569 93.3484 96.254C91.9643 95.3511 91.5791 93.5045 92.4879 92.1296L94.1062 90.006C95.0151 88.631 96.8738 88.2483 98.2579 89.1512Z" fill="url(#paint7_linear_678_60)"/>
<path fill-rule="evenodd" clip-rule="evenodd" d="M110.758 88.4974C112.142 89.4003 112.527 91.2469 111.618 92.6218L110.029 94.7779C109.12 96.1529 107.261 96.5356 105.877 95.6327C104.493 94.7298 104.108 92.8833 105.017 91.5083L106.606 89.3522C107.515 87.9772 109.374 87.5945 110.758 88.4974Z" fill="url(#paint8_linear_678_60)"/>
<path fill-rule="evenodd" clip-rule="evenodd" d="M124 37.9811C121.657 39.0217 119.062 39.6 116.331 39.6C105.9 39.6 97.4429 31.157 97.4429 20.7421C97.4429 16.0192 99.1818 11.7019 102.055 8.39345C100.552 8.1317 99.0046 7.99524 97.4257 7.99524C82.6404 7.99524 70.6545 19.9617 70.6545 34.723C70.6545 49.4844 82.6404 61.4508 97.4257 61.4508C111.106 61.4508 122.39 51.2057 124 37.9811Z" fill="url(#paint9_radial_678_60)"/>
<path d="M36.7 25.3434L37.6073 25.1556L37.8455 24.2603C40.1077 15.7591 47.8678 9.49524 57.0902 9.49524C67.5177 9.49524 76.0723 17.5021 76.9306 27.6928L77.0314 28.8898L78.2215 29.053C84.1303 29.8632 88.6804 34.9285 88.6804 41.0508C88.6804 47.7381 83.2532 53.1619 76.555 53.1619H58.0635H39.5719C31.7987 53.1619 25.5 46.8675 25.5 39.1064C25.5 32.329 30.3043 26.6673 36.7 25.3434Z" fill="url(#paint10_linear_678_60)" stroke="url(#paint11_linear_678_60)" stroke-width="3"/>
<path d="M44.7464 44.7067L45.6537 44.5173L45.8902 43.6211C49.1689 31.1954 60.4093 22.0536 73.7543 22.0536C88.8415 22.0536 101.238 33.7392 102.482 48.6379L102.582 49.8344L103.771 49.9989C112.437 51.1974 119.128 58.6933 119.128 67.7758C119.128 77.6967 111.148 85.7203 101.327 85.7203H75.133H48.9387C37.595 85.7203 28.3803 76.4531 28.3803 64.998C28.3803 54.9953 35.4099 46.6557 44.7464 44.7067Z" fill="url(#paint12_linear_678_60)" stroke="url(#paint13_linear_678_60)" stroke-width="3"/>
</g>
<defs>
<filter id="filter0_d_678_60" x="0" y="-0.00476074" width="132" height="132" filterUnits="userSpaceOnUse" color-interpolation-filters="sRGB">
<feFlood flood-opacity="0" result="BackgroundImageFix"/>
<feColorMatrix in="SourceAlpha" type="matrix" values="0 0 0 0 0 0 0 0 0 0 0 0 0 0 0 0 0 0 127 0" result="hardAlpha"/>
<feOffset dx="-8" dy="8"/>
<feGaussianBlur stdDeviation="8"/>
<feComposite in2="hardAlpha" operator="out"/>
<feColorMatrix type="matrix" values="0 0 0 0 0.164271 0 0 0 0 0.31478 0 0 0 0 0.475 0 0 0 0.1 0"/>
<feBlend mode="normal" in2="BackgroundImageFix" result="effect1_dropShadow_678_60"/>
<feBlend mode="normal" in="SourceGraphic" in2="effect1_dropShadow_678_60" result="shape"/>
</filter>
<linearGradient id="paint0_linear_678_60" x1="72.667" y1="74.662" x2="72.667" y2="107.995" gradientUnits="userSpaceOnUse">
<stop stop-color="#5EC5FF"/>
<stop offset="1" stop-color="#00A3FF"/>
</linearGradient>
<linearGradient id="paint1_linear_678_60" x1="74" y1="88.0083" x2="74" y2="107.143" gradientUnits="userSpaceOnUse">
<stop stop-color="#5EC5FF"/>
<stop offset="1" stop-color="#00A3FF"/>
</linearGradient>
<linearGradient id="paint2_linear_678_60" x1="74" y1="88.0083" x2="74" y2="107.143" gradientUnits="userSpaceOnUse">
<stop stop-color="#5EC5FF"/>
<stop offset="1" stop-color="#00A3FF"/>
</linearGradient>
<linearGradient id="paint3_linear_678_60" x1="74" y1="88.0083" x2="74" y2="107.143" gradientUnits="userSpaceOnUse">
<stop stop-color="#5EC5FF"/>
<stop offset="1" stop-color="#00A3FF"/>
</linearGradient>
<linearGradient id="paint4_linear_678_60" x1="74" y1="88.0083" x2="74" y2="107.143" gradientUnits="userSpaceOnUse">
<stop stop-color="#5EC5FF"/>
<stop offset="1" stop-color="#00A3FF"/>
</linearGradient>
<linearGradient id="paint5_linear_678_60" x1="74" y1="88.0083" x2="74" y2="107.143" gradientUnits="userSpaceOnUse">
<stop stop-color="#5EC5FF"/>
<stop offset="1" stop-color="#00A3FF"/>
</linearGradient>
<linearGradient id="paint6_linear_678_60" x1="74" y1="88.0083" x2="74" y2="107.143" gradientUnits="userSpaceOnUse">
<stop stop-color="#5EC5FF"/>
<stop offset="1" stop-color="#00A3FF"/>
</linearGradient>
<linearGradient id="paint7_linear_678_60" x1="74" y1="88.0083" x2="74" y2="107.143" gradientUnits="userSpaceOnUse">
<stop stop-color="#5EC5FF"/>
<stop offset="1" stop-color="#00A3FF"/>
</linearGradient>
<linearGradient id="paint8_linear_678_60" x1="74" y1="88.0083" x2="74" y2="107.143" gradientUnits="userSpaceOnUse">
<stop stop-color="#5EC5FF"/>
<stop offset="1" stop-color="#00A3FF"/>
</linearGradient>
<radialGradient id="paint9_radial_678_60" cx="0" cy="0" r="1" gradientUnits="userSpaceOnUse" gradientTransform="translate(101.59 29.6744) rotate(126.311) scale(35.2878 35.3049)">
<stop stop-color="#CFDDF9"/>
<stop offset="1" stop-color="#465897"/>
</radialGradient>
<linearGradient id="paint10_linear_678_60" x1="24" y1="7.99524" x2="91.247" y2="53.0708" gradientUnits="userSpaceOnUse">
<stop stop-color="white" stop-opacity="0.9"/>
<stop offset="1" stop-color="white" stop-opacity="0.4"/>
</linearGradient>
<linearGradient id="paint11_linear_678_60" x1="24" y1="7.99524" x2="80.4769" y2="50.4109" gradientUnits="userSpaceOnUse">
<stop stop-color="white" stop-opacity="0.9"/>
<stop offset="1" stop-color="white" stop-opacity="0.2"/>
</linearGradient>
<linearGradient id="paint12_linear_678_60" x1="26.8803" y1="20.5536" x2="122.637" y2="84.1988" gradientUnits="userSpaceOnUse">
<stop stop-color="white" stop-opacity="0.9"/>
<stop offset="1" stop-color="white" stop-opacity="0.4"/>
</linearGradient>
<linearGradient id="paint13_linear_678_60" x1="26.8803" y1="20.5536" x2="107.369" y2="80.4943" gradientUnits="userSpaceOnUse">
<stop stop-color="white" stop-opacity="0.9"/>
<stop offset="1" stop-color="white" stop-opacity="0.2"/>
</linearGradient>
</defs>
</svg>
