<svg width="132" height="132" viewBox="0 0 132 132" fill="none" xmlns="http://www.w3.org/2000/svg">
<g filter="url(#filter0_d_678_103)">
<path d="M64 81.9956C74.9347 81.9956 95.5 81.9956 95.5 81.9956M68 103.996H99.5M85 92.9956H116.5" stroke="url(#paint0_linear_678_103)" stroke-width="8" stroke-linecap="round"/>
<path d="M61.4894 90.3782H58.7184L59.9606 89.1445C60.2906 88.8168 60.2906 88.2856 59.9607 87.9581C59.6309 87.6305 59.0961 87.6304 58.7663 87.958L56.3295 90.3782H52.2338L54.0561 88.4328C54.3738 88.0937 54.3545 87.5629 54.013 87.2471C53.873 87.1178 53.7005 87.0456 53.5237 87.0278C53.4165 87.0225 51.103 87.0275 51.103 87.0275L53.8107 84.338H57.21C57.6766 84.338 58.0546 83.9625 58.0546 83.499C58.0546 83.0356 57.6766 82.6601 57.21 82.6601H55.4998L57.492 80.6814C57.8218 80.3536 57.8218 79.8225 57.492 79.4948C57.162 79.1673 56.6086 79.1673 56.2787 79.4948L54.2445 81.4968V79.7518C54.2445 79.2884 53.8665 78.9129 53.3999 78.9129C52.9333 78.9129 52.5553 79.2884 52.5553 79.7518V83.1748L49.7583 85.9716L49.7115 83.4386C49.7114 83.4346 49.7155 83.4308 49.7154 83.4268C49.7114 83.2228 49.6361 83.0195 49.4823 82.8609C49.1587 82.5273 48.6063 82.5175 48.2704 82.8392L46.4741 84.5423V80.6027L48.8919 78.2197C49.2218 77.892 49.2311 77.3609 48.9013 77.0333C48.5713 76.7058 48.0226 76.7058 47.6927 77.0333L46.4741 78.2297V75.5013C46.4741 75.0379 46.0961 74.6624 45.6295 74.6624C45.1629 74.6624 44.7849 75.0379 44.7849 75.5013V78.2298L43.599 77.0334C43.2691 76.7059 42.7438 76.7059 42.4139 77.0334C42.084 77.3611 42.07 77.8922 42.3998 78.2198L44.7849 80.6028V84.5649L42.9632 82.8339C42.6244 82.5155 42.0995 82.5299 41.7785 82.8663C41.6574 82.9933 41.589 83.1481 41.563 83.3087C41.547 83.3739 41.5401 83.4415 41.5403 83.5112L41.5304 85.8858L38.7038 83.0957V79.7518C38.7038 79.2884 38.3257 78.9129 37.8592 78.9129C37.3926 78.9129 37.0146 79.2884 37.0146 79.7518V81.4178L35.0972 79.4948C34.7672 79.1673 34.242 79.1673 33.912 79.4948C33.5822 79.8225 33.5869 80.3536 33.9168 80.6814L35.9136 82.6601H34.124C33.6574 82.6601 33.2794 83.0356 33.2794 83.499C33.2794 83.9625 33.6574 84.338 34.124 84.338H37.6029L40.3894 87.1058L37.7928 87.1987C37.34 87.215 36.9455 87.5829 36.9411 88.0285C36.9407 88.041 36.9018 88.0536 36.9018 88.0662C36.9018 88.0665 36.9018 88.0669 36.9018 88.0674C36.9018 88.0683 36.9407 88.0693 36.9407 88.0701C36.9458 88.2798 37.0482 88.488 37.2104 88.647L38.9943 90.3782H35.084L32.6473 87.9579C32.3173 87.6304 31.7826 87.6304 31.4527 87.9579C31.1229 88.2856 31.1229 88.8167 31.4527 89.1443L32.6949 90.3781H29.8446C29.378 90.3781 29 90.7536 29 91.2171C29 91.6805 29.378 92.056 29.8446 92.056H32.6622L31.4527 93.2573C31.1229 93.5851 31.1229 94.1162 31.4527 94.4438C31.6177 94.6075 31.834 94.6894 32.0501 94.6894C32.2662 94.6894 32.4824 94.6075 32.6474 94.4438L35.0512 92.0561H38.9958L37.2781 93.8899C36.9604 94.229 36.9797 94.7598 37.3212 95.0756C37.4838 95.2259 37.6903 95.3003 37.8962 95.3003C37.9001 95.3003 37.9039 95.2997 37.9078 95.2997C37.9103 95.2997 37.9128 95.3 37.9151 95.3C37.9172 95.3 37.9193 95.3 37.9213 95.3L40.3994 95.2861L37.5701 98.0964H34.124C33.6574 98.0964 33.2794 98.4719 33.2794 98.9353C33.2794 99.3987 33.6574 99.7742 34.124 99.7742H35.8809L33.9215 101.72C33.5916 102.048 33.5916 102.579 33.9215 102.907C34.0865 103.071 34.3027 103.153 34.5188 103.153C34.7349 103.153 34.9323 103.071 35.0973 102.907L37.0146 100.984V102.682C37.0146 103.146 37.3926 103.521 37.8592 103.521C38.3257 103.521 38.7038 103.146 38.7038 102.682V99.3061L41.5693 96.4786L41.6793 99.2068C41.696 99.6593 42.0754 100.024 42.5275 100.015C42.6811 100.012 42.8478 99.9629 43.0131 99.8423C43.1328 99.755 44.785 98.0737 44.785 98.0737V102.032L42.4233 104.396C42.0934 104.724 42.1028 105.255 42.4326 105.582C42.5976 105.746 42.8183 105.828 43.0345 105.828C43.2506 105.828 43.4504 105.746 43.6153 105.583L44.785 104.405V107.157C44.785 107.62 45.163 107.996 45.6296 107.996C46.0962 107.996 46.4742 107.62 46.4742 107.157V104.326L47.7585 105.583C47.9234 105.746 48.149 105.828 48.3651 105.828C48.5812 105.828 48.8022 105.746 48.9671 105.583C49.2969 105.255 49.2805 104.724 48.9506 104.396L46.4742 101.953V97.9593C46.4742 97.9593 48.0203 99.4018 48.2643 99.6345C48.5084 99.8672 48.7083 99.998 48.9991 99.998C49.0008 99.998 49.0025 99.998 49.0043 99.998C49.4708 99.998 49.8467 99.5949 49.8439 99.1316L49.8094 96.481L52.5554 99.2272V102.682C52.5554 103.146 52.9335 103.521 53.4 103.521C53.8666 103.521 54.2446 103.146 54.2446 102.682V100.905L56.2789 102.907C56.4439 103.071 56.6693 103.153 56.8856 103.153C57.1017 103.153 57.3225 103.071 57.4875 102.907C57.8173 102.579 57.8197 102.048 57.4898 101.72L55.5326 99.7742H57.21C57.6766 99.7742 58.0546 99.3987 58.0546 98.9353C58.0546 98.4719 57.6766 98.0964 57.21 98.0964H53.8435L50.9446 95.2169L53.5413 95.124C53.5506 95.1236 53.5596 95.1222 53.5687 95.1216C53.5721 95.1214 53.5755 95.1211 53.5788 95.1207C54.0267 95.0851 54.3713 94.7059 54.355 94.2554C54.3452 93.9843 54.2063 93.7486 53.9997 93.6025L52.4394 92.0561H56.3624L58.7661 94.4438C58.9311 94.6077 59.1472 94.6895 59.3634 94.6895C59.5795 94.6895 59.7957 94.6077 59.9606 94.4439C60.2906 94.1163 60.2906 93.5851 59.9607 93.2575L58.7512 92.0562H61.4894C61.9559 92.0562 62.334 91.6807 62.334 91.2173C62.334 90.7539 61.9559 90.3782 61.4894 90.3782ZM51.4999 88.6985L49.9264 90.3782H47.7296L49.4191 88.7002L51.4999 88.6985ZM48.0555 85.3764L48.0956 87.6138L46.4741 89.215V86.8726L48.0555 85.3764ZM43.2191 85.3855L44.7849 86.8758V89.1358L43.2167 87.569L43.2191 85.3855ZM39.7955 88.806L42.021 88.7263L43.6841 90.3782H41.3981L39.7955 88.806ZM39.8387 93.6195L41.3032 92.0561H43.6513L42.0926 93.6043L39.8387 93.6195ZM43.2866 97.2126L43.1905 94.8589L44.7849 93.2659V95.6825L43.2866 97.2126ZM48.1241 97.1751L46.4741 95.6675V93.1866L48.1005 94.7928L48.1241 97.1751ZM51.5219 93.5174L49.3131 93.5964L47.7624 92.0561H50.0476L51.5219 93.5174Z" fill="url(#paint1_linear_678_103)"/>
<path fill-rule="evenodd" clip-rule="evenodd" d="M124 37.9814C121.657 39.022 119.062 39.6004 116.331 39.6004C105.9 39.6004 97.4429 31.1574 97.4429 20.7424C97.4429 16.0196 99.1818 11.7022 102.055 8.39382C100.552 8.13207 99.0046 7.99561 97.4257 7.99561C82.6404 7.99561 70.6545 19.962 70.6545 34.7234C70.6545 49.4847 82.6404 61.4512 97.4257 61.4512C111.106 61.4512 122.39 51.2061 124 37.9814Z" fill="url(#paint2_radial_678_103)"/>
<path d="M36.7 25.3438L37.6073 25.156L37.8455 24.2607C40.1077 15.7594 47.8678 9.49561 57.0902 9.49561C67.5177 9.49561 76.0723 17.5025 76.9306 27.6931L77.0314 28.8901L78.2215 29.0533C84.1303 29.8636 88.6804 34.9289 88.6804 41.0512C88.6804 47.7385 83.2532 53.1623 76.555 53.1623H58.0635H39.5719C31.7987 53.1623 25.5 46.8679 25.5 39.1067C25.5 32.3293 30.3043 26.6677 36.7 25.3438Z" fill="url(#paint3_linear_678_103)" stroke="url(#paint4_linear_678_103)" stroke-width="3"/>
<path d="M44.7464 44.7071L45.6537 44.5177L45.8902 43.6214C49.1689 31.1958 60.4093 22.054 73.7543 22.054C88.8415 22.054 101.238 33.7395 102.482 48.6383L102.582 49.8348L103.771 49.9993C112.437 51.1978 119.128 58.6936 119.128 67.7762C119.128 77.6971 111.148 85.7206 101.327 85.7206H75.133H48.9387C37.595 85.7206 28.3803 76.4535 28.3803 64.9984C28.3803 54.9956 35.4099 46.6561 44.7464 44.7071Z" fill="url(#paint5_linear_678_103)" stroke="url(#paint6_linear_678_103)" stroke-width="3"/>
</g>
<defs>
<filter id="filter0_d_678_103" x="0" y="-0.00439453" width="132" height="132" filterUnits="userSpaceOnUse" color-interpolation-filters="sRGB">
<feFlood flood-opacity="0" result="BackgroundImageFix"/>
<feColorMatrix in="SourceAlpha" type="matrix" values="0 0 0 0 0 0 0 0 0 0 0 0 0 0 0 0 0 0 127 0" result="hardAlpha"/>
<feOffset dx="-8" dy="8"/>
<feGaussianBlur stdDeviation="8"/>
<feComposite in2="hardAlpha" operator="out"/>
<feColorMatrix type="matrix" values="0 0 0 0 0.164271 0 0 0 0 0.31478 0 0 0 0 0.475 0 0 0 0.1 0"/>
<feBlend mode="normal" in2="BackgroundImageFix" result="effect1_dropShadow_678_103"/>
<feBlend mode="normal" in="SourceGraphic" in2="effect1_dropShadow_678_103" result="shape"/>
</filter>
<linearGradient id="paint0_linear_678_103" x1="122.929" y1="92.9956" x2="46.8571" y2="92.9956" gradientUnits="userSpaceOnUse">
<stop stop-color="#0066FF"/>
<stop offset="1" stop-color="#00C2FF"/>
</linearGradient>
<linearGradient id="paint1_linear_678_103" x1="45.667" y1="74.6624" x2="45.667" y2="107.996" gradientUnits="userSpaceOnUse">
<stop stop-color="#5EC5FF"/>
<stop offset="1" stop-color="#00A3FF"/>
</linearGradient>
<radialGradient id="paint2_radial_678_103" cx="0" cy="0" r="1" gradientUnits="userSpaceOnUse" gradientTransform="translate(101.59 29.6748) rotate(126.311) scale(35.2878 35.3049)">
<stop stop-color="#CFDDF9"/>
<stop offset="1" stop-color="#465897"/>
</radialGradient>
<linearGradient id="paint3_linear_678_103" x1="24" y1="7.99561" x2="91.247" y2="53.0711" gradientUnits="userSpaceOnUse">
<stop stop-color="white" stop-opacity="0.9"/>
<stop offset="1" stop-color="white" stop-opacity="0.4"/>
</linearGradient>
<linearGradient id="paint4_linear_678_103" x1="24" y1="7.99561" x2="80.4769" y2="50.4113" gradientUnits="userSpaceOnUse">
<stop stop-color="white" stop-opacity="0.9"/>
<stop offset="1" stop-color="white" stop-opacity="0.2"/>
</linearGradient>
<linearGradient id="paint5_linear_678_103" x1="26.8803" y1="20.554" x2="122.637" y2="84.1992" gradientUnits="userSpaceOnUse">
<stop stop-color="white" stop-opacity="0.9"/>
<stop offset="1" stop-color="white" stop-opacity="0.4"/>
</linearGradient>
<linearGradient id="paint6_linear_678_103" x1="26.8803" y1="20.554" x2="107.369" y2="80.4946" gradientUnits="userSpaceOnUse">
<stop stop-color="white" stop-opacity="0.9"/>
<stop offset="1" stop-color="white" stop-opacity="0.2"/>
</linearGradient>
</defs>
</svg>
