<svg width="132" height="132" viewBox="0 0 132 132" fill="none" xmlns="http://www.w3.org/2000/svg">
<g filter="url(#filter0_d_678_120)">
<path d="M78 81.9957C88.9347 81.9957 99 81.9957 99 81.9957M82 103.996H103M99 92.9957H120" stroke="url(#paint0_linear_678_120)" stroke-width="8" stroke-linecap="round"/>
<path d="M51.2905 87.8636H48.9629L50.0064 86.8272C50.2836 86.552 50.2836 86.1058 50.0065 85.8307C49.7294 85.5555 49.2802 85.5554 49.0032 85.8306L46.9563 87.8636H43.516L45.0467 86.2294C45.3136 85.9446 45.2974 85.4987 45.0105 85.2335C44.8929 85.1249 44.748 85.0642 44.5995 85.0492C44.5094 85.0448 42.5662 85.049 42.5662 85.049L44.8406 82.7898H47.6959C48.0879 82.7898 48.4054 82.4744 48.4054 82.0852C48.4054 81.6959 48.0879 81.3805 47.6959 81.3805H46.2594L47.9328 79.7184C48.2099 79.4431 48.2099 78.9969 47.9328 78.7216C47.6556 78.4465 47.1908 78.4465 46.9136 78.7216L45.205 80.4033V78.9376C45.205 78.5483 44.8874 78.2329 44.4955 78.2329C44.1036 78.2329 43.7861 78.5483 43.7861 78.9376V81.8128L41.4366 84.1621L41.3974 82.0344C41.3973 82.031 41.4007 82.0278 41.4006 82.0245C41.3973 81.8531 41.334 81.6824 41.2048 81.5491C40.933 81.2689 40.469 81.2607 40.1868 81.5309L38.678 82.9615V79.6523L40.7089 77.6506C40.986 77.3753 40.9938 76.9292 40.7168 76.654C40.4396 76.3789 39.9786 76.3789 39.7016 76.654L38.678 77.659V75.3672C38.678 74.9779 38.3604 74.6625 37.9685 74.6625C37.5766 74.6625 37.259 74.9779 37.259 75.3672V77.6591L36.263 76.6541C35.9858 76.379 35.5446 76.379 35.2674 76.6541C34.9904 76.9294 34.9786 77.3755 35.2556 77.6507L37.259 79.6524V82.9805L35.7289 81.5265C35.4442 81.259 35.0033 81.2711 34.7337 81.5536C34.6321 81.6604 34.5745 81.7904 34.5527 81.9252C34.5393 81.98 34.5335 82.0369 34.5337 82.0954L34.5254 84.09L32.151 81.7463V78.9376C32.151 78.5483 31.8335 78.2329 31.4416 78.2329C31.0497 78.2329 30.7321 78.5483 30.7321 78.9376V80.337L29.1215 78.7216C28.8444 78.4465 28.4032 78.4465 28.126 78.7216C27.849 78.9969 27.8529 79.4431 28.13 79.7184L29.8074 81.3805H28.3041C27.9121 81.3805 27.5946 81.6959 27.5946 82.0852C27.5946 82.4744 27.9121 82.7898 28.3041 82.7898H31.2263L33.5669 85.1147L31.3859 85.1928C31.0055 85.2065 30.6741 85.5156 30.6704 85.8898C30.6701 85.9003 30.6374 85.9109 30.6374 85.9215C30.6374 85.9217 30.6374 85.9221 30.6374 85.9225C30.6374 85.9232 30.6701 85.9241 30.6701 85.9247C30.6743 86.1009 30.7604 86.2758 30.8966 86.4094L32.3951 87.8636H29.1105L27.0636 85.8305C26.7865 85.5554 26.3373 85.5554 26.0603 85.8305C25.7832 86.1058 25.7832 86.5519 26.0603 86.8271L27.1036 87.8635H24.7095C24.3176 87.8635 24 88.1789 24 88.5682C24 88.9574 24.3176 89.2728 24.7095 89.2728H27.0762L26.0603 90.2819C25.7832 90.5572 25.7832 91.0034 26.0603 91.2786C26.1989 91.4161 26.3805 91.4849 26.562 91.4849C26.7435 91.4849 26.9251 91.4161 27.0637 91.2786L29.0829 89.2729H32.3963L30.9535 90.8133C30.6866 91.0982 30.7028 91.544 30.9897 91.8092C31.1263 91.9355 31.2997 91.998 31.4727 91.998C31.4759 91.998 31.4791 91.9975 31.4824 91.9975C31.4845 91.9975 31.4866 91.9978 31.4886 91.9978C31.4903 91.9978 31.4921 91.9978 31.4938 91.9978L33.5753 91.9861L31.1987 94.3467H28.3041C27.9121 94.3467 27.5946 94.6621 27.5946 95.0513C27.5946 95.4406 27.9121 95.756 28.3041 95.756H29.7798L28.134 97.3908C27.8569 97.6661 27.8569 98.1122 28.134 98.3874C28.2726 98.525 28.4542 98.5937 28.6357 98.5937C28.8172 98.5937 28.9831 98.525 29.1216 98.3874L30.7321 96.7722V98.1989C30.7321 98.5882 31.0497 98.9036 31.4416 98.9036C31.8335 98.9036 32.151 98.5882 32.151 98.1989V95.3628L34.558 92.9877L34.6504 95.2794C34.6644 95.6595 34.9831 95.9658 35.3629 95.9582C35.4919 95.9557 35.6319 95.9145 35.7708 95.8132C35.8713 95.7399 37.2591 94.3276 37.2591 94.3276V97.6523L35.2754 99.6383C34.9982 99.9135 35.0062 100.36 35.2831 100.635C35.4217 100.773 35.6071 100.841 35.7888 100.841C35.9703 100.841 36.1381 100.773 36.2766 100.635L37.2591 99.6454V101.957C37.2591 102.347 37.5767 102.662 37.9686 102.662C38.3605 102.662 38.6781 102.347 38.6781 101.957V99.5792L39.7568 100.635C39.8954 100.773 40.0849 100.841 40.2664 100.841C40.4479 100.841 40.6335 100.773 40.772 100.635C41.0491 100.36 41.0353 99.9136 40.7582 99.6384L38.6781 97.5859V94.2316C38.6781 94.2316 39.9767 95.4432 40.1817 95.6387C40.3867 95.8341 40.5546 95.944 40.799 95.944C40.8004 95.944 40.8018 95.944 40.8033 95.944C41.1951 95.944 41.5109 95.6054 41.5085 95.2162L41.4796 92.9898L43.7862 95.2966V98.1989C43.7862 98.5882 44.1037 98.9036 44.4956 98.9036C44.8875 98.9036 45.2051 98.5882 45.2051 98.1989V96.7058L46.9138 98.3874C47.0524 98.525 47.2418 98.5937 47.4234 98.5937C47.6049 98.5937 47.7904 98.525 47.929 98.3874C48.2061 98.1121 48.2081 97.666 47.931 97.3908L46.287 95.756H47.6959C48.0879 95.756 48.4054 95.4406 48.4054 95.0513C48.4054 94.6621 48.0879 94.3467 47.6959 94.3467H44.8681L42.4331 91.928L44.6143 91.8499C44.6221 91.8496 44.6297 91.8484 44.6373 91.8479C44.6402 91.8478 44.643 91.8475 44.6458 91.8472C45.022 91.8172 45.3115 91.4987 45.2978 91.1203C45.2896 90.8926 45.1729 90.6946 44.9993 90.5719L43.6887 89.2729H46.9839L49.0031 91.2786C49.1416 91.4162 49.3232 91.485 49.5048 91.485C49.6863 91.485 49.8679 91.4162 50.0064 91.2787C50.2836 91.0035 50.2836 90.5572 50.0065 90.2821L48.9906 89.273H51.2905C51.6824 89.273 52 88.9576 52 88.5683C52 88.1791 51.6824 87.8636 51.2905 87.8636ZM42.8995 86.4526L41.5779 87.8636H39.7326L41.1517 86.454L42.8995 86.4526ZM40.0064 83.6621L40.04 85.5415L38.678 86.8865V84.9189L40.0064 83.6621ZM35.9438 83.6698L37.259 84.9216V86.82L35.9418 85.5038L35.9438 83.6698ZM33.068 86.5429L34.9374 86.476L36.3344 87.8636H34.4142L33.068 86.5429ZM33.1044 90.5862L34.3345 89.2729H36.3069L34.9976 90.5734L33.1044 90.5862ZM36.0006 93.6043L35.9198 91.6272L37.259 90.2892V92.319L36.0006 93.6043ZM40.064 93.5728L38.678 92.3065V90.2226L40.0441 91.5717L40.064 93.5728ZM42.9181 90.5004L41.0627 90.5667L39.7601 89.2729H41.6796L42.9181 90.5004Z" fill="url(#paint1_linear_678_120)"/>
<path d="M76.3666 94.7824H74.2883L75.22 93.8571C75.4675 93.6114 75.4675 93.213 75.2201 92.9673C74.9727 92.7216 74.5716 92.7215 74.3243 92.9673L72.4967 94.7824H69.425L70.7917 93.3234C71.03 93.069 71.0155 92.671 70.7594 92.4341C70.6544 92.3372 70.525 92.283 70.3924 92.2696C70.312 92.2657 68.5769 92.2694 68.5769 92.2694L70.6077 90.2523H73.1571C73.507 90.2523 73.7905 89.9707 73.7905 89.6231C73.7905 89.2756 73.507 88.9939 73.1571 88.9939H71.8745L73.3686 87.5099C73.616 87.2641 73.616 86.8658 73.3686 86.62C73.1211 86.3744 72.7061 86.3744 72.4586 86.62L70.933 88.1215V86.8128C70.933 86.4652 70.6495 86.1836 70.2996 86.1836C69.9497 86.1836 69.6661 86.4652 69.6661 86.8128V89.3799L67.5684 91.4775L67.5334 89.5778C67.5333 89.5748 67.5363 89.5719 67.5362 89.5689C67.5333 89.4159 67.4768 89.2635 67.3614 89.1445C67.1188 88.8944 66.7045 88.887 66.4525 89.1282L65.1053 90.4056V87.4509L66.9187 85.6637C67.166 85.4179 67.1731 85.0196 66.9257 84.7739C66.6782 84.5282 66.2666 84.5282 66.0193 84.7739L65.1053 85.6712V83.6249C65.1053 83.2773 64.8218 82.9957 64.4719 82.9957C64.122 82.9957 63.8384 83.2773 63.8384 83.6249V85.6713L62.9491 84.774C62.7016 84.5283 62.3077 84.5283 62.0602 84.774C61.8128 85.0198 61.8023 85.4181 62.0497 85.6638L63.8384 87.451V90.4225L62.4722 89.1243C62.2181 88.8855 61.8244 88.8963 61.5837 89.1485C61.4929 89.2438 61.4416 89.36 61.422 89.4803C61.4101 89.5292 61.4049 89.58 61.4051 89.6323L61.3976 91.4132L59.2777 89.3206V86.8128C59.2777 86.4652 58.9942 86.1836 58.6443 86.1836C58.2943 86.1836 58.0108 86.4652 58.0108 86.8128V88.0622L56.5728 86.62C56.3253 86.3744 55.9314 86.3744 55.684 86.62C55.4366 86.8658 55.4401 87.2641 55.6875 87.5099L57.1851 88.9939H55.8429C55.493 88.9939 55.2095 89.2756 55.2095 89.6231C55.2095 89.9707 55.493 90.2523 55.8429 90.2523H58.452L60.5419 92.3281L58.5945 92.3978C58.2549 92.4101 57.959 92.686 57.9557 93.0201C57.9554 93.0295 57.9263 93.039 57.9263 93.0484C57.9263 93.0486 57.9263 93.049 57.9263 93.0493C57.9263 93.05 57.9554 93.0507 57.9554 93.0513C57.9592 93.2086 58.0361 93.3647 58.1577 93.484L59.4956 94.7824H56.5629L54.7354 92.9672C54.4879 92.7215 54.0869 92.7215 53.8395 92.9672C53.5921 93.213 53.5921 93.6113 53.8395 93.857L54.7711 94.7823H52.6334C52.2835 94.7823 52 95.064 52 95.4115C52 95.7591 52.2835 96.0407 52.6334 96.0407H54.7466L53.8395 96.9417C53.5921 97.1875 53.5921 97.5858 53.8395 97.8315C53.9633 97.9543 54.1254 98.0157 54.2875 98.0157C54.4496 98.0157 54.6117 97.9543 54.7355 97.8315L56.5383 96.0408H59.4967L58.2084 97.4161C57.9702 97.6704 57.9846 98.0685 58.2408 98.3053C58.3628 98.4181 58.5176 98.4739 58.672 98.4739C58.6749 98.4739 58.6778 98.4734 58.6807 98.4734C58.6826 98.4734 58.6845 98.4737 58.6862 98.4737C58.6878 98.4737 58.6894 98.4737 58.6909 98.4737L60.5494 98.4632L58.4274 100.571H55.8429C55.493 100.571 55.2095 100.853 55.2095 101.2C55.2095 101.548 55.493 101.829 55.8429 101.829H57.1606L55.691 103.289C55.4437 103.535 55.4437 103.933 55.691 104.179C55.8148 104.302 55.9769 104.363 56.139 104.363C56.3011 104.363 56.4492 104.302 56.5729 104.179L58.0108 102.737V104.01C58.0108 104.358 58.2943 104.64 58.6443 104.64C58.9942 104.64 59.2777 104.358 59.2777 104.01V101.478L61.4268 99.3576L61.5093 101.404C61.5218 101.743 61.8063 102.017 62.1454 102.01C62.2606 102.008 62.3856 101.971 62.5096 101.88C62.5994 101.815 63.8385 100.554 63.8385 100.554V103.522L62.0673 105.296C61.8198 105.541 61.8269 105.94 62.0742 106.185C62.198 106.308 62.3635 106.37 62.5257 106.37C62.6878 106.37 62.8376 106.308 62.9612 106.185L63.8385 105.302V107.366C63.8385 107.714 64.122 107.995 64.472 107.995C64.8219 107.995 65.1054 107.714 65.1054 107.366V105.243L66.0686 106.185C66.1923 106.308 66.3615 106.37 66.5236 106.37C66.6856 106.37 66.8514 106.308 66.975 106.185C67.2224 105.94 67.2101 105.541 66.9627 105.296L65.1054 103.463V100.468C65.1054 100.468 66.2649 101.55 66.448 101.724C66.631 101.899 66.7809 101.997 66.9991 101.997C67.0003 101.997 67.0016 101.997 67.003 101.997C67.3528 101.997 67.6347 101.695 67.6326 101.347L67.6068 99.3594L69.6662 101.419V104.01C69.6662 104.358 69.9497 104.64 70.2997 104.64C70.6496 104.64 70.9331 104.358 70.9331 104.01V102.677L72.4588 104.179C72.5825 104.302 72.7516 104.363 72.9138 104.363C73.0758 104.363 73.2415 104.302 73.3652 104.179C73.6126 103.933 73.6144 103.535 73.367 103.289L71.8991 101.829H73.1571C73.507 101.829 73.7905 101.548 73.7905 101.2C73.7905 100.853 73.507 100.571 73.1571 100.571H70.6323L68.4581 98.4114L70.4057 98.3417C70.4126 98.3414 70.4193 98.3403 70.4262 98.3399C70.4287 98.3397 70.4312 98.3395 70.4338 98.3392C70.7697 98.3125 71.0281 98.0281 71.0159 97.6902C71.0085 97.4869 70.9044 97.3101 70.7494 97.2006L69.5792 96.0408H72.5214L74.3242 97.8315C74.4479 97.9544 74.61 98.0158 74.7721 98.0158C74.9342 98.0158 75.0964 97.9544 75.22 97.8316C75.4675 97.5859 75.4675 97.1875 75.2201 96.9419L74.313 96.0409H76.3666C76.7165 96.0409 77 95.7592 77 95.4117C77 95.0641 76.7165 94.7824 76.3666 94.7824ZM68.8746 93.5226L67.6945 94.7824H66.047L67.314 93.5239L68.8746 93.5226ZM66.2914 91.0311L66.3215 92.7091L65.1053 93.91V92.1533L66.2914 91.0311ZM62.6641 91.0379L63.8384 92.1556V93.8506L62.6623 92.6755L62.6641 91.0379ZM60.0965 93.6032L61.7655 93.5435L63.0128 94.7824H61.2984L60.0965 93.6032ZM60.1289 97.2133L61.2272 96.0408H62.9883L61.8193 97.2019L60.1289 97.2133ZM62.7148 99.9081L62.6427 98.1428L63.8384 96.9481V98.7605L62.7148 99.9081ZM66.3428 99.88L65.1053 98.7493V96.8887L66.3251 98.0933L66.3428 99.88ZM68.8911 97.1367L67.2345 97.196L66.0715 96.0408H67.7854L68.8911 97.1367Z" fill="url(#paint2_linear_678_120)"/>
<path fill-rule="evenodd" clip-rule="evenodd" d="M124 37.9815C121.657 39.0222 119.062 39.6005 116.331 39.6005C105.9 39.6005 97.4429 31.1575 97.4429 20.7425C97.4429 16.0197 99.1818 11.7024 102.055 8.39394C100.552 8.13219 99.0046 7.99573 97.4257 7.99573C82.6404 7.99573 70.6545 19.9622 70.6545 34.7235C70.6545 49.4848 82.6404 61.4513 97.4257 61.4513C111.106 61.4513 122.39 51.2062 124 37.9815Z" fill="url(#paint3_radial_678_120)"/>
<path d="M36.7 25.3439L37.6073 25.1561L37.8455 24.2608C40.1077 15.7595 47.8678 9.49573 57.0902 9.49573C67.5177 9.49573 76.0723 17.5026 76.9306 27.6932L77.0314 28.8902L78.2215 29.0534C84.1303 29.8637 88.6804 34.929 88.6804 41.0513C88.6804 47.7386 83.2532 53.1624 76.555 53.1624H58.0635H39.5719C31.7987 53.1624 25.5 46.868 25.5 39.1068C25.5 32.3295 30.3043 26.6678 36.7 25.3439Z" fill="url(#paint4_linear_678_120)" stroke="url(#paint5_linear_678_120)" stroke-width="3"/>
<path d="M44.7464 44.7072L45.6537 44.5178L45.8902 43.6215C49.1689 31.1959 60.4093 22.0541 73.7543 22.0541C88.8415 22.0541 101.238 33.7396 102.482 48.6384L102.582 49.8349L103.771 49.9994C112.437 51.1979 119.128 58.6938 119.128 67.7763C119.128 77.6972 111.148 85.7207 101.327 85.7207H75.133H48.9387C37.595 85.7207 28.3803 76.4536 28.3803 64.9985C28.3803 54.9958 35.4099 46.6562 44.7464 44.7072Z" fill="url(#paint6_linear_678_120)" stroke="url(#paint7_linear_678_120)" stroke-width="3"/>
</g>
<defs>
<filter id="filter0_d_678_120" x="0" y="-0.00427246" width="132" height="132" filterUnits="userSpaceOnUse" color-interpolation-filters="sRGB">
<feFlood flood-opacity="0" result="BackgroundImageFix"/>
<feColorMatrix in="SourceAlpha" type="matrix" values="0 0 0 0 0 0 0 0 0 0 0 0 0 0 0 0 0 0 127 0" result="hardAlpha"/>
<feOffset dx="-8" dy="8"/>
<feGaussianBlur stdDeviation="8"/>
<feComposite in2="hardAlpha" operator="out"/>
<feColorMatrix type="matrix" values="0 0 0 0 0.164271 0 0 0 0 0.31478 0 0 0 0 0.475 0 0 0 0.1 0"/>
<feBlend mode="normal" in2="BackgroundImageFix" result="effect1_dropShadow_678_120"/>
<feBlend mode="normal" in="SourceGraphic" in2="effect1_dropShadow_678_120" result="shape"/>
</filter>
<linearGradient id="paint0_linear_678_120" x1="125.143" y1="92.9957" x2="64.2857" y2="92.9957" gradientUnits="userSpaceOnUse">
<stop stop-color="#0066FF"/>
<stop offset="1" stop-color="#00C2FF"/>
</linearGradient>
<linearGradient id="paint1_linear_678_120" x1="38" y1="74.6625" x2="38" y2="102.662" gradientUnits="userSpaceOnUse">
<stop stop-color="#5EC5FF"/>
<stop offset="1" stop-color="#00A3FF"/>
</linearGradient>
<linearGradient id="paint2_linear_678_120" x1="64.5" y1="82.9957" x2="64.5" y2="107.995" gradientUnits="userSpaceOnUse">
<stop stop-color="#5EC5FF"/>
<stop offset="1" stop-color="#00A3FF"/>
</linearGradient>
<radialGradient id="paint3_radial_678_120" cx="0" cy="0" r="1" gradientUnits="userSpaceOnUse" gradientTransform="translate(101.59 29.6749) rotate(126.311) scale(35.2878 35.3049)">
<stop stop-color="#CFDDF9"/>
<stop offset="1" stop-color="#465897"/>
</radialGradient>
<linearGradient id="paint4_linear_678_120" x1="24" y1="7.99573" x2="91.247" y2="53.0713" gradientUnits="userSpaceOnUse">
<stop stop-color="white" stop-opacity="0.9"/>
<stop offset="1" stop-color="white" stop-opacity="0.4"/>
</linearGradient>
<linearGradient id="paint5_linear_678_120" x1="24" y1="7.99573" x2="80.4769" y2="50.4114" gradientUnits="userSpaceOnUse">
<stop stop-color="white" stop-opacity="0.9"/>
<stop offset="1" stop-color="white" stop-opacity="0.2"/>
</linearGradient>
<linearGradient id="paint6_linear_678_120" x1="26.8803" y1="20.5541" x2="122.637" y2="84.1993" gradientUnits="userSpaceOnUse">
<stop stop-color="white" stop-opacity="0.9"/>
<stop offset="1" stop-color="white" stop-opacity="0.4"/>
</linearGradient>
<linearGradient id="paint7_linear_678_120" x1="26.8803" y1="20.5541" x2="107.369" y2="80.4948" gradientUnits="userSpaceOnUse">
<stop stop-color="white" stop-opacity="0.9"/>
<stop offset="1" stop-color="white" stop-opacity="0.2"/>
</linearGradient>
</defs>
</svg>
