<svg width="132" height="132" viewBox="0 0 132 132" fill="none" xmlns="http://www.w3.org/2000/svg">
<g filter="url(#filter0_d_680_156)">
<path d="M88.4894 90.3777H85.7184L86.9606 89.144C87.2906 88.8163 87.2906 88.2851 86.9607 87.9576C86.6309 87.63 86.0961 87.6299 85.7663 87.9575L83.3295 90.3777H79.2338L81.0561 88.4323C81.3738 88.0932 81.3545 87.5624 81.013 87.2467C80.873 87.1173 80.7005 87.0451 80.5237 87.0273C80.4165 87.022 78.103 87.027 78.103 87.027L80.8107 84.3375H84.21C84.6766 84.3375 85.0546 83.962 85.0546 83.4986C85.0546 83.0351 84.6766 82.6596 84.21 82.6596H82.4998L84.492 80.6809C84.8218 80.3531 84.8218 79.822 84.492 79.4943C84.162 79.1668 83.6086 79.1668 83.2787 79.4943L81.2445 81.4963V79.7514C81.2445 79.2879 80.8665 78.9124 80.3999 78.9124C79.9333 78.9124 79.5553 79.2879 79.5553 79.7514V83.1743L76.7583 85.9711L76.7115 83.4382C76.7114 83.4341 76.7155 83.4303 76.7154 83.4263C76.7114 83.2223 76.6361 83.019 76.4823 82.8604C76.1587 82.5269 75.6063 82.517 75.2704 82.8387L73.4741 84.5418V80.6022L75.8919 78.2192C76.2218 77.8915 76.2311 77.3604 75.9013 77.0328C75.5713 76.7053 75.0226 76.7053 74.6927 77.0328L73.4741 78.2292V75.5008C73.4741 75.0374 73.0961 74.6619 72.6295 74.6619C72.1629 74.6619 71.7849 75.0374 71.7849 75.5008V78.2293L70.599 77.0329C70.2691 76.7054 69.7438 76.7054 69.4139 77.0329C69.084 77.3606 69.07 77.8917 69.3998 78.2194L71.7849 80.6024V84.5644L69.9632 82.8335C69.6244 82.515 69.0995 82.5294 68.7785 82.8658C68.6574 82.9928 68.589 83.1477 68.563 83.3082C68.547 83.3734 68.5401 83.4411 68.5403 83.5107L68.5304 85.8854L65.7038 83.0952V79.7514C65.7038 79.2879 65.3257 78.9124 64.8592 78.9124C64.3926 78.9124 64.0146 79.2879 64.0146 79.7514V81.4173L62.0972 79.4943C61.7672 79.1668 61.242 79.1668 60.912 79.4943C60.5822 79.822 60.5869 80.3531 60.9168 80.6809L62.9136 82.6596H61.124C60.6574 82.6596 60.2794 83.0351 60.2794 83.4986C60.2794 83.962 60.6574 84.3375 61.124 84.3375H64.6029L67.3894 87.1053L64.7928 87.1982C64.34 87.2145 63.9455 87.5824 63.9411 88.028C63.9407 88.0405 63.9018 88.0531 63.9018 88.0657C63.9018 88.066 63.9018 88.0665 63.9018 88.0669C63.9018 88.0678 63.9407 88.0688 63.9407 88.0696C63.9458 88.2793 64.0482 88.4875 64.2104 88.6465L65.9943 90.3777H62.084L59.6473 87.9574C59.3173 87.6299 58.7826 87.6299 58.4527 87.9574C58.1229 88.2851 58.1229 88.8162 58.4527 89.1439L59.6949 90.3776H56.8446C56.378 90.3776 56 90.7531 56 91.2166C56 91.68 56.378 92.0555 56.8446 92.0555H59.6622L58.4527 93.2568C58.1229 93.5846 58.1229 94.1157 58.4527 94.4433C58.6177 94.6071 58.834 94.6889 59.0501 94.6889C59.2662 94.6889 59.4824 94.6071 59.6474 94.4433L62.0512 92.0556H65.9958L64.2781 93.8894C63.9604 94.2285 63.9797 94.7593 64.3212 95.0751C64.4838 95.2254 64.6903 95.2998 64.8962 95.2998C64.9001 95.2998 64.9039 95.2992 64.9078 95.2992C64.9103 95.2992 64.9128 95.2996 64.9151 95.2996C64.9172 95.2996 64.9193 95.2996 64.9213 95.2996L67.3994 95.2856L64.5701 98.0959H61.124C60.6574 98.0959 60.2794 98.4714 60.2794 98.9348C60.2794 99.3982 60.6574 99.7737 61.124 99.7737H62.8809L60.9215 101.72C60.5916 102.048 60.5916 102.579 60.9215 102.906C61.0865 103.07 61.3027 103.152 61.5188 103.152C61.7349 103.152 61.9323 103.07 62.0973 102.906L64.0146 100.983V102.682C64.0146 103.145 64.3926 103.521 64.8592 103.521C65.3257 103.521 65.7038 103.145 65.7038 102.682V99.3056L68.5693 96.4781L68.6793 99.2063C68.696 99.6588 69.0754 100.023 69.5275 100.014C69.6811 100.011 69.8478 99.9624 70.0131 99.8418C70.1328 99.7545 71.785 98.0732 71.785 98.0732V102.031L69.4233 104.396C69.0934 104.723 69.1028 105.254 69.4326 105.582C69.5976 105.746 69.8183 105.828 70.0345 105.828C70.2506 105.828 70.4504 105.746 70.6153 105.582L71.785 104.404V107.156C71.785 107.62 72.163 107.995 72.6296 107.995C73.0962 107.995 73.4742 107.62 73.4742 107.156V104.325L74.7585 105.582C74.9234 105.746 75.149 105.828 75.3651 105.828C75.5812 105.828 75.8022 105.746 75.9671 105.582C76.2969 105.254 76.2805 104.723 75.9506 104.396L73.4742 101.952V97.9588C73.4742 97.9588 75.0203 99.4014 75.2643 99.634C75.5084 99.8667 75.7083 99.9975 75.9991 99.9975C76.0008 99.9975 76.0025 99.9975 76.0043 99.9975C76.4708 99.9975 76.8467 99.5944 76.8439 99.1311L76.8094 96.4805L79.5554 99.2267V102.682C79.5554 103.145 79.9335 103.521 80.4 103.521C80.8666 103.521 81.2446 103.145 81.2446 102.682V100.904L83.2789 102.906C83.4439 103.07 83.6693 103.152 83.8856 103.152C84.1017 103.152 84.3225 103.07 84.4875 102.906C84.8173 102.579 84.8197 102.048 84.4898 101.72L82.5326 99.7737H84.21C84.6766 99.7737 85.0546 99.3982 85.0546 98.9348C85.0546 98.4714 84.6766 98.0959 84.21 98.0959H80.8435L77.9446 95.2164L80.5413 95.1235C80.5506 95.1232 80.5596 95.1217 80.5687 95.1211C80.5721 95.1209 80.5755 95.1206 80.5788 95.1203C81.0267 95.0846 81.3713 94.7054 81.355 94.2549C81.3452 93.9838 81.2063 93.7481 80.9997 93.602L79.4394 92.0556H83.3624L85.7661 94.4433C85.9311 94.6072 86.1472 94.689 86.3634 94.689C86.5795 94.689 86.7957 94.6072 86.9606 94.4434C87.2906 94.1158 87.2906 93.5846 86.9607 93.2571L85.7512 92.0557H88.4894C88.9559 92.0557 89.334 91.6802 89.334 91.2168C89.334 90.7534 88.9559 90.3777 88.4894 90.3777ZM78.4999 88.698L76.9264 90.3777H74.7296L76.4191 88.6997L78.4999 88.698ZM75.0555 85.376L75.0956 87.6133L73.4741 89.2145V86.8722L75.0555 85.376ZM70.2191 85.385L71.7849 86.8753V89.1354L70.2167 87.5685L70.2191 85.385ZM66.7955 88.8055L69.021 88.7258L70.6841 90.3777H68.3981L66.7955 88.8055ZM66.8387 93.619L68.3032 92.0556H70.6513L69.0926 93.6038L66.8387 93.619ZM70.2866 97.2121L70.1905 94.8584L71.7849 93.2654V95.682L70.2866 97.2121ZM75.1241 97.1746L73.4741 95.667V93.1861L75.1005 94.7923L75.1241 97.1746ZM78.5219 93.5169L76.3131 93.5959L74.7624 92.0556H77.0476L78.5219 93.5169Z" fill="url(#paint0_linear_680_156)"/>
<path fill-rule="evenodd" clip-rule="evenodd" d="M119.795 80.8214C121.179 81.7316 121.564 83.5932 120.655 84.9793L110.162 100.983C109.253 102.369 107.395 102.755 106.011 101.845C104.627 100.935 104.241 99.0733 105.15 97.6872L115.643 81.6832C116.552 80.2971 118.411 79.9112 119.795 80.8214ZM104.805 83.824C106.189 84.7342 106.574 86.5957 105.665 87.9819L95.172 103.986C94.2632 105.372 92.4044 105.758 91.0204 104.848C89.6363 103.937 89.2511 102.076 90.1599 100.69C90.1599 100.69 99.7442 86.0719 100.653 84.6857C101.562 83.2996 103.421 82.9138 104.805 83.824Z" fill="#00A4EF"/>
<path fill-rule="evenodd" clip-rule="evenodd" d="M54.4606 80.8214C55.8447 81.7316 56.2299 83.5932 55.3211 84.9793L44.828 100.983C43.9191 102.369 42.0604 102.755 40.6763 101.845C39.2923 100.935 38.907 99.0733 39.8159 97.6872L50.309 81.6832C51.2178 80.2971 53.0766 79.9112 54.4606 80.8214ZM39.4704 83.824C40.8545 84.7342 41.2397 86.5957 40.3309 87.9819L29.8378 103.986C28.929 105.372 27.0702 105.758 25.6862 104.848C24.3021 103.937 23.9169 102.076 24.8257 100.69C24.8257 100.69 34.41 86.0719 35.3188 84.6857C36.2276 83.2996 38.0864 82.9138 39.4704 83.824Z" fill="#00A4EF"/>
<path d="M124 34.7219C124 49.4828 112.034 61.4488 97.2727 61.4488C82.5116 61.4488 70.5453 49.4828 70.5453 34.7219C70.5453 19.9611 82.5116 7.99512 97.2727 7.99512C112.034 7.99512 124 19.9611 124 34.7219Z" fill="url(#paint1_radial_680_156)"/>
<path d="M36.7005 25.3433L37.6077 25.1555L37.846 24.2602C40.1083 15.759 47.8687 9.49512 57.0915 9.49512C67.5195 9.49512 76.0745 17.5021 76.9328 27.6926L77.0336 28.8896L78.2237 29.0528C84.1328 29.8631 88.6831 34.9284 88.6831 41.0507C88.6831 47.7379 83.2557 53.1618 76.5572 53.1618H58.0648H39.5725C31.7989 53.1618 25.5 46.8674 25.5 39.1062C25.5 32.3289 30.3045 26.6672 36.7005 25.3433Z" fill="url(#paint2_linear_680_156)" stroke="url(#paint3_linear_680_156)" stroke-width="3"/>
<path d="M44.7472 44.7066L45.6545 44.5172L45.891 43.6209C49.1698 31.1954 60.4107 22.0535 73.7563 22.0535C88.8442 22.0535 101.241 33.7391 102.485 48.6378L102.585 49.8343L103.774 49.9988C112.441 51.1973 119.132 58.6932 119.132 67.7757C119.132 77.6966 111.152 85.7201 101.33 85.7201H75.135H48.9397C37.5955 85.7201 28.3804 76.4529 28.3804 64.9979C28.3804 54.9952 35.4103 46.6556 44.7472 44.7066Z" fill="url(#paint4_linear_680_156)" stroke="url(#paint5_linear_680_156)" stroke-width="3"/>
</g>
<defs>
<filter id="filter0_d_680_156" x="0" y="-0.00488281" width="132" height="132" filterUnits="userSpaceOnUse" color-interpolation-filters="sRGB">
<feFlood flood-opacity="0" result="BackgroundImageFix"/>
<feColorMatrix in="SourceAlpha" type="matrix" values="0 0 0 0 0 0 0 0 0 0 0 0 0 0 0 0 0 0 127 0" result="hardAlpha"/>
<feOffset dx="-8" dy="8"/>
<feGaussianBlur stdDeviation="8"/>
<feComposite in2="hardAlpha" operator="out"/>
<feColorMatrix type="matrix" values="0 0 0 0 0.164271 0 0 0 0 0.31478 0 0 0 0 0.475 0 0 0 0.1 0"/>
<feBlend mode="normal" in2="BackgroundImageFix" result="effect1_dropShadow_680_156"/>
<feBlend mode="normal" in="SourceGraphic" in2="effect1_dropShadow_680_156" result="shape"/>
</filter>
<linearGradient id="paint0_linear_680_156" x1="72.667" y1="74.6619" x2="72.667" y2="107.995" gradientUnits="userSpaceOnUse">
<stop stop-color="#5EC5FF"/>
<stop offset="1" stop-color="#00A3FF"/>
</linearGradient>
<radialGradient id="paint1_radial_680_156" cx="0" cy="0" r="1" gradientUnits="userSpaceOnUse" gradientTransform="translate(108.029 21.8148) rotate(127.113) scale(45.5113 45.5115)">
<stop stop-color="#FFD600"/>
<stop offset="1" stop-color="#FF6B00"/>
</radialGradient>
<linearGradient id="paint2_linear_680_156" x1="24" y1="7.99512" x2="91.248" y2="53.0731" gradientUnits="userSpaceOnUse">
<stop stop-color="white" stop-opacity="0.9"/>
<stop offset="1" stop-color="white" stop-opacity="0.4"/>
</linearGradient>
<linearGradient id="paint3_linear_680_156" x1="24" y1="7.99512" x2="80.4775" y2="50.4129" gradientUnits="userSpaceOnUse">
<stop stop-color="white" stop-opacity="0.9"/>
<stop offset="1" stop-color="white" stop-opacity="0.2"/>
</linearGradient>
<linearGradient id="paint4_linear_680_156" x1="26.8804" y1="20.5535" x2="122.638" y2="84.2023" gradientUnits="userSpaceOnUse">
<stop stop-color="white" stop-opacity="0.9"/>
<stop offset="1" stop-color="white" stop-opacity="0.4"/>
</linearGradient>
<linearGradient id="paint5_linear_680_156" x1="26.8804" y1="20.5535" x2="107.37" y2="80.4972" gradientUnits="userSpaceOnUse">
<stop stop-color="white" stop-opacity="0.9"/>
<stop offset="1" stop-color="white" stop-opacity="0.2"/>
</linearGradient>
</defs>
</svg>
