<svg width="132" height="132" viewBox="0 0 132 132" fill="none" xmlns="http://www.w3.org/2000/svg">
<g filter="url(#filter0_d_680_174)">
<path fill-rule="evenodd" clip-rule="evenodd" d="M56.7126 95.4288C58.0966 96.3317 58.4818 98.1782 57.573 99.5532L53.3926 105.801C52.4838 107.176 50.6252 107.559 49.2412 106.656C47.8572 105.753 47.4719 103.907 48.3807 102.532L52.5611 96.2836C53.4699 94.9086 55.3286 94.5259 56.7126 95.4288Z" fill="url(#paint0_linear_680_174)"/>
<path fill-rule="evenodd" clip-rule="evenodd" d="M64.184 80.2215C65.568 81.1243 65.9532 82.9709 65.0444 84.3459L60.864 90.5939C59.9553 91.9689 58.0966 92.3516 56.7126 91.4487C55.3286 90.5458 54.9434 88.6993 55.8522 87.3243L60.0325 81.0763C60.9413 79.7013 62.8 79.3186 64.184 80.2215Z" fill="url(#paint1_linear_680_174)"/>
<path fill-rule="evenodd" clip-rule="evenodd" d="M69.2407 94.8075C70.6247 95.7104 71.01 97.557 70.1012 98.9319L65.9208 105.18C65.012 106.555 63.1533 106.938 61.7693 106.035C60.3853 105.132 60.0001 103.285 60.9089 101.91L65.0893 95.6623C65.9981 94.2874 67.8568 93.9046 69.2407 94.8075Z" fill="url(#paint2_linear_680_174)"/>
<path fill-rule="evenodd" clip-rule="evenodd" d="M76.7122 79.6002C78.0962 80.5031 78.4814 82.3496 77.5726 83.7246L73.3922 89.9726C72.4834 91.3476 70.6247 91.7303 69.2407 90.8274C67.8568 89.9246 67.4715 88.078 68.3803 86.703L72.5607 80.455C73.4695 79.08 75.3282 78.6973 76.7122 79.6002Z" fill="url(#paint3_linear_680_174)"/>
<path fill-rule="evenodd" clip-rule="evenodd" d="M80.6268 96.2836C82.0108 97.1865 82.396 99.0331 81.4872 100.408L77.3068 106.656C76.398 108.031 74.5394 108.414 73.1554 107.511C71.7714 106.608 71.3861 104.761 72.2949 103.386L76.4753 97.1384C77.3841 95.7635 79.2428 95.3807 80.6268 96.2836Z" fill="url(#paint4_linear_680_174)"/>
<path fill-rule="evenodd" clip-rule="evenodd" d="M88.0982 81.0763C89.4822 81.9792 89.8674 83.8257 88.9586 85.2007L84.7782 91.4487C83.8694 92.8237 82.0108 93.2064 80.6268 92.3035C79.2428 91.4007 78.8576 89.5541 79.7663 88.1791L83.9467 81.9311C84.8555 80.5561 86.7142 80.1734 88.0982 81.0763Z" fill="url(#paint5_linear_680_174)"/>
<path fill-rule="evenodd" clip-rule="evenodd" d="M94.7931 94.8075C96.1771 95.7104 96.5624 97.557 95.6536 98.9319L91.4732 105.18C90.5644 106.555 88.7057 106.938 87.3217 106.035C85.9377 105.132 85.5525 103.285 86.4613 101.91L90.6417 95.6623C91.5505 94.2874 93.4092 93.9046 94.7931 94.8075Z" fill="url(#paint6_linear_680_174)"/>
<path fill-rule="evenodd" clip-rule="evenodd" d="M102.265 79.6002C103.649 80.5031 104.034 82.3496 103.125 83.7246L98.9446 89.9726C98.0358 91.3476 96.1771 91.7303 94.7931 90.8274C93.4092 89.9246 93.0239 88.078 93.9327 86.703L98.1131 80.455C99.0219 79.08 100.881 78.6973 102.265 79.6002Z" fill="url(#paint7_linear_680_174)"/>
<path fill-rule="evenodd" clip-rule="evenodd" d="M124 37.9858C121.657 39.0264 119.062 39.6048 116.331 39.6048C105.9 39.6048 97.4429 31.1618 97.4429 20.7468C97.4429 16.024 99.1818 11.7066 102.055 8.39821C100.552 8.13646 99.0046 8 97.4257 8C82.6404 8 70.6545 19.9664 70.6545 34.7278C70.6545 49.4891 82.6404 61.4556 97.4257 61.4556C111.106 61.4556 122.39 51.2105 124 37.9858Z" fill="url(#paint8_radial_680_174)"/>
<path d="M36.7 25.3482L37.6073 25.1604L37.8455 24.2651C40.1077 15.7638 47.8678 9.5 57.0902 9.5C67.5177 9.5 76.0723 17.5069 76.9306 27.6975L77.0314 28.8945L78.2215 29.0577C84.1303 29.868 88.6804 34.9333 88.6804 41.0556C88.6804 47.7429 83.2532 53.1667 76.555 53.1667H58.0635H39.5719C31.7987 53.1667 25.5 46.8723 25.5 39.1111C25.5 32.3337 30.3043 26.6721 36.7 25.3482Z" fill="url(#paint9_linear_680_174)" stroke="url(#paint10_linear_680_174)" stroke-width="3"/>
<path d="M44.7464 44.7115L45.6538 44.5221L45.8903 43.6258C49.169 31.2002 60.4094 22.0584 73.7544 22.0584C88.8416 22.0584 101.238 33.7439 102.482 48.6427L102.582 49.8392L103.771 50.0037C112.437 51.2022 119.128 58.6981 119.128 67.7806C119.128 77.7015 111.148 85.725 101.327 85.725H75.133H48.9387C37.5951 85.725 28.3804 76.4579 28.3804 65.0028C28.3804 55.0001 35.41 46.6605 44.7464 44.7115Z" fill="url(#paint11_linear_680_174)" stroke="url(#paint12_linear_680_174)" stroke-width="3"/>
</g>
<defs>
<filter id="filter0_d_680_174" x="0" y="0" width="132" height="132" filterUnits="userSpaceOnUse" color-interpolation-filters="sRGB">
<feFlood flood-opacity="0" result="BackgroundImageFix"/>
<feColorMatrix in="SourceAlpha" type="matrix" values="0 0 0 0 0 0 0 0 0 0 0 0 0 0 0 0 0 0 127 0" result="hardAlpha"/>
<feOffset dx="-8" dy="8"/>
<feGaussianBlur stdDeviation="8"/>
<feComposite in2="hardAlpha" operator="out"/>
<feColorMatrix type="matrix" values="0 0 0 0 0.164271 0 0 0 0 0.31478 0 0 0 0 0.475 0 0 0 0.1 0"/>
<feBlend mode="normal" in2="BackgroundImageFix" result="effect1_dropShadow_680_174"/>
<feBlend mode="normal" in="SourceGraphic" in2="effect1_dropShadow_680_174" result="shape"/>
</filter>
<linearGradient id="paint0_linear_680_174" x1="75.7529" y1="79.1111" x2="75.7529" y2="108" gradientUnits="userSpaceOnUse">
<stop stop-color="#0066FF"/>
<stop offset="1" stop-color="#00C2FF"/>
</linearGradient>
<linearGradient id="paint1_linear_680_174" x1="75.7529" y1="79.1111" x2="75.7529" y2="108" gradientUnits="userSpaceOnUse">
<stop stop-color="#0066FF"/>
<stop offset="1" stop-color="#00C2FF"/>
</linearGradient>
<linearGradient id="paint2_linear_680_174" x1="75.7529" y1="79.1111" x2="75.7529" y2="108" gradientUnits="userSpaceOnUse">
<stop stop-color="#0066FF"/>
<stop offset="1" stop-color="#00C2FF"/>
</linearGradient>
<linearGradient id="paint3_linear_680_174" x1="75.7529" y1="79.1111" x2="75.7529" y2="108" gradientUnits="userSpaceOnUse">
<stop stop-color="#0066FF"/>
<stop offset="1" stop-color="#00C2FF"/>
</linearGradient>
<linearGradient id="paint4_linear_680_174" x1="75.7529" y1="79.1111" x2="75.7529" y2="108" gradientUnits="userSpaceOnUse">
<stop stop-color="#0066FF"/>
<stop offset="1" stop-color="#00C2FF"/>
</linearGradient>
<linearGradient id="paint5_linear_680_174" x1="75.7529" y1="79.1111" x2="75.7529" y2="108" gradientUnits="userSpaceOnUse">
<stop stop-color="#0066FF"/>
<stop offset="1" stop-color="#00C2FF"/>
</linearGradient>
<linearGradient id="paint6_linear_680_174" x1="75.7529" y1="79.1111" x2="75.7529" y2="108" gradientUnits="userSpaceOnUse">
<stop stop-color="#0066FF"/>
<stop offset="1" stop-color="#00C2FF"/>
</linearGradient>
<linearGradient id="paint7_linear_680_174" x1="75.7529" y1="79.1111" x2="75.7529" y2="108" gradientUnits="userSpaceOnUse">
<stop stop-color="#0066FF"/>
<stop offset="1" stop-color="#00C2FF"/>
</linearGradient>
<radialGradient id="paint8_radial_680_174" cx="0" cy="0" r="1" gradientUnits="userSpaceOnUse" gradientTransform="translate(101.59 29.6792) rotate(126.311) scale(35.2878 35.3049)">
<stop stop-color="#CFDDF9"/>
<stop offset="1" stop-color="#465897"/>
</radialGradient>
<linearGradient id="paint9_linear_680_174" x1="24" y1="8" x2="91.247" y2="53.0755" gradientUnits="userSpaceOnUse">
<stop stop-color="white" stop-opacity="0.9"/>
<stop offset="1" stop-color="white" stop-opacity="0.4"/>
</linearGradient>
<linearGradient id="paint10_linear_680_174" x1="24" y1="8" x2="80.4769" y2="50.4157" gradientUnits="userSpaceOnUse">
<stop stop-color="white" stop-opacity="0.9"/>
<stop offset="1" stop-color="white" stop-opacity="0.2"/>
</linearGradient>
<linearGradient id="paint11_linear_680_174" x1="26.8804" y1="20.5584" x2="122.637" y2="84.2036" gradientUnits="userSpaceOnUse">
<stop stop-color="white" stop-opacity="0.9"/>
<stop offset="1" stop-color="white" stop-opacity="0.4"/>
</linearGradient>
<linearGradient id="paint12_linear_680_174" x1="26.8804" y1="20.5584" x2="107.369" y2="80.4991" gradientUnits="userSpaceOnUse">
<stop stop-color="white" stop-opacity="0.9"/>
<stop offset="1" stop-color="white" stop-opacity="0.2"/>
</linearGradient>
</defs>
</svg>
