<svg width="132" height="132" viewBox="0 0 132 132" fill="none" xmlns="http://www.w3.org/2000/svg">
<g filter="url(#filter0_d_680_194)">
<path fill-rule="evenodd" clip-rule="evenodd" d="M100.844 80.2389C102.228 81.1491 102.614 83.0107 101.705 84.3968L91.2116 100.401C90.3028 101.787 88.4441 102.173 87.06 101.263C85.6759 100.353 85.2907 98.4911 86.1995 97.1049L96.6927 81.1006C97.6015 79.7145 99.4602 79.3286 100.844 80.2389ZM85.8541 83.2415C87.2382 84.1517 87.6234 86.0133 86.7146 87.3994L76.2215 103.404C75.3126 104.79 73.4539 105.176 72.0698 104.265C70.6858 103.355 70.3005 101.494 71.2094 100.108C71.2094 100.108 80.7937 85.4894 81.7025 84.1032C82.6113 82.7171 84.4701 82.3313 85.8541 83.2415ZM112.836 86.2441C114.22 87.1543 114.606 89.0159 113.697 90.402L103.204 106.406C102.295 107.792 100.436 108.178 99.0521 107.268C97.6681 106.358 97.2828 104.496 98.1917 103.11L108.685 87.1059C109.594 85.7197 111.452 85.3339 112.836 86.2441Z" fill="url(#paint0_linear_680_194)"/>
<path fill-rule="evenodd" clip-rule="evenodd" d="M57.4606 80.4777C58.8447 81.3879 59.2299 83.2495 58.3211 84.6357L47.828 100.64C46.9191 102.026 45.0604 102.412 43.6763 101.502C42.2923 100.591 41.907 98.7299 42.8159 97.3437L53.309 81.3395C54.2178 79.9533 56.0766 79.5675 57.4606 80.4777ZM42.4704 83.4803C43.8545 84.3905 44.2397 86.2521 43.3309 87.6383L32.8378 103.643C31.929 105.029 30.0702 105.415 28.6862 104.504C27.3021 103.594 26.9169 101.733 27.8257 100.346C27.8257 100.346 37.41 85.7282 38.3188 84.3421C39.2276 82.9559 41.0864 82.5701 42.4704 83.4803ZM69.4528 86.4829C70.8368 87.3931 71.222 89.2547 70.3132 90.6409L59.8201 106.645C58.9113 108.031 57.0525 108.417 55.6685 107.507C54.2844 106.597 53.8992 104.735 54.808 103.349L65.3011 87.3447C66.21 85.9585 68.0687 85.5727 69.4528 86.4829Z" fill="url(#paint1_linear_680_194)"/>
<path d="M124 34.7273C124 49.4884 112.034 61.4546 97.2727 61.4546C82.5116 61.4546 70.5454 49.4884 70.5454 34.7273C70.5454 19.9662 82.5116 8 97.2727 8C112.034 8 124 19.9662 124 34.7273Z" fill="url(#paint2_radial_680_194)"/>
<path d="M36.7005 25.3485L37.6078 25.1607L37.846 24.2654C40.1083 15.764 47.8688 9.5 57.0915 9.5C67.5195 9.5 76.0745 17.5071 76.9328 27.6979L77.0336 28.8949L78.2237 29.0581C84.1328 29.8684 88.6831 34.9338 88.6831 41.0562C88.6831 47.7436 83.2556 53.1675 76.5572 53.1675H58.0648H39.5725C31.799 53.1675 25.5 46.873 25.5 39.1117C25.5 32.3342 30.3045 26.6724 36.7005 25.3485Z" fill="url(#paint3_linear_680_194)" stroke="url(#paint4_linear_680_194)" stroke-width="3"/>
<path d="M44.7472 44.7121L45.6546 44.5227L45.8911 43.6265C49.1699 31.2007 60.4108 22.0586 73.7564 22.0586C88.8442 22.0586 101.241 33.7444 102.485 48.6434L102.585 49.8399L103.774 50.0044C112.441 51.2029 119.132 58.699 119.132 67.7817C119.132 77.7028 111.152 85.7265 101.33 85.7265H75.1351H48.9397C37.5956 85.7265 28.3805 76.4591 28.3805 65.0039C28.3805 55.0009 35.4104 46.6612 44.7472 44.7121Z" fill="url(#paint5_linear_680_194)" stroke="url(#paint6_linear_680_194)" stroke-width="3"/>
</g>
<defs>
<filter id="filter0_d_680_194" x="0" y="0" width="132" height="132" filterUnits="userSpaceOnUse" color-interpolation-filters="sRGB">
<feFlood flood-opacity="0" result="BackgroundImageFix"/>
<feColorMatrix in="SourceAlpha" type="matrix" values="0 0 0 0 0 0 0 0 0 0 0 0 0 0 0 0 0 0 127 0" result="hardAlpha"/>
<feOffset dx="-8" dy="8"/>
<feGaussianBlur stdDeviation="8"/>
<feComposite in2="hardAlpha" operator="out"/>
<feColorMatrix type="matrix" values="0 0 0 0 0.164271 0 0 0 0 0.31478 0 0 0 0 0.475 0 0 0 0.1 0"/>
<feBlend mode="normal" in2="BackgroundImageFix" result="effect1_dropShadow_680_194"/>
<feBlend mode="normal" in="SourceGraphic" in2="effect1_dropShadow_680_194" result="shape"/>
</filter>
<linearGradient id="paint0_linear_680_194" x1="92.4531" y1="79.7458" x2="92.4531" y2="107.761" gradientUnits="userSpaceOnUse">
<stop stop-color="#0066FF"/>
<stop offset="1" stop-color="#00C2FF"/>
</linearGradient>
<linearGradient id="paint1_linear_680_194" x1="49.0695" y1="79.9846" x2="49.0695" y2="108" gradientUnits="userSpaceOnUse">
<stop stop-color="#0066FF"/>
<stop offset="1" stop-color="#00C2FF"/>
</linearGradient>
<radialGradient id="paint2_radial_680_194" cx="0" cy="0" r="1" gradientUnits="userSpaceOnUse" gradientTransform="translate(108.029 21.82) rotate(127.112) scale(45.5118 45.5118)">
<stop stop-color="#FFD600"/>
<stop offset="1" stop-color="#FF6B00"/>
</radialGradient>
<linearGradient id="paint3_linear_680_194" x1="24" y1="8" x2="91.2488" y2="53.0777" gradientUnits="userSpaceOnUse">
<stop stop-color="white" stop-opacity="0.9"/>
<stop offset="1" stop-color="white" stop-opacity="0.4"/>
</linearGradient>
<linearGradient id="paint4_linear_680_194" x1="24" y1="8" x2="80.4783" y2="50.4176" gradientUnits="userSpaceOnUse">
<stop stop-color="white" stop-opacity="0.9"/>
<stop offset="1" stop-color="white" stop-opacity="0.2"/>
</linearGradient>
<linearGradient id="paint5_linear_680_194" x1="26.8805" y1="20.5586" x2="122.639" y2="84.2069" gradientUnits="userSpaceOnUse">
<stop stop-color="white" stop-opacity="0.9"/>
<stop offset="1" stop-color="white" stop-opacity="0.4"/>
</linearGradient>
<linearGradient id="paint6_linear_680_194" x1="26.8805" y1="20.5586" x2="107.371" y2="80.502" gradientUnits="userSpaceOnUse">
<stop stop-color="white" stop-opacity="0.9"/>
<stop offset="1" stop-color="white" stop-opacity="0.2"/>
</linearGradient>
</defs>
</svg>
