<svg width="132" height="132" viewBox="0 0 132 132" fill="none" xmlns="http://www.w3.org/2000/svg">
<g filter="url(#filter0_d_682_8)">
<path d="M120.489 90.3826H117.718L118.961 89.1489C119.291 88.8212 119.291 88.29 118.961 87.9625C118.631 87.6349 118.096 87.6348 117.766 87.9624L115.329 90.3826H111.234L113.056 88.4372C113.374 88.0981 113.355 87.5673 113.013 87.2515C112.873 87.1222 112.7 87.05 112.524 87.0322C112.416 87.0269 110.103 87.0318 110.103 87.0318L112.811 84.3424H116.21C116.677 84.3424 117.055 83.9669 117.055 83.5034C117.055 83.04 116.677 82.6645 116.21 82.6645H114.5L116.492 80.6858C116.822 80.358 116.822 79.8269 116.492 79.4992C116.162 79.1717 115.609 79.1717 115.279 79.4992L113.245 81.5012V79.7562C113.245 79.2928 112.866 78.9173 112.4 78.9173C111.933 78.9173 111.555 79.2928 111.555 79.7562V83.1792L108.758 85.976L108.712 83.443C108.711 83.439 108.715 83.4352 108.715 83.4312C108.711 83.2271 108.636 83.0239 108.482 82.8653C108.159 82.5317 107.606 82.5219 107.27 82.8436L105.474 84.5467V80.6071L107.892 78.2241C108.222 77.8964 108.231 77.3653 107.901 77.0377C107.571 76.7101 107.023 76.7101 106.693 77.0377L105.474 78.2341V75.5057C105.474 75.0423 105.096 74.6667 104.629 74.6667C104.163 74.6667 103.785 75.0423 103.785 75.5057V78.2342L102.599 77.0378C102.269 76.7103 101.744 76.7103 101.414 77.0378C101.084 77.3655 101.07 77.8966 101.4 78.2242L103.785 80.6072V84.5693L101.963 82.8383C101.624 82.5199 101.099 82.5343 100.779 82.8707C100.657 82.9977 100.589 83.1525 100.563 83.3131C100.547 83.3783 100.54 83.4459 100.54 83.5156L100.53 85.8902L97.7038 83.1001V79.7562C97.7038 79.2928 97.3257 78.9173 96.8592 78.9173C96.3926 78.9173 96.0146 79.2928 96.0146 79.7562V81.4222L94.0972 79.4992C93.7672 79.1717 93.242 79.1717 92.912 79.4992C92.5822 79.8269 92.5869 80.358 92.9168 80.6858L94.9136 82.6645H93.124C92.6574 82.6645 92.2794 83.04 92.2794 83.5034C92.2794 83.9669 92.6574 84.3424 93.124 84.3424H96.6029L99.3894 87.1101L96.7928 87.2031C96.34 87.2194 95.9455 87.5873 95.9411 88.0329C95.9407 88.0454 95.9018 88.058 95.9018 88.0706C95.9018 88.0709 95.9018 88.0713 95.9018 88.0718C95.9018 88.0727 95.9407 88.0737 95.9407 88.0745C95.9458 88.2842 96.0482 88.4924 96.2104 88.6514L97.9943 90.3826H94.084L91.6473 87.9623C91.3173 87.6348 90.7826 87.6348 90.4527 87.9623C90.1229 88.29 90.1229 88.8211 90.4527 89.1487L91.6949 90.3825H88.8446C88.378 90.3825 88 90.758 88 91.2214C88 91.6849 88.378 92.0604 88.8446 92.0604H91.6622L90.4527 93.2617C90.1229 93.5895 90.1229 94.1205 90.4527 94.4482C90.6177 94.6119 90.834 94.6938 91.0501 94.6938C91.2662 94.6938 91.4824 94.6119 91.6474 94.4482L94.0512 92.0605H97.9958L96.2781 93.8943C95.9604 94.2334 95.9797 94.7642 96.3212 95.0799C96.4838 95.2303 96.6903 95.3047 96.8962 95.3047C96.9001 95.3047 96.9039 95.3041 96.9078 95.3041C96.9103 95.3041 96.9128 95.3044 96.9151 95.3044C96.9172 95.3044 96.9193 95.3044 96.9213 95.3044L99.3994 95.2905L96.5701 98.1008H93.124C92.6574 98.1008 92.2794 98.4763 92.2794 98.9397C92.2794 99.4031 92.6574 99.7786 93.124 99.7786H94.8809L92.9215 101.725C92.5916 102.053 92.5916 102.584 92.9215 102.911C93.0865 103.075 93.3027 103.157 93.5188 103.157C93.7349 103.157 93.9323 103.075 94.0973 102.911L96.0146 100.988V102.687C96.0146 103.15 96.3926 103.526 96.8592 103.526C97.3257 103.526 97.7038 103.15 97.7038 102.687V99.3105L100.569 96.483L100.679 99.2112C100.696 99.6637 101.075 100.028 101.528 100.019C101.681 100.016 101.848 99.9673 102.013 99.8467C102.133 99.7594 103.785 98.078 103.785 98.078V102.036L101.423 104.4C101.093 104.728 101.103 105.259 101.433 105.587C101.598 105.751 101.818 105.833 102.035 105.833C102.251 105.833 102.45 105.751 102.615 105.587L103.785 104.409V107.161C103.785 107.625 104.163 108 104.63 108C105.096 108 105.474 107.625 105.474 107.161V104.33L106.758 105.587C106.923 105.751 107.149 105.833 107.365 105.833C107.581 105.833 107.802 105.751 107.967 105.587C108.297 105.259 108.28 104.728 107.951 104.401L105.474 101.957V97.9637C105.474 97.9637 107.02 99.4062 107.264 99.6389C107.508 99.8716 107.708 100.002 107.999 100.002C108.001 100.002 108.003 100.002 108.004 100.002C108.471 100.002 108.847 99.5993 108.844 99.136L108.809 96.4854L111.555 99.2316V102.687C111.555 103.15 111.933 103.526 112.4 103.526C112.867 103.526 113.245 103.15 113.245 102.687V100.909L115.279 102.911C115.444 103.075 115.669 103.157 115.886 103.157C116.102 103.157 116.323 103.075 116.487 102.911C116.817 102.584 116.82 102.052 116.49 101.725L114.533 99.7786H116.21C116.677 99.7786 117.055 99.4031 117.055 98.9397C117.055 98.4763 116.677 98.1008 116.21 98.1008H112.843L109.945 95.2213L112.541 95.1284C112.551 95.128 112.56 95.1266 112.569 95.126C112.572 95.1258 112.575 95.1255 112.579 95.1251C113.027 95.0895 113.371 94.7103 113.355 94.2598C113.345 93.9887 113.206 93.753 113 93.6069L111.439 92.0605H115.362L117.766 94.4482C117.931 94.612 118.147 94.6939 118.363 94.6939C118.58 94.6939 118.796 94.612 118.961 94.4483C119.291 94.1207 119.291 93.5895 118.961 93.2619L117.751 92.0606H120.489C120.956 92.0606 121.334 91.6851 121.334 91.2217C121.334 90.7582 120.956 90.3826 120.489 90.3826ZM110.5 88.7029L108.926 90.3826H106.73L108.419 88.7046L110.5 88.7029ZM107.056 85.3808L107.096 87.6182L105.474 89.2194V86.877L107.056 85.3808ZM102.219 85.3899L103.785 86.8802V89.1402L102.217 87.5733L102.219 85.3899ZM98.7955 88.8104L101.021 88.7307L102.684 90.3826H100.398L98.7955 88.8104ZM98.8387 93.6239L100.303 92.0605H102.651L101.093 93.6087L98.8387 93.6239ZM102.287 97.217L102.19 94.8633L103.785 93.2703V95.6869L102.287 97.217ZM107.124 97.1795L105.474 95.6719V93.191L107.1 94.7972L107.124 97.1795ZM110.522 93.5218L108.313 93.6008L106.762 92.0605H109.048L110.522 93.5218Z" fill="url(#paint0_linear_682_8)"/>
<path fill-rule="evenodd" clip-rule="evenodd" d="M82.7948 83.473C84.1789 84.3832 84.5641 86.2448 83.6553 87.6309L73.1622 103.635C72.2534 105.021 70.3946 105.407 69.0106 104.497C67.6265 103.586 67.2413 101.725 68.1501 100.339L78.6432 84.3348C79.552 82.9487 81.4108 82.5628 82.7948 83.473ZM67.8047 86.4756C69.1887 87.3858 69.574 89.2473 68.6651 90.6335L58.172 106.637C57.2632 108.024 55.4044 108.409 54.0204 107.499C52.6363 106.589 52.2511 104.727 53.1599 103.341C53.1599 103.341 62.7442 88.7235 63.653 87.3374C64.5619 85.9512 66.4206 85.5654 67.8047 86.4756Z" fill="#00A4EF"/>
<path fill-rule="evenodd" clip-rule="evenodd" d="M54.4606 83.473C55.8447 84.3832 56.2299 86.2448 55.3211 87.6309L44.828 103.635C43.9191 105.021 42.0604 105.407 40.6763 104.497C39.2923 103.586 38.907 101.725 39.8159 100.339L50.309 84.3348C51.2178 82.9487 53.0766 82.5628 54.4606 83.473ZM39.4704 86.4756C40.8545 87.3858 41.2397 89.2473 40.3309 90.6335L29.8378 106.637C28.929 108.024 27.0702 108.409 25.6862 107.499C24.3021 106.589 23.9169 104.727 24.8257 103.341C24.8257 103.341 34.41 88.7235 35.3188 87.3374C36.2276 85.9512 38.0864 85.5654 39.4704 86.4756Z" fill="#00A4EF"/>
<path fill-rule="evenodd" clip-rule="evenodd" d="M124 37.9858C121.657 39.0264 119.062 39.6048 116.331 39.6048C105.9 39.6048 97.4429 31.1618 97.4429 20.7468C97.4429 16.024 99.1818 11.7066 102.055 8.39821C100.552 8.13646 99.0046 8 97.4257 8C82.6404 8 70.6545 19.9664 70.6545 34.7278C70.6545 49.4891 82.6404 61.4556 97.4257 61.4556C111.106 61.4556 122.39 51.2105 124 37.9858Z" fill="url(#paint1_radial_682_8)"/>
<path d="M36.7 25.3482L37.6073 25.1604L37.8455 24.2651C40.1077 15.7638 47.8678 9.5 57.0902 9.5C67.5177 9.5 76.0723 17.5069 76.9306 27.6975L77.0314 28.8945L78.2215 29.0577C84.1303 29.868 88.6804 34.9333 88.6804 41.0556C88.6804 47.7429 83.2532 53.1667 76.555 53.1667H58.0635H39.5719C31.7987 53.1667 25.5 46.8723 25.5 39.1111C25.5 32.3337 30.3043 26.6721 36.7 25.3482Z" fill="url(#paint2_linear_682_8)" stroke="url(#paint3_linear_682_8)" stroke-width="3"/>
<path d="M44.7464 44.7115L45.6538 44.5221L45.8903 43.6259C49.169 31.2003 60.4094 22.0584 73.7544 22.0584C88.8416 22.0584 101.238 33.744 102.482 48.6427L102.582 49.8392L103.771 50.0037C112.437 51.2022 119.128 58.6981 119.128 67.7806C119.128 77.7016 111.148 85.7251 101.327 85.7251H75.133H48.9387C37.5951 85.7251 28.3804 76.4579 28.3804 65.0029C28.3804 55.0001 35.41 46.6605 44.7464 44.7115Z" fill="url(#paint4_linear_682_8)" stroke="url(#paint5_linear_682_8)" stroke-width="3"/>
</g>
<defs>
<filter id="filter0_d_682_8" x="0" y="0" width="132" height="132" filterUnits="userSpaceOnUse" color-interpolation-filters="sRGB">
<feFlood flood-opacity="0" result="BackgroundImageFix"/>
<feColorMatrix in="SourceAlpha" type="matrix" values="0 0 0 0 0 0 0 0 0 0 0 0 0 0 0 0 0 0 127 0" result="hardAlpha"/>
<feOffset dx="-8" dy="8"/>
<feGaussianBlur stdDeviation="8"/>
<feComposite in2="hardAlpha" operator="out"/>
<feColorMatrix type="matrix" values="0 0 0 0 0.164271 0 0 0 0 0.31478 0 0 0 0 0.475 0 0 0 0.1 0"/>
<feBlend mode="normal" in2="BackgroundImageFix" result="effect1_dropShadow_682_8"/>
<feBlend mode="normal" in="SourceGraphic" in2="effect1_dropShadow_682_8" result="shape"/>
</filter>
<linearGradient id="paint0_linear_682_8" x1="104.667" y1="74.6667" x2="104.667" y2="108" gradientUnits="userSpaceOnUse">
<stop stop-color="#5EC5FF"/>
<stop offset="1" stop-color="#00A3FF"/>
</linearGradient>
<radialGradient id="paint1_radial_682_8" cx="0" cy="0" r="1" gradientUnits="userSpaceOnUse" gradientTransform="translate(101.59 29.6792) rotate(126.311) scale(35.2878 35.3049)">
<stop stop-color="#CFDDF9"/>
<stop offset="1" stop-color="#465897"/>
</radialGradient>
<linearGradient id="paint2_linear_682_8" x1="24" y1="8" x2="91.247" y2="53.0755" gradientUnits="userSpaceOnUse">
<stop stop-color="white" stop-opacity="0.9"/>
<stop offset="1" stop-color="white" stop-opacity="0.4"/>
</linearGradient>
<linearGradient id="paint3_linear_682_8" x1="24" y1="8" x2="80.4769" y2="50.4157" gradientUnits="userSpaceOnUse">
<stop stop-color="white" stop-opacity="0.9"/>
<stop offset="1" stop-color="white" stop-opacity="0.2"/>
</linearGradient>
<linearGradient id="paint4_linear_682_8" x1="26.8804" y1="20.5584" x2="122.637" y2="84.2037" gradientUnits="userSpaceOnUse">
<stop stop-color="white" stop-opacity="0.9"/>
<stop offset="1" stop-color="white" stop-opacity="0.4"/>
</linearGradient>
<linearGradient id="paint5_linear_682_8" x1="26.8804" y1="20.5584" x2="107.369" y2="80.4991" gradientUnits="userSpaceOnUse">
<stop stop-color="white" stop-opacity="0.9"/>
<stop offset="1" stop-color="white" stop-opacity="0.2"/>
</linearGradient>
</defs>
</svg>
