<svg width="132" height="132" viewBox="0 0 132 132" fill="none" xmlns="http://www.w3.org/2000/svg">
<g filter="url(#filter0_d_682_29)">
<path d="M105.935 90.3828H103.164L104.406 89.149C104.736 88.8214 104.736 88.2902 104.406 87.9627C104.076 87.6351 103.541 87.6349 103.212 87.9626L100.775 90.3828H96.6791L98.5014 88.4374C98.8191 88.0983 98.7999 87.5675 98.4583 87.2517C98.3183 87.1224 98.1458 87.0502 97.969 87.0324C97.8618 87.0271 95.5483 87.032 95.5483 87.032L98.256 84.3425H101.655C102.122 84.3425 102.5 83.967 102.5 83.5036C102.5 83.0402 102.122 82.6647 101.655 82.6647H99.9451L101.937 80.6859C102.267 80.3582 102.267 79.8271 101.937 79.4994C101.607 79.1719 101.054 79.1719 100.724 79.4994L98.6898 81.5014V79.7564C98.6898 79.293 98.3118 78.9175 97.8452 78.9175C97.3787 78.9175 97.0006 79.293 97.0006 79.7564V83.1793L94.2036 85.9762L94.1569 83.4432C94.1567 83.4392 94.1608 83.4354 94.1607 83.4314C94.1567 83.2273 94.0814 83.0241 93.9276 82.8655C93.604 82.5319 93.0517 82.5221 92.7157 82.8438L90.9194 84.5469V80.6073L93.3372 78.2243C93.6671 77.8966 93.6764 77.3655 93.3466 77.0378C93.0166 76.7103 92.4679 76.7103 92.138 77.0378L90.9194 78.2343V75.5059C90.9194 75.0424 90.5414 74.6669 90.0748 74.6669C89.6082 74.6669 89.2302 75.0424 89.2302 75.5059V78.2344L88.0444 77.038C87.7144 76.7104 87.1892 76.7104 86.8592 77.038C86.5293 77.3657 86.5153 77.8968 86.8451 78.2244L89.2302 80.6074V84.5695L87.4085 82.8385C87.0697 82.5201 86.5448 82.5345 86.2238 82.8708C86.1028 82.9979 86.0343 83.1527 86.0083 83.3132C85.9923 83.3785 85.9854 83.4461 85.9856 83.5158L85.9757 85.8904L83.1491 83.1003V79.7564C83.1491 79.293 82.7711 78.9175 82.3045 78.9175C81.8379 78.9175 81.4599 79.293 81.4599 79.7564V81.4224L79.5425 79.4994C79.2125 79.1719 78.6873 79.1719 78.3573 79.4994C78.0275 79.8271 78.0322 80.3582 78.3621 80.6859L80.359 82.6647H78.5693C78.1027 82.6647 77.7247 83.0402 77.7247 83.5036C77.7247 83.967 78.1027 84.3425 78.5693 84.3425H82.0482L84.8347 87.1103L82.2382 87.2033C81.7853 87.2196 81.3908 87.5875 81.3865 88.033C81.386 88.0456 81.3472 88.0582 81.3472 88.0707C81.3472 88.0711 81.3472 88.0715 81.3472 88.072C81.3472 88.0729 81.386 88.0739 81.386 88.0746C81.3911 88.2844 81.4936 88.4925 81.6557 88.6516L83.4396 90.3828H79.5293L77.0926 87.9625C76.7626 87.6349 76.2279 87.6349 75.8981 87.9625C75.5682 88.2902 75.5682 88.8213 75.8981 89.1489L77.1402 90.3827H74.2899C73.8234 90.3827 73.4453 90.7582 73.4453 91.2216C73.4453 91.6851 73.8234 92.0606 74.2899 92.0606H77.1075L75.8981 93.2619C75.5682 93.5896 75.5682 94.1207 75.8981 94.4484C76.063 94.6121 76.2793 94.694 76.4954 94.694C76.7115 94.694 76.9277 94.6121 77.0927 94.4484L79.4966 92.0607H83.4411L81.7234 93.8944C81.4057 94.2336 81.425 94.7644 81.7665 95.0801C81.9291 95.2305 82.1356 95.3049 82.3415 95.3049C82.3454 95.3049 82.3492 95.3043 82.3531 95.3043C82.3556 95.3043 82.3581 95.3046 82.3605 95.3046C82.3625 95.3046 82.3646 95.3046 82.3667 95.3046L84.8447 95.2906L82.0154 98.1009H78.5693C78.1027 98.1009 77.7247 98.4764 77.7247 98.9399C77.7247 99.4033 78.1027 99.7788 78.5693 99.7788H80.3262L78.3668 101.725C78.037 102.053 78.037 102.584 78.3668 102.911C78.5318 103.075 78.748 103.157 78.9641 103.157C79.1802 103.157 79.3776 103.075 79.5426 102.911L81.4599 100.989V102.687C81.4599 103.15 81.8379 103.526 82.3045 103.526C82.7711 103.526 83.1491 103.15 83.1491 102.687V99.3107L86.0146 96.4831L86.1246 99.2113C86.1413 99.6639 86.5207 100.029 86.9728 100.02C87.1264 100.016 87.2931 99.9675 87.4584 99.8469C87.5781 99.7595 89.2303 98.0782 89.2303 98.0782V102.036L86.8687 104.401C86.5387 104.728 86.5482 105.259 86.8779 105.587C87.0429 105.751 87.2636 105.833 87.4798 105.833C87.6959 105.833 87.8957 105.751 88.0606 105.587L89.2303 104.409V107.161C89.2303 107.625 89.6083 108 90.0749 108C90.5415 108 90.9195 107.625 90.9195 107.161V104.33L92.2038 105.587C92.3688 105.751 92.5943 105.833 92.8104 105.833C93.0265 105.833 93.2475 105.751 93.4124 105.587C93.7422 105.259 93.7258 104.728 93.3959 104.401L90.9195 101.957V97.9639C90.9195 97.9639 92.4656 99.4064 92.7096 99.6391C92.9537 99.8717 93.1536 100.003 93.4445 100.003C93.4461 100.003 93.4478 100.003 93.4496 100.003C93.9161 100.003 94.292 99.5995 94.2892 99.1362L94.2547 96.4856L97.0007 99.2318V102.687C97.0007 103.15 97.3788 103.526 97.8453 103.526C98.3119 103.526 98.6899 103.15 98.6899 102.687V100.91L100.724 102.911C100.889 103.075 101.115 103.157 101.331 103.157C101.547 103.157 101.768 103.075 101.933 102.911C102.263 102.584 102.265 102.053 101.935 101.725L99.9779 99.7788H101.655C102.122 99.7788 102.5 99.4033 102.5 98.9399C102.5 98.4764 102.122 98.1009 101.655 98.1009H98.2888L95.3899 95.2215L97.9867 95.1286C97.9959 95.1282 98.0049 95.1268 98.014 95.1262C98.0174 95.126 98.0208 95.1257 98.0242 95.1253C98.472 95.0896 98.8166 94.7104 98.8003 94.26C98.7905 93.9889 98.6517 93.7532 98.445 93.6071L96.8847 92.0607H100.808L103.211 94.4484C103.376 94.6122 103.593 94.6941 103.809 94.6941C104.025 94.6941 104.241 94.6122 104.406 94.4485C104.736 94.1208 104.736 93.5896 104.406 93.2621L103.197 92.0608H105.935C106.401 92.0608 106.779 91.6853 106.779 91.2219C106.779 90.7584 106.401 90.3828 105.935 90.3828ZM95.9452 88.7031L94.3717 90.3828H92.175L93.8644 88.7047L95.9452 88.7031ZM92.5009 85.381L92.5409 87.6184L90.9194 89.2196V86.8772L92.5009 85.381ZM87.6644 85.3901L89.2302 86.8804V89.1404L87.662 87.5735L87.6644 85.3901ZM84.2408 88.8106L86.4663 88.7309L88.1294 90.3828H85.8434L84.2408 88.8106ZM84.284 93.6241L85.7485 92.0607H88.0966L86.5379 93.6089L84.284 93.6241ZM87.732 97.2172L87.6358 94.8635L89.2302 93.2705V95.6871L87.732 97.2172ZM92.5694 97.1797L90.9194 95.6721V93.1912L92.5458 94.7974L92.5694 97.1797ZM95.9673 93.522L93.7584 93.6009L92.2077 92.0607H94.4929L95.9673 93.522Z" fill="url(#paint0_linear_682_29)"/>
<path d="M67.3266 90.6997H65.4792L66.3074 89.8772C66.5274 89.6588 66.5274 89.3047 66.3075 89.0863C66.0876 88.8679 65.731 88.8678 65.5112 89.0862L63.8866 90.6997H61.1562L62.3711 89.4028C62.5829 89.1767 62.57 88.8228 62.3423 88.6123C62.249 88.5261 62.134 88.478 62.0161 88.4661C61.9446 88.4626 60.4023 88.4659 60.4023 88.4659L62.2075 86.6729H64.4737C64.7847 86.6729 65.0367 86.4225 65.0367 86.1136C65.0367 85.8047 64.7847 85.5543 64.4737 85.5543H63.3335L64.6617 84.2352C64.8815 84.0167 64.8815 83.6626 64.6617 83.4441C64.4417 83.2258 64.0727 83.2258 63.8528 83.4441L62.4967 84.7788V83.6155C62.4967 83.3065 62.2446 83.0562 61.9336 83.0562C61.6226 83.0562 61.3705 83.3065 61.3705 83.6155V85.8974L59.5058 87.762L59.4747 86.0733C59.4746 86.0706 59.4773 86.0681 59.4772 86.0654C59.4746 85.9294 59.4244 85.7939 59.3218 85.6882C59.1061 85.4658 58.7379 85.4592 58.5139 85.6737L57.3164 86.8091V84.1827L58.9283 82.5941C59.1482 82.3756 59.1544 82.0215 58.9345 81.8031C58.7145 81.5847 58.3487 81.5847 58.1288 81.8031L57.3164 82.6007V80.7818C57.3164 80.4728 57.0644 80.2225 56.7533 80.2225C56.4423 80.2225 56.1902 80.4728 56.1902 80.7818V82.6008L55.3997 81.8032C55.1797 81.5848 54.8296 81.5848 54.6096 81.8032C54.3897 82.0217 54.3803 82.3757 54.6002 82.5941L56.1902 84.1828V86.8242L54.9758 85.6702C54.7499 85.4579 54.4 85.4675 54.186 85.6917C54.1053 85.7765 54.0596 85.8797 54.0423 85.9867C54.0316 86.0302 54.0271 86.0753 54.0272 86.1217L54.0206 87.7048L52.1362 85.8447V83.6155C52.1362 83.3065 51.8842 83.0562 51.5731 83.0562C51.2621 83.0562 51.01 83.3065 51.01 83.6155V84.7261L49.7318 83.4441C49.5118 83.2258 49.1617 83.2258 48.9417 83.4441C48.7218 83.6626 48.7249 84.0167 48.9448 84.2352L50.2761 85.5543H49.083C48.7719 85.5543 48.5199 85.8047 48.5199 86.1136C48.5199 86.4225 48.7719 86.6729 49.083 86.6729H51.4022L53.2599 88.5181L51.5289 88.58C51.227 88.5909 50.964 88.8362 50.9611 89.1332C50.9608 89.1416 50.9349 89.15 50.9349 89.1583C50.9349 89.1586 50.9349 89.1589 50.9349 89.1592C50.9349 89.1598 50.9608 89.1604 50.9608 89.161C50.9642 89.3008 51.0325 89.4396 51.1406 89.5456L52.3299 90.6997H49.723L48.0985 89.0862C47.8785 88.8678 47.5221 88.8678 47.3022 89.0862C47.0823 89.3047 47.0823 89.6587 47.3022 89.8771L48.1303 90.6997H46.2301C45.919 90.6997 45.667 90.95 45.667 91.2589C45.667 91.5679 45.919 91.8182 46.2301 91.8182H48.1085L47.3022 92.6191C47.0823 92.8376 47.0823 93.1917 47.3022 93.4101C47.4121 93.5193 47.5563 93.5739 47.7004 93.5739C47.8444 93.5739 47.9886 93.5193 48.0986 93.4101L49.7012 91.8183H52.3309L51.1857 93.0408C50.9739 93.2669 50.9868 93.6208 51.2145 93.8313C51.3229 93.9315 51.4605 93.9811 51.5978 93.9811C51.6004 93.9811 51.6029 93.9807 51.6055 93.9807C51.6072 93.9807 51.6088 93.9809 51.6104 93.9809C51.6118 93.9809 51.6132 93.9809 51.6146 93.9809L53.2666 93.9716L51.3804 95.8451H49.083C48.7719 95.8451 48.5199 96.0955 48.5199 96.4044C48.5199 96.7134 48.7719 96.9637 49.083 96.9637H50.2542L48.948 98.2612C48.7281 98.4797 48.7281 98.8337 48.948 99.0522C49.058 99.1613 49.2021 99.2159 49.3462 99.2159C49.4903 99.2159 49.6219 99.1613 49.7319 99.0522L51.01 97.7702V98.9026C51.01 99.2115 51.2621 99.4618 51.5731 99.4618C51.8842 99.4618 52.1362 99.2115 52.1362 98.9026V96.6516L54.0465 94.7666L54.1199 96.5854C54.131 96.8871 54.3839 97.1302 54.6853 97.1242C54.7877 97.1222 54.8989 97.0895 55.0091 97.0091C55.0889 96.9509 56.1903 95.83 56.1903 95.83V98.4687L54.6159 100.045C54.3959 100.263 54.4022 100.617 54.622 100.836C54.732 100.945 54.8792 101 55.0233 101C55.1674 101 55.3006 100.945 55.4105 100.836L56.1903 100.051V101.885C56.1903 102.194 56.4423 102.445 56.7534 102.445C57.0644 102.445 57.3165 102.194 57.3165 101.885V99.998L58.1726 100.836C58.2826 100.945 58.433 101 58.5771 101C58.7211 101 58.8684 100.945 58.9784 100.836C59.1983 100.617 59.1873 100.263 58.9674 100.045L57.3165 98.416V95.7538C57.3165 95.7538 58.3472 96.7155 58.5099 96.8706C58.6726 97.0257 58.8058 97.1129 58.9998 97.1129C59.0009 97.1129 59.002 97.1129 59.0032 97.1129C59.3142 97.1129 59.5648 96.8442 59.5629 96.5353L59.5399 94.7683L61.3706 96.5991V98.9026C61.3706 99.2115 61.6226 99.4618 61.9337 99.4618C62.2447 99.4618 62.4967 99.2115 62.4967 98.9026V97.7176L63.8529 99.0522C63.9629 99.1613 64.1132 99.2159 64.2574 99.2159C64.4014 99.2159 64.5487 99.1613 64.6586 99.0522C64.8785 98.8337 64.8801 98.4796 64.6602 98.2612L63.3554 96.9637H64.4737C64.7847 96.9637 65.0367 96.7134 65.0367 96.4044C65.0367 96.0955 64.7847 95.8451 64.4737 95.8451H62.2293L60.2967 93.9255L62.0279 93.8636C62.034 93.8633 62.0401 93.8624 62.0461 93.862C62.0484 93.8618 62.0506 93.8616 62.0529 93.8614C62.3515 93.8376 62.5812 93.5848 62.5703 93.2845C62.5638 93.1038 62.4712 92.9466 62.3335 92.8492L61.2933 91.8183H63.9086L65.5111 93.4101C65.6211 93.5193 65.7651 93.5739 65.9093 93.5739C66.0533 93.5739 66.1975 93.5193 66.3074 93.4102C66.5274 93.1917 66.5274 92.8376 66.3075 92.6193L65.5012 91.8184H67.3266C67.6376 91.8184 67.8896 91.568 67.8896 91.2591C67.8896 90.9501 67.6376 90.6997 67.3266 90.6997ZM60.6669 89.5799L59.6179 90.6997H58.1534L59.2797 89.581L60.6669 89.5799ZM58.3707 87.3652L58.3974 88.8568L57.3164 89.9243V88.3627L58.3707 87.3652ZM55.1464 87.3712L56.1902 88.3648V89.8715L55.1448 88.8269L55.1464 87.3712ZM52.864 89.6516L54.3476 89.5985L55.4564 90.6997H53.9324L52.864 89.6516ZM52.8928 92.8606L53.8691 91.8183H55.4345L54.3954 92.8504L52.8928 92.8606ZM55.1914 95.256L55.1273 93.6868L56.1902 92.6249V94.2359L55.1914 95.256ZM58.4164 95.231L57.3164 94.2259V92.572L58.4006 93.6428L58.4164 95.231ZM60.6816 92.7925L59.2091 92.8451L58.1753 91.8183H59.6987L60.6816 92.7925Z" fill="url(#paint1_linear_682_29)"/>
<path d="M124 34.7271C124 49.4879 112.034 61.4539 97.2727 61.4539C82.5116 61.4539 70.5454 49.4879 70.5454 34.7271C70.5454 19.9662 82.5116 8.00024 97.2727 8.00024C112.034 8.00024 124 19.9662 124 34.7271Z" fill="url(#paint2_radial_682_29)"/>
<path d="M36.7005 25.3484L37.6077 25.1607L37.846 24.2653C40.1083 15.7641 47.8687 9.50024 57.0915 9.50024C67.5195 9.50024 76.0745 17.5072 76.9328 27.6978L77.0336 28.8948L78.2237 29.058C84.1328 29.8683 88.6831 34.9336 88.6831 41.0558C88.6831 47.743 83.2557 53.1669 76.5572 53.1669H58.0648H39.5725C31.7989 53.1669 25.5 46.8725 25.5 39.1114C25.5 32.334 30.3045 26.6724 36.7005 25.3484Z" fill="url(#paint3_linear_682_29)" stroke="url(#paint4_linear_682_29)" stroke-width="3"/>
<path d="M44.7471 44.7118L45.6545 44.5224L45.891 43.6261C49.1698 31.2006 60.4107 22.0587 73.7563 22.0587C88.8441 22.0587 101.241 33.7443 102.485 48.643L102.585 49.8395L103.774 50.004C112.441 51.2025 119.132 58.6984 119.132 67.7809C119.132 77.7018 111.152 85.7253 101.33 85.7253H75.135H48.9396C37.5955 85.7253 28.3804 76.4581 28.3804 65.0031C28.3804 55.0004 35.4102 46.6608 44.7471 44.7118Z" fill="url(#paint5_linear_682_29)" stroke="url(#paint6_linear_682_29)" stroke-width="3"/>
</g>
<defs>
<filter id="filter0_d_682_29" x="0" y="0.000244141" width="132" height="132" filterUnits="userSpaceOnUse" color-interpolation-filters="sRGB">
<feFlood flood-opacity="0" result="BackgroundImageFix"/>
<feColorMatrix in="SourceAlpha" type="matrix" values="0 0 0 0 0 0 0 0 0 0 0 0 0 0 0 0 0 0 127 0" result="hardAlpha"/>
<feOffset dx="-8" dy="8"/>
<feGaussianBlur stdDeviation="8"/>
<feComposite in2="hardAlpha" operator="out"/>
<feColorMatrix type="matrix" values="0 0 0 0 0.164271 0 0 0 0 0.31478 0 0 0 0 0.475 0 0 0 0.1 0"/>
<feBlend mode="normal" in2="BackgroundImageFix" result="effect1_dropShadow_682_29"/>
<feBlend mode="normal" in="SourceGraphic" in2="effect1_dropShadow_682_29" result="shape"/>
</filter>
<linearGradient id="paint0_linear_682_29" x1="90.1123" y1="74.6669" x2="90.1123" y2="108" gradientUnits="userSpaceOnUse">
<stop stop-color="#5EC5FF"/>
<stop offset="1" stop-color="#00A3FF"/>
</linearGradient>
<linearGradient id="paint1_linear_682_29" x1="56.7783" y1="80.2225" x2="56.7783" y2="102.445" gradientUnits="userSpaceOnUse">
<stop stop-color="#5EC5FF"/>
<stop offset="1" stop-color="#00A3FF"/>
</linearGradient>
<radialGradient id="paint2_radial_682_29" cx="0" cy="0" r="1" gradientUnits="userSpaceOnUse" gradientTransform="translate(108.029 21.82) rotate(127.113) scale(45.5113 45.5115)">
<stop stop-color="#FFD600"/>
<stop offset="1" stop-color="#FF6B00"/>
</radialGradient>
<linearGradient id="paint3_linear_682_29" x1="24" y1="8.00024" x2="91.248" y2="53.0783" gradientUnits="userSpaceOnUse">
<stop stop-color="white" stop-opacity="0.9"/>
<stop offset="1" stop-color="white" stop-opacity="0.4"/>
</linearGradient>
<linearGradient id="paint4_linear_682_29" x1="24" y1="8.00024" x2="80.4775" y2="50.4181" gradientUnits="userSpaceOnUse">
<stop stop-color="white" stop-opacity="0.9"/>
<stop offset="1" stop-color="white" stop-opacity="0.2"/>
</linearGradient>
<linearGradient id="paint5_linear_682_29" x1="26.8804" y1="20.5587" x2="122.638" y2="84.2074" gradientUnits="userSpaceOnUse">
<stop stop-color="white" stop-opacity="0.9"/>
<stop offset="1" stop-color="white" stop-opacity="0.4"/>
</linearGradient>
<linearGradient id="paint6_linear_682_29" x1="26.8804" y1="20.5587" x2="107.37" y2="80.5024" gradientUnits="userSpaceOnUse">
<stop stop-color="white" stop-opacity="0.9"/>
<stop offset="1" stop-color="white" stop-opacity="0.2"/>
</linearGradient>
</defs>
</svg>
