<svg width="132" height="132" viewBox="0 0 132 132" fill="none" xmlns="http://www.w3.org/2000/svg">
<g filter="url(#filter0_d_682_21)">
<path d="M105.931 90.3828H103.161L104.403 89.149C104.733 88.8214 104.733 88.2902 104.403 87.9627C104.073 87.6351 103.538 87.6349 103.209 87.9626L100.772 90.3828H96.6762L98.4985 88.4374C98.8161 88.0983 98.7969 87.5675 98.4553 87.2517C98.3154 87.1224 98.1428 87.0502 97.966 87.0324C97.8588 87.0271 95.5455 87.032 95.5455 87.032L98.2531 84.3425H101.652C102.119 84.3425 102.497 83.967 102.497 83.5036C102.497 83.0402 102.119 82.6647 101.652 82.6647H99.9421L101.934 80.6859C102.264 80.3582 102.264 79.8271 101.934 79.4994C101.604 79.1719 101.051 79.1719 100.721 79.4994L98.6869 81.5014V79.7564C98.6869 79.293 98.3088 78.9175 97.8423 78.9175C97.3757 78.9175 96.9977 79.293 96.9977 79.7564V83.1793L94.2008 85.9762L94.1541 83.4432C94.154 83.4392 94.158 83.4354 94.1579 83.4314C94.154 83.2273 94.0786 83.0241 93.9248 82.8655C93.6013 82.5319 93.0489 82.5221 92.713 82.8438L90.9168 84.5469V80.6073L93.3345 78.2243C93.6643 77.8966 93.6737 77.3655 93.3438 77.0378C93.0139 76.7103 92.4651 76.7103 92.1353 77.0378L90.9168 78.2343V75.5059C90.9168 75.0424 90.5387 74.6669 90.0722 74.6669C89.6056 74.6669 89.2276 75.0424 89.2276 75.5059V78.2344L88.0418 77.038C87.7119 76.7104 87.1867 76.7104 86.8567 77.038C86.5269 77.3657 86.5128 77.8968 86.8426 78.2244L89.2276 80.6074V84.5695L87.406 82.8385C87.0672 82.5201 86.5423 82.5345 86.2214 82.8708C86.1003 82.9979 86.0318 83.1527 86.0058 83.3132C85.9898 83.3785 85.983 83.4461 85.9832 83.5158L85.9733 85.8904L83.1468 83.1003V79.7564C83.1468 79.293 82.7687 78.9175 82.3022 78.9175C81.8356 78.9175 81.4576 79.293 81.4576 79.7564V81.4224L79.5403 79.4994C79.2104 79.1719 78.6851 79.1719 78.3552 79.4994C78.0254 79.8271 78.0301 80.3582 78.3599 80.6859L80.3567 82.6647H78.5671C78.1006 82.6647 77.7225 83.0402 77.7225 83.5036C77.7225 83.967 78.1006 84.3425 78.5671 84.3425H82.0459L84.8323 87.1103L82.2359 87.2033C81.7831 87.2196 81.3886 87.5875 81.3842 88.033C81.3837 88.0456 81.3449 88.0582 81.3449 88.0707C81.3449 88.0711 81.3449 88.0715 81.3449 88.072C81.3449 88.0729 81.3837 88.0739 81.3837 88.0746C81.3888 88.2844 81.4913 88.4925 81.6534 88.6516L83.4373 90.3828H79.5271L77.0905 87.9625C76.7605 87.6349 76.2258 87.6349 75.896 87.9625C75.5662 88.2902 75.5662 88.8213 75.896 89.1489L77.1381 90.3827H74.2879C73.8214 90.3827 73.4434 90.7582 73.4434 91.2216C73.4434 91.6851 73.8214 92.0606 74.2879 92.0606H77.1054L75.896 93.2619C75.5662 93.5896 75.5662 94.1207 75.896 94.4484C76.061 94.6121 76.2772 94.694 76.4933 94.694C76.7094 94.694 76.9256 94.6121 77.0906 94.4484L79.4944 92.0607H83.4388L81.7211 93.8944C81.4034 94.2336 81.4227 94.7644 81.7642 95.0801C81.9269 95.2305 82.1333 95.3049 82.3392 95.3049C82.3431 95.3049 82.3469 95.3043 82.3508 95.3043C82.3533 95.3043 82.3558 95.3046 82.3582 95.3046C82.3602 95.3046 82.3623 95.3046 82.3643 95.3046L84.8423 95.2906L82.0131 98.1009H78.5671C78.1006 98.1009 77.7225 98.4764 77.7225 98.9399C77.7225 99.4033 78.1006 99.7788 78.5671 99.7788H80.324L78.3647 101.725C78.0348 102.053 78.0348 102.584 78.3647 102.911C78.5296 103.075 78.7458 103.157 78.9619 103.157C79.178 103.157 79.3754 103.075 79.5404 102.911L81.4576 100.989V102.687C81.4576 103.15 81.8356 103.526 82.3022 103.526C82.7687 103.526 83.1468 103.15 83.1468 102.687V99.3107L86.0121 96.4831L86.1221 99.2113C86.1388 99.6639 86.5182 100.029 86.9703 100.02C87.1239 100.016 87.2906 99.9675 87.4559 99.8469C87.5756 99.7595 89.2277 98.0782 89.2277 98.0782V102.036L86.8662 104.401C86.5362 104.728 86.5457 105.259 86.8754 105.587C87.0404 105.751 87.2611 105.833 87.4773 105.833C87.6934 105.833 87.8932 105.751 88.058 105.587L89.2277 104.409V107.161C89.2277 107.625 89.6057 108 90.0723 108C90.5388 108 90.9169 107.625 90.9169 107.161V104.33L92.2011 105.587C92.3661 105.751 92.5916 105.833 92.8077 105.833C93.0238 105.833 93.2447 105.751 93.4096 105.587C93.7394 105.259 93.723 104.728 93.3932 104.401L90.9169 101.957V97.9639C90.9169 97.9639 92.4629 99.4064 92.7069 99.6391C92.9509 99.8717 93.1508 100.003 93.4417 100.003C93.4434 100.003 93.4451 100.003 93.4469 100.003C93.9133 100.003 94.2892 99.5995 94.2864 99.1362L94.2519 96.4856L96.9978 99.2318V102.687C96.9978 103.15 97.3759 103.526 97.8424 103.526C98.3089 103.526 98.687 103.15 98.687 102.687V100.91L100.721 102.911C100.886 103.075 101.112 103.157 101.328 103.157C101.544 103.157 101.765 103.075 101.93 102.911C102.26 102.584 102.262 102.053 101.932 101.725L99.9749 99.7788H101.652C102.119 99.7788 102.497 99.4033 102.497 98.9399C102.497 98.4764 102.119 98.1009 101.652 98.1009H98.2859L95.387 95.2215L97.9837 95.1286C97.993 95.1282 98.002 95.1268 98.0111 95.1262C98.0145 95.126 98.0178 95.1257 98.0212 95.1253C98.4691 95.0896 98.8137 94.7104 98.7973 94.26C98.7875 93.9889 98.6487 93.7532 98.442 93.6071L96.8818 92.0607H100.805L103.208 94.4484C103.373 94.6122 103.589 94.6941 103.806 94.6941C104.022 94.6941 104.238 94.6122 104.403 94.4485C104.733 94.1208 104.733 93.5896 104.403 93.2621L103.193 92.0608H105.931C106.398 92.0608 106.776 91.6853 106.776 91.2219C106.776 90.7584 106.398 90.3828 105.931 90.3828ZM95.9423 88.7031L94.3689 90.3828H92.1722L93.8616 88.7047L95.9423 88.7031ZM92.4981 85.381L92.5382 87.6184L90.9168 89.2196V86.8772L92.4981 85.381ZM87.6619 85.3901L89.2276 86.8804V89.1404L87.6595 87.5735L87.6619 85.3901ZM84.2384 88.8106L86.4638 88.7309L88.1268 90.3828H85.841L84.2384 88.8106ZM84.2816 93.6241L85.746 92.0607H88.0941L86.5354 93.6089L84.2816 93.6241ZM87.7294 97.2172L87.6333 94.8635L89.2276 93.2705V95.6871L87.7294 97.2172ZM92.5667 97.1797L90.9168 95.6721V93.1912L92.5431 94.7974L92.5667 97.1797ZM95.9644 93.522L93.7557 93.6009L92.205 92.0607H94.4901L95.9644 93.522Z" fill="url(#paint0_linear_682_21)"/>
<path d="M67.325 90.6997H65.4777L66.3058 89.8772C66.5258 89.6588 66.5258 89.3047 66.3059 89.0863C66.086 88.8679 65.7295 88.8678 65.5097 89.0862L63.8852 90.6997H61.1548L62.3697 89.4028C62.5814 89.1767 62.5686 88.8228 62.3409 88.6123C62.2476 88.5261 62.1326 88.478 62.0147 88.4661C61.9432 88.4626 60.401 88.4659 60.401 88.4659L62.2061 86.6729H64.4722C64.7832 86.6729 65.0352 86.4225 65.0352 86.1136C65.0352 85.8047 64.7832 85.5543 64.4722 85.5543H63.3321L64.6602 84.2352C64.88 84.0167 64.88 83.6626 64.6602 83.4441C64.4402 83.2258 64.0713 83.2258 63.8513 83.4441L62.4953 84.7788V83.6155C62.4953 83.3065 62.2432 83.0562 61.9322 83.0562C61.6212 83.0562 61.3692 83.3065 61.3692 83.6155V85.8974L59.5046 87.762L59.4734 86.0733C59.4733 86.0706 59.476 86.0681 59.476 86.0654C59.4733 85.9294 59.4231 85.7939 59.3206 85.6882C59.1049 85.4658 58.7366 85.4592 58.5127 85.6737L57.3152 86.8091V84.1827L58.927 82.5941C59.1469 82.3756 59.1531 82.0215 58.9332 81.8031C58.7133 81.5847 58.3475 81.5847 58.1276 81.8031L57.3152 82.6007V80.7818C57.3152 80.4728 57.0632 80.2225 56.7521 80.2225C56.4411 80.2225 56.1891 80.4728 56.1891 80.7818V82.6008L55.3986 81.8032C55.1786 81.5848 54.8285 81.5848 54.6085 81.8032C54.3886 82.0217 54.3792 82.3757 54.5991 82.5941L56.1891 84.1828V86.8242L54.9747 85.6702C54.7488 85.4579 54.3989 85.4675 54.1849 85.6917C54.1042 85.7765 54.0586 85.8797 54.0412 85.9867C54.0306 86.0302 54.026 86.0753 54.0261 86.1217L54.0195 87.7048L52.1352 85.8447V83.6155C52.1352 83.3065 51.8832 83.0562 51.5721 83.0562C51.2611 83.0562 51.0091 83.3065 51.0091 83.6155V84.7261L49.7309 83.4441C49.5109 83.2258 49.1608 83.2258 48.9408 83.4441C48.7209 83.6626 48.7241 84.0167 48.944 84.2352L50.2752 85.5543H49.0821C48.7711 85.5543 48.5191 85.8047 48.5191 86.1136C48.5191 86.4225 48.7711 86.6729 49.0821 86.6729H51.4013L53.2589 88.5181L51.5279 88.58C51.2261 88.5909 50.9631 88.8362 50.9601 89.1332C50.9598 89.1416 50.9339 89.15 50.9339 89.1583C50.9339 89.1586 50.9339 89.1589 50.9339 89.1592C50.9339 89.1598 50.9598 89.1604 50.9598 89.161C50.9632 89.3008 51.0315 89.4396 51.1396 89.5456L52.3289 90.6997H49.7221L48.0977 89.0862C47.8777 88.8678 47.5213 88.8678 47.3014 89.0862C47.0815 89.3047 47.0815 89.6587 47.3014 89.8771L48.1294 90.6997H46.2293C45.9183 90.6997 45.6663 90.95 45.6663 91.2589C45.6663 91.5679 45.9183 91.8182 46.2293 91.8182H48.1077L47.3014 92.6191C47.0815 92.8376 47.0815 93.1917 47.3014 93.4101C47.4113 93.5193 47.5555 93.5739 47.6996 93.5739C47.8436 93.5739 47.9878 93.5193 48.0977 93.4101L49.7003 91.8183H52.3299L51.1848 93.0408C50.973 93.2669 50.9858 93.6208 51.2135 93.8313C51.3219 93.9315 51.4595 93.9811 51.5968 93.9811C51.5994 93.9811 51.6019 93.9807 51.6046 93.9807C51.6062 93.9807 51.6079 93.9809 51.6095 93.9809C51.6108 93.9809 51.6122 93.9809 51.6136 93.9809L53.2656 93.9716L51.3794 95.8451H49.0821C48.7711 95.8451 48.5191 96.0955 48.5191 96.4044C48.5191 96.7134 48.7711 96.9637 49.0821 96.9637H50.2533L48.9471 98.2612C48.7272 98.4797 48.7272 98.8337 48.9471 99.0522C49.0571 99.1613 49.2012 99.2159 49.3453 99.2159C49.4894 99.2159 49.621 99.1613 49.731 99.0522L51.0091 97.7702V98.9026C51.0091 99.2115 51.2611 99.4618 51.5721 99.4618C51.8832 99.4618 52.1352 99.2115 52.1352 98.9026V96.6516L54.0454 94.7666L54.1188 96.5854C54.1299 96.8871 54.3828 97.1302 54.6842 97.1242C54.7866 97.1222 54.8977 97.0895 55.008 97.0091C55.0878 96.9509 56.1892 95.83 56.1892 95.83V98.4687L54.6148 100.045C54.3948 100.263 54.4011 100.617 54.621 100.836C54.7309 100.945 54.8781 101 55.0222 101C55.1663 101 55.2995 100.945 55.4094 100.836L56.1892 100.051V101.885C56.1892 102.194 56.4412 102.445 56.7522 102.445C57.0632 102.445 57.3153 102.194 57.3153 101.885V99.998L58.1714 100.836C58.2814 100.945 58.4318 101 58.5758 101C58.7199 101 58.8672 100.945 58.9771 100.836C59.197 100.617 59.186 100.263 58.9661 100.045L57.3153 98.416V95.7538C57.3153 95.7538 58.3459 96.7155 58.5086 96.8706C58.6713 97.0257 58.8046 97.1129 58.9985 97.1129C58.9996 97.1129 59.0007 97.1129 59.0019 97.1129C59.3129 97.1129 59.5635 96.8442 59.5616 96.5353L59.5386 94.7683L61.3692 96.5991V98.9026C61.3692 99.2115 61.6213 99.4618 61.9323 99.4618C62.2433 99.4618 62.4953 99.2115 62.4953 98.9026V97.7176L63.8515 99.0522C63.9614 99.1613 64.1117 99.2159 64.2559 99.2159C64.4 99.2159 64.5472 99.1613 64.6572 99.0522C64.877 98.8337 64.8786 98.4796 64.6587 98.2612L63.354 96.9637H64.4722C64.7832 96.9637 65.0352 96.7134 65.0352 96.4044C65.0352 96.0955 64.7832 95.8451 64.4722 95.8451H62.2279L60.2954 93.9255L62.0265 93.8636C62.0327 93.8633 62.0387 93.8624 62.0447 93.862C62.047 93.8618 62.0492 93.8616 62.0515 93.8614C62.3501 93.8376 62.5798 93.5848 62.5689 93.2845C62.5624 93.1038 62.4698 92.9466 62.3321 92.8492L61.2919 91.8183H63.9071L65.5095 93.4101C65.6195 93.5193 65.7636 93.5739 65.9077 93.5739C66.0518 93.5739 66.1959 93.5193 66.3058 93.4102C66.5258 93.1917 66.5258 92.8376 66.3059 92.6193L65.4996 91.8184H67.325C67.636 91.8184 67.888 91.568 67.888 91.2591C67.888 90.9501 67.636 90.6997 67.325 90.6997ZM60.6656 89.5799L59.6166 90.6997H58.1522L59.2784 89.581L60.6656 89.5799ZM58.3694 87.3652L58.3962 88.8568L57.3152 89.9243V88.3627L58.3694 87.3652ZM55.1453 87.3712L56.1891 88.3648V89.8715L55.1437 88.8269L55.1453 87.3712ZM52.863 89.6516L54.3466 89.5985L55.4552 90.6997H53.9313L52.863 89.6516ZM52.8918 92.8606L53.868 91.8183H55.4334L54.3943 92.8504L52.8918 92.8606ZM55.1903 95.256L55.1262 93.6868L56.1891 92.6249V94.2359L55.1903 95.256ZM58.4152 95.231L57.3152 94.2259V92.572L58.3994 93.6428L58.4152 95.231ZM60.6803 92.7925L59.2078 92.8451L58.174 91.8183H59.6974L60.6803 92.7925Z" fill="url(#paint1_linear_682_21)"/>
<path fill-rule="evenodd" clip-rule="evenodd" d="M124 37.9861C121.657 39.0267 119.062 39.605 116.331 39.605C105.9 39.605 97.4429 31.162 97.4429 20.7471C97.4429 16.0242 99.1818 11.7069 102.055 8.39846C100.552 8.13671 99.0046 8.00024 97.4257 8.00024C82.6404 8.00024 70.6545 19.9667 70.6545 34.728C70.6545 49.4894 82.6404 61.4558 97.4257 61.4558C111.106 61.4558 122.39 51.2107 124 37.9861Z" fill="url(#paint2_radial_682_21)"/>
<path d="M36.7 25.3484L37.6073 25.1606L37.8455 24.2653C40.1077 15.7641 47.8678 9.50024 57.0902 9.50024C67.5177 9.50024 76.0723 17.5072 76.9306 27.6978L77.0314 28.8948L78.2215 29.058C84.1303 29.8682 88.6804 34.9335 88.6804 41.0558C88.6804 47.7431 83.2532 53.1669 76.555 53.1669H58.0635H39.5719C31.7987 53.1669 25.5 46.8725 25.5 39.1114C25.5 32.334 30.3043 26.6723 36.7 25.3484Z" fill="url(#paint3_linear_682_21)" stroke="url(#paint4_linear_682_21)" stroke-width="3"/>
<path d="M44.7464 44.7118L45.6538 44.5224L45.8903 43.6261C49.169 31.2005 60.4094 22.0587 73.7544 22.0587C88.8416 22.0587 101.238 33.7442 102.482 48.643L102.582 49.8395L103.771 50.004C112.437 51.2024 119.128 58.6983 119.128 67.7809C119.128 77.7018 111.148 85.7253 101.327 85.7253H75.133H48.9387C37.5951 85.7253 28.3804 76.4582 28.3804 65.0031C28.3804 55.0003 35.41 46.6608 44.7464 44.7118Z" fill="url(#paint5_linear_682_21)" stroke="url(#paint6_linear_682_21)" stroke-width="3"/>
</g>
<defs>
<filter id="filter0_d_682_21" x="0" y="0.000244141" width="132" height="132" filterUnits="userSpaceOnUse" color-interpolation-filters="sRGB">
<feFlood flood-opacity="0" result="BackgroundImageFix"/>
<feColorMatrix in="SourceAlpha" type="matrix" values="0 0 0 0 0 0 0 0 0 0 0 0 0 0 0 0 0 0 127 0" result="hardAlpha"/>
<feOffset dx="-8" dy="8"/>
<feGaussianBlur stdDeviation="8"/>
<feComposite in2="hardAlpha" operator="out"/>
<feColorMatrix type="matrix" values="0 0 0 0 0.164271 0 0 0 0 0.31478 0 0 0 0 0.475 0 0 0 0.1 0"/>
<feBlend mode="normal" in2="BackgroundImageFix" result="effect1_dropShadow_682_21"/>
<feBlend mode="normal" in="SourceGraphic" in2="effect1_dropShadow_682_21" result="shape"/>
</filter>
<linearGradient id="paint0_linear_682_21" x1="90.1097" y1="74.6669" x2="90.1097" y2="108" gradientUnits="userSpaceOnUse">
<stop stop-color="#5EC5FF"/>
<stop offset="1" stop-color="#00A3FF"/>
</linearGradient>
<linearGradient id="paint1_linear_682_21" x1="56.7771" y1="80.2225" x2="56.7771" y2="102.445" gradientUnits="userSpaceOnUse">
<stop stop-color="#5EC5FF"/>
<stop offset="1" stop-color="#00A3FF"/>
</linearGradient>
<radialGradient id="paint2_radial_682_21" cx="0" cy="0" r="1" gradientUnits="userSpaceOnUse" gradientTransform="translate(101.59 29.6794) rotate(126.311) scale(35.2878 35.3049)">
<stop stop-color="#CFDDF9"/>
<stop offset="1" stop-color="#465897"/>
</radialGradient>
<linearGradient id="paint3_linear_682_21" x1="24" y1="8.00024" x2="91.247" y2="53.0758" gradientUnits="userSpaceOnUse">
<stop stop-color="white" stop-opacity="0.9"/>
<stop offset="1" stop-color="white" stop-opacity="0.4"/>
</linearGradient>
<linearGradient id="paint4_linear_682_21" x1="24" y1="8.00024" x2="80.4769" y2="50.4159" gradientUnits="userSpaceOnUse">
<stop stop-color="white" stop-opacity="0.9"/>
<stop offset="1" stop-color="white" stop-opacity="0.2"/>
</linearGradient>
<linearGradient id="paint5_linear_682_21" x1="26.8804" y1="20.5587" x2="122.637" y2="84.2039" gradientUnits="userSpaceOnUse">
<stop stop-color="white" stop-opacity="0.9"/>
<stop offset="1" stop-color="white" stop-opacity="0.4"/>
</linearGradient>
<linearGradient id="paint6_linear_682_21" x1="26.8804" y1="20.5587" x2="107.369" y2="80.4993" gradientUnits="userSpaceOnUse">
<stop stop-color="white" stop-opacity="0.9"/>
<stop offset="1" stop-color="white" stop-opacity="0.2"/>
</linearGradient>
</defs>
</svg>
