<svg width="132" height="132" viewBox="0 0 132 132" fill="none" xmlns="http://www.w3.org/2000/svg">
<g filter="url(#filter0_d_682_57)">
<path d="M73 98.0002C73 103.523 68.5228 108 63 108C57.4772 108 53 103.523 53 98.0002C53 92.4774 57.4772 88.0002 63 88.0002C68.5228 88.0002 73 92.4774 73 98.0002Z" fill="url(#paint0_linear_682_57)"/>
<path d="M94 88.1702C94 92.3123 90.6421 95.6702 86.5 95.6702C82.3579 95.6702 79 92.3123 79 88.1702C79 84.028 82.3579 80.6702 86.5 80.6702C90.6421 80.6702 94 84.028 94 88.1702Z" fill="url(#paint1_linear_682_57)"/>
<path fill-rule="evenodd" clip-rule="evenodd" d="M124 37.9863C121.657 39.0269 119.062 39.6052 116.331 39.6052C105.9 39.6052 97.4429 31.1623 97.4429 20.7473C97.4429 16.0245 99.1818 11.7071 102.055 8.3987C100.552 8.13695 99.0046 8.00049 97.4257 8.00049C82.6404 8.00049 70.6545 19.9669 70.6545 34.7283C70.6545 49.4896 82.6404 61.456 97.4257 61.456C111.106 61.456 122.39 51.2109 124 37.9863Z" fill="url(#paint2_radial_682_57)"/>
<path d="M36.7 25.3487L37.6073 25.1609L37.8455 24.2656C40.1077 15.7643 47.8678 9.50049 57.0902 9.50049C67.5177 9.50049 76.0723 17.5074 76.9306 27.698L77.0314 28.895L78.2215 29.0582C84.1303 29.8685 88.6804 34.9338 88.6804 41.056C88.6804 47.7433 83.2532 53.1672 76.555 53.1672H58.0635H39.5719C31.7987 53.1672 25.5 46.8728 25.5 39.1116C25.5 32.3342 30.3043 26.6726 36.7 25.3487Z" fill="url(#paint3_linear_682_57)" stroke="url(#paint4_linear_682_57)" stroke-width="3"/>
<path d="M44.7464 44.712L45.6538 44.5225L45.8903 43.6263C49.169 31.2007 60.4094 22.0588 73.7544 22.0588C88.8416 22.0588 101.238 33.7444 102.482 48.6431L102.582 49.8397L103.771 50.0042C112.437 51.2026 119.128 58.6985 119.128 67.7811C119.128 77.702 111.148 85.7255 101.327 85.7255H75.133H48.9387C37.5951 85.7255 28.3804 76.4583 28.3804 65.0033C28.3804 55.0005 35.41 46.661 44.7464 44.712Z" fill="url(#paint5_linear_682_57)" stroke="url(#paint6_linear_682_57)" stroke-width="3"/>
</g>
<defs>
<filter id="filter0_d_682_57" x="0" y="0.000488281" width="132" height="132" filterUnits="userSpaceOnUse" color-interpolation-filters="sRGB">
<feFlood flood-opacity="0" result="BackgroundImageFix"/>
<feColorMatrix in="SourceAlpha" type="matrix" values="0 0 0 0 0 0 0 0 0 0 0 0 0 0 0 0 0 0 127 0" result="hardAlpha"/>
<feOffset dx="-8" dy="8"/>
<feGaussianBlur stdDeviation="8"/>
<feComposite in2="hardAlpha" operator="out"/>
<feColorMatrix type="matrix" values="0 0 0 0 0.164271 0 0 0 0 0.31478 0 0 0 0 0.475 0 0 0 0.1 0"/>
<feBlend mode="normal" in2="BackgroundImageFix" result="effect1_dropShadow_682_57"/>
<feBlend mode="normal" in="SourceGraphic" in2="effect1_dropShadow_682_57" result="shape"/>
</filter>
<linearGradient id="paint0_linear_682_57" x1="63" y1="88.0002" x2="63" y2="108" gradientUnits="userSpaceOnUse">
<stop stop-color="#5EC5FF"/>
<stop offset="1" stop-color="#00A3FF"/>
</linearGradient>
<linearGradient id="paint1_linear_682_57" x1="86.5" y1="80.6702" x2="86.5" y2="95.6702" gradientUnits="userSpaceOnUse">
<stop stop-color="#5EC5FF"/>
<stop offset="1" stop-color="#00A3FF"/>
</linearGradient>
<radialGradient id="paint2_radial_682_57" cx="0" cy="0" r="1" gradientUnits="userSpaceOnUse" gradientTransform="translate(101.59 29.6797) rotate(126.311) scale(35.2878 35.3049)">
<stop stop-color="#CFDDF9"/>
<stop offset="1" stop-color="#465897"/>
</radialGradient>
<linearGradient id="paint3_linear_682_57" x1="24" y1="8.00049" x2="91.247" y2="53.076" gradientUnits="userSpaceOnUse">
<stop stop-color="white" stop-opacity="0.9"/>
<stop offset="1" stop-color="white" stop-opacity="0.4"/>
</linearGradient>
<linearGradient id="paint4_linear_682_57" x1="24" y1="8.00049" x2="80.4769" y2="50.4161" gradientUnits="userSpaceOnUse">
<stop stop-color="white" stop-opacity="0.9"/>
<stop offset="1" stop-color="white" stop-opacity="0.2"/>
</linearGradient>
<linearGradient id="paint5_linear_682_57" x1="26.8804" y1="20.5588" x2="122.637" y2="84.2041" gradientUnits="userSpaceOnUse">
<stop stop-color="white" stop-opacity="0.9"/>
<stop offset="1" stop-color="white" stop-opacity="0.4"/>
</linearGradient>
<linearGradient id="paint6_linear_682_57" x1="26.8804" y1="20.5588" x2="107.369" y2="80.4995" gradientUnits="userSpaceOnUse">
<stop stop-color="white" stop-opacity="0.9"/>
<stop offset="1" stop-color="white" stop-opacity="0.2"/>
</linearGradient>
</defs>
</svg>
