<svg width="132" height="132" viewBox="0 0 132 132" fill="none" xmlns="http://www.w3.org/2000/svg">
<g filter="url(#filter0_d_682_88)">
<path fill-rule="evenodd" clip-rule="evenodd" d="M100.367 80.2378C101.751 81.148 102.136 83.0096 101.228 84.3958L90.7345 100.4C89.8256 101.786 87.9669 102.172 86.5828 101.262C85.1988 100.352 84.8135 98.49 85.7224 97.1039L96.2155 81.0996C97.1243 79.7134 98.9831 79.3276 100.367 80.2378ZM85.3769 83.2404C86.761 84.1507 87.1462 86.0122 86.2374 87.3984L75.7443 103.403C74.8355 104.789 72.9767 105.175 71.5927 104.264C70.2086 103.354 69.8234 101.493 70.7322 100.106C70.7322 100.106 80.3165 85.4884 81.2253 84.1022C82.1341 82.716 83.9929 82.3302 85.3769 83.2404ZM112.359 86.243C113.743 87.1533 114.129 89.0148 113.22 90.401L102.727 106.405C101.818 107.791 99.959 108.177 98.575 107.267C97.1909 106.357 96.8057 104.495 97.7145 103.109L108.208 87.1048C109.116 85.7187 110.975 85.3328 112.359 86.243Z" fill="url(#paint0_linear_682_88)"/>
<path fill-rule="evenodd" clip-rule="evenodd" d="M56.9834 80.4766C58.3675 81.3868 58.7527 83.2484 57.8439 84.6346L47.3508 100.639C46.442 102.025 44.5832 102.411 43.1992 101.501C41.8151 100.59 41.4299 98.7288 42.3387 97.3426L52.8318 81.3384C53.7406 79.9522 55.5994 79.5664 56.9834 80.4766ZM41.9933 83.4792C43.3773 84.3894 43.7626 86.251 42.8537 87.6372L32.3606 103.641C31.4518 105.028 29.593 105.413 28.209 104.503C26.8249 103.593 26.4397 101.731 27.3485 100.345C27.3485 100.345 36.9328 85.7271 37.8416 84.341C38.7505 82.9548 40.6092 82.569 41.9933 83.4792ZM68.9756 86.4818C70.3596 87.392 70.7449 89.2536 69.836 90.6398L59.3429 106.644C58.4341 108.03 56.5753 108.416 55.1913 107.506C53.8072 106.596 53.422 104.734 54.3308 103.348L64.824 87.3436C65.7328 85.9574 67.5915 85.5716 68.9756 86.4818Z" fill="url(#paint1_linear_682_88)"/>
<path d="M124 34.7268C124 49.4876 112.034 61.4536 97.2726 61.4536C82.5115 61.4536 70.5453 49.4876 70.5453 34.7268C70.5453 19.966 82.5115 8 97.2726 8C112.034 8 124 19.966 124 34.7268Z" fill="url(#paint2_radial_682_88)"/>
<path d="M39.5725 54.6667C30.972 54.6667 24 47.7022 24 39.1111C24 31.6072 29.3191 25.3443 36.3965 23.8793C38.8295 14.7366 47.1729 8 57.0915 8C68.3044 8 77.5042 16.6094 78.4275 27.5716C85.0679 28.4822 90.1831 34.1722 90.1831 41.0556C90.1831 48.5728 84.0825 54.6667 76.5572 54.6667H58.0648H39.5725Z" fill="#343434" fill-opacity="0.9"/>
<path d="M36.7005 25.3482L37.6077 25.1604L37.846 24.2651C40.1083 15.7639 47.8687 9.5 57.0915 9.5C67.5195 9.5 76.0745 17.507 76.9328 27.6975L77.0336 28.8945L78.2237 29.0577C84.1328 29.868 88.6831 34.9333 88.6831 41.0556C88.6831 47.7428 83.2557 53.1667 76.5572 53.1667H58.0648H39.5725C31.7989 53.1667 25.5 46.8722 25.5 39.1111C25.5 32.3338 30.3045 26.6721 36.7005 25.3482Z" stroke="#1F1F1F" stroke-opacity="0.8" stroke-width="3"/>
<path d="M51.5558 89.8116C40.5101 89.8116 31.5558 80.8523 31.5558 69.8004C31.5558 60.147 38.3872 52.0902 47.4768 50.2056C50.6015 38.4441 61.3172 29.7778 74.0558 29.7778C88.4566 29.7778 100.272 40.8533 101.458 54.9555C109.986 56.1269 116.556 63.4467 116.556 72.3018C116.556 81.9722 108.721 89.8116 99.0558 89.8116H75.3058H51.5558Z" fill="#343434" fill-opacity="0.9"/>
<path d="M47.7813 51.6744L48.6885 51.4863L48.9265 50.5908C51.8811 39.4696 62.0147 31.2778 74.0558 31.2778C87.6696 31.2778 98.8421 41.7487 99.9632 55.0812L100.064 56.2781L101.254 56.4416C109.049 57.5123 115.056 64.2059 115.056 72.3018C115.056 81.1446 107.892 88.3116 99.0558 88.3116H75.3058H51.5558C41.3393 88.3116 33.0558 80.0247 33.0558 69.8004C33.0558 60.8718 39.3745 53.4174 47.7813 51.6744Z" stroke="#1F1F1F" stroke-opacity="0.8" stroke-width="3"/>
</g>
<defs>
<filter id="filter0_d_682_88" x="0" y="0" width="132" height="131.999" filterUnits="userSpaceOnUse" color-interpolation-filters="sRGB">
<feFlood flood-opacity="0" result="BackgroundImageFix"/>
<feColorMatrix in="SourceAlpha" type="matrix" values="0 0 0 0 0 0 0 0 0 0 0 0 0 0 0 0 0 0 127 0" result="hardAlpha"/>
<feOffset dx="-8" dy="8"/>
<feGaussianBlur stdDeviation="8"/>
<feComposite in2="hardAlpha" operator="out"/>
<feColorMatrix type="matrix" values="0 0 0 0 0.164271 0 0 0 0 0.31478 0 0 0 0 0.475 0 0 0 0.1 0"/>
<feBlend mode="normal" in2="BackgroundImageFix" result="effect1_dropShadow_682_88"/>
<feBlend mode="normal" in="SourceGraphic" in2="effect1_dropShadow_682_88" result="shape"/>
</filter>
<linearGradient id="paint0_linear_682_88" x1="91.976" y1="79.7448" x2="91.976" y2="107.76" gradientUnits="userSpaceOnUse">
<stop stop-color="#0066FF"/>
<stop offset="1" stop-color="#00C2FF"/>
</linearGradient>
<linearGradient id="paint1_linear_682_88" x1="48.5923" y1="79.9835" x2="48.5923" y2="107.999" gradientUnits="userSpaceOnUse">
<stop stop-color="#0066FF"/>
<stop offset="1" stop-color="#00C2FF"/>
</linearGradient>
<radialGradient id="paint2_radial_682_88" cx="0" cy="0" r="1" gradientUnits="userSpaceOnUse" gradientTransform="translate(108.029 21.8197) rotate(127.113) scale(45.5113 45.5115)">
<stop stop-color="#FFD600"/>
<stop offset="1" stop-color="#FF6B00"/>
</radialGradient>
</defs>
</svg>
