<svg width="132" height="132" viewBox="0 0 132 132" fill="none" xmlns="http://www.w3.org/2000/svg">
<g filter="url(#filter0_d_682_35)">
<path d="M118.489 90.3829H115.718L116.961 89.1491C117.291 88.8215 117.291 88.2903 116.961 87.9627C116.631 87.6351 116.096 87.635 115.766 87.9626L113.329 90.3829H109.234L111.056 88.4375C111.374 88.0983 111.355 87.5676 111.013 87.2518C110.873 87.1225 110.7 87.0502 110.524 87.0324C110.416 87.0272 108.103 87.0321 108.103 87.0321L110.811 84.3426H114.21C114.677 84.3426 115.055 83.9671 115.055 83.5037C115.055 83.0403 114.677 82.6648 114.21 82.6648H112.5L114.492 80.686C114.822 80.3583 114.822 79.8272 114.492 79.4994C114.162 79.1719 113.609 79.1719 113.279 79.4994L111.245 81.5014V79.7565C111.245 79.2931 110.866 78.9176 110.4 78.9176C109.933 78.9176 109.555 79.2931 109.555 79.7565V83.1794L106.758 85.9763L106.712 83.4433C106.711 83.4393 106.715 83.4354 106.715 83.4314C106.711 83.2274 106.636 83.0242 106.482 82.8655C106.159 82.532 105.606 82.5221 105.27 82.8438L103.474 84.547V80.6074L105.892 78.2244C106.222 77.8966 106.231 77.3655 105.901 77.0379C105.571 76.7104 105.023 76.7104 104.693 77.0379L103.474 78.2343V75.5059C103.474 75.0425 103.096 74.667 102.629 74.667C102.163 74.667 101.785 75.0425 101.785 75.5059V78.2344L100.599 77.038C100.269 76.7105 99.7438 76.7105 99.4139 77.038C99.084 77.3658 99.07 77.8969 99.3998 78.2245L101.785 80.6075V84.5696L99.9632 82.8386C99.6244 82.5201 99.0995 82.5346 98.7785 82.8709C98.6575 82.998 98.589 83.1528 98.563 83.3133C98.547 83.3785 98.5401 83.4462 98.5403 83.5159L98.5304 85.8905L95.7038 83.1003V79.7565C95.7038 79.2931 95.3257 78.9176 94.8592 78.9176C94.3926 78.9176 94.0146 79.2931 94.0146 79.7565V81.4225L92.0972 79.4994C91.7672 79.1719 91.242 79.1719 90.912 79.4994C90.5822 79.8272 90.5869 80.3583 90.9168 80.686L92.9136 82.6648H91.124C90.6574 82.6648 90.2794 83.0403 90.2794 83.5037C90.2794 83.9671 90.6574 84.3426 91.124 84.3426H94.6029L97.3894 87.1104L94.7928 87.2033C94.34 87.2197 93.9455 87.5876 93.9411 88.0331C93.9407 88.0456 93.9018 88.0583 93.9018 88.0708C93.9018 88.0711 93.9018 88.0716 93.9018 88.072C93.9018 88.0729 93.9407 88.0739 93.9407 88.0747C93.9458 88.2844 94.0482 88.4926 94.2104 88.6517L95.9943 90.3829H92.084L89.6473 87.9625C89.3173 87.635 88.7826 87.635 88.4527 87.9625C88.1229 88.2903 88.1229 88.8214 88.4527 89.149L89.6949 90.3828H86.8446C86.378 90.3828 86 90.7583 86 91.2217C86 91.6851 86.378 92.0606 86.8446 92.0606H89.6622L88.4527 93.262C88.1229 93.5897 88.1229 94.1208 88.4527 94.4484C88.6177 94.6122 88.834 94.6941 89.0501 94.6941C89.2662 94.6941 89.4824 94.6122 89.6474 94.4484L92.0512 92.0607H95.9958L94.2781 93.8945C93.9604 94.2337 93.9797 94.7644 94.3212 95.0802C94.4838 95.2305 94.6903 95.3049 94.8962 95.3049C94.9001 95.3049 94.9039 95.3044 94.9078 95.3044C94.9103 95.3044 94.9128 95.3047 94.9151 95.3047C94.9172 95.3047 94.9193 95.3047 94.9213 95.3047L97.3994 95.2907L94.5701 98.101H91.124C90.6574 98.101 90.2794 98.4765 90.2794 98.9399C90.2794 99.4033 90.6574 99.7788 91.124 99.7788H92.8809L90.9215 101.725C90.5916 102.053 90.5916 102.584 90.9215 102.912C91.0865 103.075 91.3027 103.157 91.5188 103.157C91.7349 103.157 91.9323 103.075 92.0973 102.912L94.0146 100.989V102.687C94.0146 103.151 94.3926 103.526 94.8592 103.526C95.3257 103.526 95.7038 103.151 95.7038 102.687V99.3107L98.5693 96.4832L98.6793 99.2114C98.696 99.664 99.0754 100.029 99.5275 100.02C99.6811 100.017 99.8478 99.9675 100.013 99.847C100.133 99.7596 101.785 98.0783 101.785 98.0783V102.036L99.4233 104.401C99.0934 104.728 99.1028 105.259 99.4326 105.587C99.5976 105.751 99.8183 105.833 100.035 105.833C100.251 105.833 100.45 105.751 100.615 105.587L101.785 104.409V107.161C101.785 107.625 102.163 108 102.63 108C103.096 108 103.474 107.625 103.474 107.161V104.33L104.758 105.587C104.923 105.751 105.149 105.833 105.365 105.833C105.581 105.833 105.802 105.751 105.967 105.587C106.297 105.259 106.28 104.728 105.951 104.401L103.474 101.957V97.964C103.474 97.964 105.02 99.4065 105.264 99.6391C105.508 99.8718 105.708 100.003 105.999 100.003C106.001 100.003 106.003 100.003 106.004 100.003C106.471 100.003 106.847 99.5995 106.844 99.1362L106.809 96.4857L109.555 99.2319V102.687C109.555 103.151 109.933 103.526 110.4 103.526C110.867 103.526 111.245 103.151 111.245 102.687V100.91L113.279 102.912C113.444 103.075 113.669 103.157 113.886 103.157C114.102 103.157 114.323 103.075 114.487 102.912C114.817 102.584 114.82 102.053 114.49 101.725L112.533 99.7788H114.21C114.677 99.7788 115.055 99.4033 115.055 98.9399C115.055 98.4765 114.677 98.101 114.21 98.101H110.843L107.945 95.2216L110.541 95.1286C110.551 95.1283 110.56 95.1268 110.569 95.1263C110.572 95.1261 110.575 95.1257 110.579 95.1254C111.027 95.0897 111.371 94.7105 111.355 94.2601C111.345 93.9889 111.206 93.7532 111 93.6071L109.439 92.0607H113.362L115.766 94.4484C115.931 94.6123 116.147 94.6942 116.363 94.6942C116.58 94.6942 116.796 94.6123 116.961 94.4485C117.291 94.1209 117.291 93.5897 116.961 93.2622L115.751 92.0608H118.489C118.956 92.0608 119.334 91.6853 119.334 91.2219C119.334 90.7585 118.956 90.3829 118.489 90.3829ZM108.5 88.7031L106.926 90.3829H104.73L106.419 88.7048L108.5 88.7031ZM105.056 85.3811L105.096 87.6184L103.474 89.2197V86.8773L105.056 85.3811ZM100.219 85.3901L101.785 86.8804V89.1405L100.217 87.5736L100.219 85.3901ZM96.7955 88.8106L99.021 88.731L100.684 90.3829H98.3981L96.7955 88.8106ZM96.8387 93.6242L98.3032 92.0607H100.651L99.0926 93.6089L96.8387 93.6242ZM100.287 97.2172L100.19 94.8635L101.785 93.2706V95.6871L100.287 97.2172ZM105.124 97.1797L103.474 95.6721V93.1913L105.1 94.7974L105.124 97.1797ZM108.522 93.522L106.313 93.601L104.762 92.0607H107.048L108.522 93.522Z" fill="url(#paint0_linear_682_35)"/>
<path fill-rule="evenodd" clip-rule="evenodd" d="M34.7139 95.429C36.098 96.3319 36.4832 98.1785 35.5744 99.5535L31.3938 105.801C30.485 107.176 28.6262 107.559 27.2422 106.656C25.8581 105.753 25.4729 103.907 26.3817 102.532L30.5623 96.2839C31.4711 94.9089 33.3299 94.5262 34.7139 95.429Z" fill="url(#paint1_linear_682_35)"/>
<path fill-rule="evenodd" clip-rule="evenodd" d="M42.1856 80.2217C43.5697 81.1246 43.9549 82.9711 43.0461 84.3461L38.8655 90.5941C37.9567 91.9691 36.098 92.3518 34.7139 91.4489C33.3299 90.5461 32.9446 88.6995 33.8534 87.3245L38.034 81.0765C38.9428 79.7015 40.8016 79.3188 42.1856 80.2217Z" fill="url(#paint2_linear_682_35)"/>
<path fill-rule="evenodd" clip-rule="evenodd" d="M47.2426 94.8078C48.6266 95.7106 49.0119 97.5572 48.103 98.9322L43.9225 105.18C43.0137 106.555 41.1549 106.938 39.7709 106.035C38.3868 105.132 38.0016 103.286 38.9104 101.911L43.0909 95.6626C43.9998 94.2876 45.8585 93.9049 47.2426 94.8078Z" fill="url(#paint3_linear_682_35)"/>
<path fill-rule="evenodd" clip-rule="evenodd" d="M54.7143 79.6004C56.0983 80.5033 56.4836 82.3499 55.5748 83.7249L51.3942 89.9728C50.4854 91.3478 48.6266 91.7305 47.2426 90.8277C45.8585 89.9248 45.4733 88.0782 46.3821 86.7032L50.5627 80.4553C51.4715 79.0803 53.3302 78.6976 54.7143 79.6004Z" fill="url(#paint4_linear_682_35)"/>
<path fill-rule="evenodd" clip-rule="evenodd" d="M58.6291 96.2839C60.0131 97.1867 60.3984 99.0333 59.4895 100.408L55.309 106.656C54.4001 108.031 52.5414 108.414 51.1573 107.511C49.7733 106.608 49.3881 104.762 50.2969 103.387L54.4774 97.1387C55.3863 95.7637 57.245 95.381 58.6291 96.2839Z" fill="url(#paint5_linear_682_35)"/>
<path fill-rule="evenodd" clip-rule="evenodd" d="M66.1008 81.0765C67.4848 81.9794 67.8701 83.826 66.9612 85.201L62.7807 91.4489C61.8719 92.8239 60.0131 93.2066 58.6291 92.3038C57.245 91.4009 56.8598 89.5543 57.7686 88.1793L61.9492 81.9314C62.858 80.5564 64.7167 80.1737 66.1008 81.0765Z" fill="url(#paint6_linear_682_35)"/>
<path fill-rule="evenodd" clip-rule="evenodd" d="M72.796 94.8078C74.1801 95.7106 74.5653 97.5572 73.6565 98.9322L69.4759 105.18C68.5671 106.555 66.7083 106.938 65.3243 106.035C63.9402 105.132 63.555 103.286 64.4638 101.911L68.6444 95.6626C69.5532 94.2876 71.412 93.9049 72.796 94.8078Z" fill="url(#paint7_linear_682_35)"/>
<path fill-rule="evenodd" clip-rule="evenodd" d="M80.2677 79.6004C81.6518 80.5033 82.037 82.3499 81.1282 83.7249L76.9476 89.9728C76.0388 91.3478 74.1801 91.7305 72.796 90.8277C71.412 89.9248 71.0267 88.0782 71.9355 86.7032L76.1161 80.4553C77.0249 79.0803 78.8837 78.6976 80.2677 79.6004Z" fill="url(#paint8_linear_682_35)"/>
<path d="M124 34.7271C124 49.4879 112.034 61.4539 97.2727 61.4539C82.5116 61.4539 70.5454 49.4879 70.5454 34.7271C70.5454 19.9662 82.5116 8.00024 97.2727 8.00024C112.034 8.00024 124 19.9662 124 34.7271Z" fill="url(#paint9_radial_682_35)"/>
<path d="M36.7005 25.3484L37.6077 25.1607L37.846 24.2653C40.1083 15.7641 47.8687 9.50024 57.0915 9.50024C67.5195 9.50024 76.0745 17.5072 76.9328 27.6978L77.0336 28.8948L78.2237 29.058C84.1328 29.8683 88.6831 34.9336 88.6831 41.0558C88.6831 47.743 83.2557 53.1669 76.5572 53.1669H58.0648H39.5725C31.7989 53.1669 25.5 46.8725 25.5 39.1114C25.5 32.334 30.3045 26.6724 36.7005 25.3484Z" fill="url(#paint10_linear_682_35)" stroke="url(#paint11_linear_682_35)" stroke-width="3"/>
<path d="M44.7471 44.7117L45.6545 44.5223L45.891 43.6261C49.1698 31.2005 60.4107 22.0586 73.7563 22.0586C88.8441 22.0586 101.241 33.7442 102.485 48.6429L102.585 49.8394L103.774 50.0039C112.441 51.2024 119.132 58.6983 119.132 67.7808C119.132 77.7017 111.152 85.7253 101.33 85.7253H75.135H48.9396C37.5955 85.7253 28.3804 76.458 28.3804 65.003C28.3804 55.0003 35.4102 46.6607 44.7471 44.7117Z" fill="url(#paint12_linear_682_35)" stroke="url(#paint13_linear_682_35)" stroke-width="3"/>
</g>
<defs>
<filter id="filter0_d_682_35" x="0" y="0.000244141" width="132" height="132" filterUnits="userSpaceOnUse" color-interpolation-filters="sRGB">
<feFlood flood-opacity="0" result="BackgroundImageFix"/>
<feColorMatrix in="SourceAlpha" type="matrix" values="0 0 0 0 0 0 0 0 0 0 0 0 0 0 0 0 0 0 127 0" result="hardAlpha"/>
<feOffset dx="-8" dy="8"/>
<feGaussianBlur stdDeviation="8"/>
<feComposite in2="hardAlpha" operator="out"/>
<feColorMatrix type="matrix" values="0 0 0 0 0.164271 0 0 0 0 0.31478 0 0 0 0 0.475 0 0 0 0.1 0"/>
<feBlend mode="normal" in2="BackgroundImageFix" result="effect1_dropShadow_682_35"/>
<feBlend mode="normal" in="SourceGraphic" in2="effect1_dropShadow_682_35" result="shape"/>
</filter>
<linearGradient id="paint0_linear_682_35" x1="102.667" y1="74.667" x2="102.667" y2="108" gradientUnits="userSpaceOnUse">
<stop stop-color="#5EC5FF"/>
<stop offset="1" stop-color="#00A3FF"/>
</linearGradient>
<linearGradient id="paint1_linear_682_35" x1="53.755" y1="79.1113" x2="53.755" y2="108" gradientUnits="userSpaceOnUse">
<stop stop-color="#0066FF"/>
<stop offset="1" stop-color="#00C2FF"/>
</linearGradient>
<linearGradient id="paint2_linear_682_35" x1="53.755" y1="79.1113" x2="53.755" y2="108" gradientUnits="userSpaceOnUse">
<stop stop-color="#0066FF"/>
<stop offset="1" stop-color="#00C2FF"/>
</linearGradient>
<linearGradient id="paint3_linear_682_35" x1="53.755" y1="79.1113" x2="53.755" y2="108" gradientUnits="userSpaceOnUse">
<stop stop-color="#0066FF"/>
<stop offset="1" stop-color="#00C2FF"/>
</linearGradient>
<linearGradient id="paint4_linear_682_35" x1="53.755" y1="79.1113" x2="53.755" y2="108" gradientUnits="userSpaceOnUse">
<stop stop-color="#0066FF"/>
<stop offset="1" stop-color="#00C2FF"/>
</linearGradient>
<linearGradient id="paint5_linear_682_35" x1="53.755" y1="79.1113" x2="53.755" y2="108" gradientUnits="userSpaceOnUse">
<stop stop-color="#0066FF"/>
<stop offset="1" stop-color="#00C2FF"/>
</linearGradient>
<linearGradient id="paint6_linear_682_35" x1="53.755" y1="79.1113" x2="53.755" y2="108" gradientUnits="userSpaceOnUse">
<stop stop-color="#0066FF"/>
<stop offset="1" stop-color="#00C2FF"/>
</linearGradient>
<linearGradient id="paint7_linear_682_35" x1="53.755" y1="79.1113" x2="53.755" y2="108" gradientUnits="userSpaceOnUse">
<stop stop-color="#0066FF"/>
<stop offset="1" stop-color="#00C2FF"/>
</linearGradient>
<linearGradient id="paint8_linear_682_35" x1="53.755" y1="79.1113" x2="53.755" y2="108" gradientUnits="userSpaceOnUse">
<stop stop-color="#0066FF"/>
<stop offset="1" stop-color="#00C2FF"/>
</linearGradient>
<radialGradient id="paint9_radial_682_35" cx="0" cy="0" r="1" gradientUnits="userSpaceOnUse" gradientTransform="translate(108.029 21.82) rotate(127.113) scale(45.5113 45.5115)">
<stop stop-color="#FFD600"/>
<stop offset="1" stop-color="#FF6B00"/>
</radialGradient>
<linearGradient id="paint10_linear_682_35" x1="24" y1="8.00024" x2="91.248" y2="53.0783" gradientUnits="userSpaceOnUse">
<stop stop-color="white" stop-opacity="0.9"/>
<stop offset="1" stop-color="white" stop-opacity="0.4"/>
</linearGradient>
<linearGradient id="paint11_linear_682_35" x1="24" y1="8.00024" x2="80.4775" y2="50.4181" gradientUnits="userSpaceOnUse">
<stop stop-color="white" stop-opacity="0.9"/>
<stop offset="1" stop-color="white" stop-opacity="0.2"/>
</linearGradient>
<linearGradient id="paint12_linear_682_35" x1="26.8804" y1="20.5586" x2="122.638" y2="84.2074" gradientUnits="userSpaceOnUse">
<stop stop-color="white" stop-opacity="0.9"/>
<stop offset="1" stop-color="white" stop-opacity="0.4"/>
</linearGradient>
<linearGradient id="paint13_linear_682_35" x1="26.8804" y1="20.5586" x2="107.37" y2="80.5024" gradientUnits="userSpaceOnUse">
<stop stop-color="white" stop-opacity="0.9"/>
<stop offset="1" stop-color="white" stop-opacity="0.2"/>
</linearGradient>
</defs>
</svg>
