<svg width="132" height="132" viewBox="0 0 132 132" fill="none" xmlns="http://www.w3.org/2000/svg">
<g filter="url(#filter0_d_682_68)">
<path d="M98 98C98 103.523 93.5228 108 88 108C82.4772 108 78 103.523 78 98C78 92.4772 82.4772 88 88 88C93.5228 88 98 92.4772 98 98Z" fill="url(#paint0_linear_682_68)"/>
<path d="M119 88.5C119 92.6421 115.642 96 111.5 96C107.358 96 104 92.6421 104 88.5C104 84.3579 107.358 81 111.5 81C115.642 81 119 84.3579 119 88.5Z" fill="url(#paint1_linear_682_68)"/>
<path d="M53 98C53 103.523 48.5228 108 43 108C37.4772 108 33 103.523 33 98C33 92.4772 37.4772 88 43 88C48.5228 88 53 92.4772 53 98Z" fill="url(#paint2_linear_682_68)"/>
<path d="M74 88.5C74 92.6421 70.6421 96 66.5 96C62.3579 96 59 92.6421 59 88.5C59 84.3579 62.3579 81 66.5 81C70.6421 81 74 84.3579 74 88.5Z" fill="url(#paint3_linear_682_68)"/>
<path d="M124 34.7271C124 49.4879 112.034 61.4539 97.2727 61.4539C82.5116 61.4539 70.5454 49.4879 70.5454 34.7271C70.5454 19.9662 82.5116 8.00024 97.2727 8.00024C112.034 8.00024 124 19.9662 124 34.7271Z" fill="url(#paint4_radial_682_68)"/>
<path d="M36.7005 25.3484L37.6077 25.1607L37.846 24.2653C40.1083 15.7641 47.8687 9.50024 57.0915 9.50024C67.5195 9.50024 76.0745 17.5072 76.9328 27.6978L77.0336 28.8948L78.2237 29.058C84.1328 29.8683 88.6831 34.9336 88.6831 41.0558C88.6831 47.743 83.2557 53.1669 76.5572 53.1669H58.0648H39.5725C31.7989 53.1669 25.5 46.8725 25.5 39.1114C25.5 32.334 30.3045 26.6724 36.7005 25.3484Z" fill="url(#paint5_linear_682_68)" stroke="url(#paint6_linear_682_68)" stroke-width="3"/>
<path d="M44.7471 44.7117L45.6545 44.5223L45.891 43.6261C49.1698 31.2005 60.4107 22.0586 73.7563 22.0586C88.8441 22.0586 101.241 33.7442 102.485 48.6429L102.585 49.8394L103.774 50.0039C112.441 51.2024 119.132 58.6983 119.132 67.7808C119.132 77.7017 111.152 85.7253 101.33 85.7253H75.135H48.9396C37.5955 85.7253 28.3804 76.458 28.3804 65.003C28.3804 55.0003 35.4102 46.6607 44.7471 44.7117Z" fill="url(#paint7_linear_682_68)" stroke="url(#paint8_linear_682_68)" stroke-width="3"/>
</g>
<defs>
<filter id="filter0_d_682_68" x="0" y="0.000244141" width="132" height="132" filterUnits="userSpaceOnUse" color-interpolation-filters="sRGB">
<feFlood flood-opacity="0" result="BackgroundImageFix"/>
<feColorMatrix in="SourceAlpha" type="matrix" values="0 0 0 0 0 0 0 0 0 0 0 0 0 0 0 0 0 0 127 0" result="hardAlpha"/>
<feOffset dx="-8" dy="8"/>
<feGaussianBlur stdDeviation="8"/>
<feComposite in2="hardAlpha" operator="out"/>
<feColorMatrix type="matrix" values="0 0 0 0 0.164271 0 0 0 0 0.31478 0 0 0 0 0.475 0 0 0 0.1 0"/>
<feBlend mode="normal" in2="BackgroundImageFix" result="effect1_dropShadow_682_68"/>
<feBlend mode="normal" in="SourceGraphic" in2="effect1_dropShadow_682_68" result="shape"/>
</filter>
<linearGradient id="paint0_linear_682_68" x1="88" y1="88" x2="88" y2="108" gradientUnits="userSpaceOnUse">
<stop stop-color="#5EC5FF"/>
<stop offset="1" stop-color="#00A3FF"/>
</linearGradient>
<linearGradient id="paint1_linear_682_68" x1="111.5" y1="81" x2="111.5" y2="96" gradientUnits="userSpaceOnUse">
<stop stop-color="#5EC5FF"/>
<stop offset="1" stop-color="#00A3FF"/>
</linearGradient>
<linearGradient id="paint2_linear_682_68" x1="43" y1="88" x2="43" y2="108" gradientUnits="userSpaceOnUse">
<stop stop-color="#5EC5FF"/>
<stop offset="1" stop-color="#00A3FF"/>
</linearGradient>
<linearGradient id="paint3_linear_682_68" x1="66.5" y1="81" x2="66.5" y2="96" gradientUnits="userSpaceOnUse">
<stop stop-color="#5EC5FF"/>
<stop offset="1" stop-color="#00A3FF"/>
</linearGradient>
<radialGradient id="paint4_radial_682_68" cx="0" cy="0" r="1" gradientUnits="userSpaceOnUse" gradientTransform="translate(108.029 21.82) rotate(127.113) scale(45.5113 45.5115)">
<stop stop-color="#FFD600"/>
<stop offset="1" stop-color="#FF6B00"/>
</radialGradient>
<linearGradient id="paint5_linear_682_68" x1="24" y1="8.00024" x2="91.248" y2="53.0783" gradientUnits="userSpaceOnUse">
<stop stop-color="white" stop-opacity="0.9"/>
<stop offset="1" stop-color="white" stop-opacity="0.4"/>
</linearGradient>
<linearGradient id="paint6_linear_682_68" x1="24" y1="8.00024" x2="80.4775" y2="50.4181" gradientUnits="userSpaceOnUse">
<stop stop-color="white" stop-opacity="0.9"/>
<stop offset="1" stop-color="white" stop-opacity="0.2"/>
</linearGradient>
<linearGradient id="paint7_linear_682_68" x1="26.8804" y1="20.5586" x2="122.638" y2="84.2074" gradientUnits="userSpaceOnUse">
<stop stop-color="white" stop-opacity="0.9"/>
<stop offset="1" stop-color="white" stop-opacity="0.4"/>
</linearGradient>
<linearGradient id="paint8_linear_682_68" x1="26.8804" y1="20.5586" x2="107.37" y2="80.5024" gradientUnits="userSpaceOnUse">
<stop stop-color="white" stop-opacity="0.9"/>
<stop offset="1" stop-color="white" stop-opacity="0.2"/>
</linearGradient>
</defs>
</svg>
