<svg width="132" height="132" viewBox="0 0 132 132" fill="none" xmlns="http://www.w3.org/2000/svg">
<g filter="url(#filter0_d_682_74)">
<path d="M98 98C98 103.523 93.5228 108 88 108C82.4772 108 78 103.523 78 98C78 92.4772 82.4772 88 88 88C93.5228 88 98 92.4772 98 98Z" fill="url(#paint0_linear_682_74)"/>
<path d="M119 88.5C119 92.6421 115.642 96 111.5 96C107.358 96 104 92.6421 104 88.5C104 84.3579 107.358 81 111.5 81C115.642 81 119 84.3579 119 88.5Z" fill="url(#paint1_linear_682_74)"/>
<path d="M53 98C53 103.523 48.5228 108 43 108C37.4772 108 33 103.523 33 98C33 92.4772 37.4772 88 43 88C48.5228 88 53 92.4772 53 98Z" fill="url(#paint2_linear_682_74)"/>
<path d="M74 88.5C74 92.6421 70.6421 96 66.5 96C62.3579 96 59 92.6421 59 88.5C59 84.3579 62.3579 81 66.5 81C70.6421 81 74 84.3579 74 88.5Z" fill="url(#paint3_linear_682_74)"/>
<path fill-rule="evenodd" clip-rule="evenodd" d="M124 37.9861C121.657 39.0267 119.062 39.605 116.331 39.605C105.9 39.605 97.4429 31.162 97.4429 20.7471C97.4429 16.0242 99.1818 11.7069 102.055 8.39846C100.552 8.13671 99.0046 8.00024 97.4257 8.00024C82.6404 8.00024 70.6545 19.9667 70.6545 34.728C70.6545 49.4894 82.6404 61.4558 97.4257 61.4558C111.106 61.4558 122.39 51.2107 124 37.9861Z" fill="url(#paint4_radial_682_74)"/>
<path d="M36.7 25.3484L37.6073 25.1606L37.8455 24.2653C40.1077 15.7641 47.8678 9.50024 57.0902 9.50024C67.5177 9.50024 76.0723 17.5072 76.9306 27.6978L77.0314 28.8948L78.2215 29.058C84.1303 29.8682 88.6804 34.9335 88.6804 41.0558C88.6804 47.7431 83.2532 53.1669 76.555 53.1669H58.0635H39.5719C31.7987 53.1669 25.5 46.8725 25.5 39.1114C25.5 32.334 30.3043 26.6723 36.7 25.3484Z" fill="url(#paint5_linear_682_74)" stroke="url(#paint6_linear_682_74)" stroke-width="3"/>
<path d="M44.7464 44.7117L45.6538 44.5223L45.8903 43.6261C49.169 31.2005 60.4094 22.0586 73.7544 22.0586C88.8416 22.0586 101.238 33.7442 102.482 48.6429L102.582 49.8394L103.771 50.0039C112.437 51.2024 119.128 58.6983 119.128 67.7808C119.128 77.7017 111.148 85.7253 101.327 85.7253H75.133H48.9387C37.5951 85.7253 28.3804 76.4581 28.3804 65.003C28.3804 55.0003 35.41 46.6607 44.7464 44.7117Z" fill="url(#paint7_linear_682_74)" stroke="url(#paint8_linear_682_74)" stroke-width="3"/>
</g>
<defs>
<filter id="filter0_d_682_74" x="0" y="0.000244141" width="132" height="132" filterUnits="userSpaceOnUse" color-interpolation-filters="sRGB">
<feFlood flood-opacity="0" result="BackgroundImageFix"/>
<feColorMatrix in="SourceAlpha" type="matrix" values="0 0 0 0 0 0 0 0 0 0 0 0 0 0 0 0 0 0 127 0" result="hardAlpha"/>
<feOffset dx="-8" dy="8"/>
<feGaussianBlur stdDeviation="8"/>
<feComposite in2="hardAlpha" operator="out"/>
<feColorMatrix type="matrix" values="0 0 0 0 0.164271 0 0 0 0 0.31478 0 0 0 0 0.475 0 0 0 0.1 0"/>
<feBlend mode="normal" in2="BackgroundImageFix" result="effect1_dropShadow_682_74"/>
<feBlend mode="normal" in="SourceGraphic" in2="effect1_dropShadow_682_74" result="shape"/>
</filter>
<linearGradient id="paint0_linear_682_74" x1="88" y1="88" x2="88" y2="108" gradientUnits="userSpaceOnUse">
<stop stop-color="#5EC5FF"/>
<stop offset="1" stop-color="#00A3FF"/>
</linearGradient>
<linearGradient id="paint1_linear_682_74" x1="111.5" y1="81" x2="111.5" y2="96" gradientUnits="userSpaceOnUse">
<stop stop-color="#5EC5FF"/>
<stop offset="1" stop-color="#00A3FF"/>
</linearGradient>
<linearGradient id="paint2_linear_682_74" x1="43" y1="88" x2="43" y2="108" gradientUnits="userSpaceOnUse">
<stop stop-color="#5EC5FF"/>
<stop offset="1" stop-color="#00A3FF"/>
</linearGradient>
<linearGradient id="paint3_linear_682_74" x1="66.5" y1="81" x2="66.5" y2="96" gradientUnits="userSpaceOnUse">
<stop stop-color="#5EC5FF"/>
<stop offset="1" stop-color="#00A3FF"/>
</linearGradient>
<radialGradient id="paint4_radial_682_74" cx="0" cy="0" r="1" gradientUnits="userSpaceOnUse" gradientTransform="translate(101.59 29.6794) rotate(126.311) scale(35.2878 35.3049)">
<stop stop-color="#CFDDF9"/>
<stop offset="1" stop-color="#465897"/>
</radialGradient>
<linearGradient id="paint5_linear_682_74" x1="24" y1="8.00024" x2="91.247" y2="53.0758" gradientUnits="userSpaceOnUse">
<stop stop-color="white" stop-opacity="0.9"/>
<stop offset="1" stop-color="white" stop-opacity="0.4"/>
</linearGradient>
<linearGradient id="paint6_linear_682_74" x1="24" y1="8.00024" x2="80.4769" y2="50.4159" gradientUnits="userSpaceOnUse">
<stop stop-color="white" stop-opacity="0.9"/>
<stop offset="1" stop-color="white" stop-opacity="0.2"/>
</linearGradient>
<linearGradient id="paint7_linear_682_74" x1="26.8804" y1="20.5586" x2="122.637" y2="84.2039" gradientUnits="userSpaceOnUse">
<stop stop-color="white" stop-opacity="0.9"/>
<stop offset="1" stop-color="white" stop-opacity="0.4"/>
</linearGradient>
<linearGradient id="paint8_linear_682_74" x1="26.8804" y1="20.5586" x2="107.369" y2="80.4993" gradientUnits="userSpaceOnUse">
<stop stop-color="white" stop-opacity="0.9"/>
<stop offset="1" stop-color="white" stop-opacity="0.2"/>
</linearGradient>
</defs>
</svg>
