<svg width="132" height="132" viewBox="0 0 132 132" fill="none" xmlns="http://www.w3.org/2000/svg">
<g filter="url(#filter0_d_682_105)">
<path fill-rule="evenodd" clip-rule="evenodd" d="M109.795 74.8264C111.179 75.7366 111.564 77.5982 110.655 78.9843L100.162 94.9883C99.2534 96.3744 97.3946 96.7603 96.0106 95.8501C94.6265 94.9399 94.2413 93.0783 95.1501 91.6922L105.643 75.6882C106.552 74.3021 108.411 73.9162 109.795 74.8264ZM94.8047 77.829C96.1887 78.7392 96.574 80.6007 95.6651 81.9869L85.172 97.9909C84.2632 99.377 82.4044 99.7628 81.0204 98.8526C79.6363 97.9424 79.2511 96.0809 80.1599 94.6947C80.1599 94.6947 89.7442 80.0769 90.653 78.6908C91.5619 77.3046 93.4206 76.9188 94.8047 77.829ZM121.787 80.8315C123.171 81.7417 123.556 83.6033 122.647 84.9894L112.154 100.993C111.245 102.38 109.387 102.765 108.003 101.855C106.619 100.945 106.233 99.0834 107.142 97.6973L117.635 81.6933C118.544 80.3072 120.403 79.9213 121.787 80.8315Z" fill="url(#paint0_linear_682_105)"/>
<path fill-rule="evenodd" clip-rule="evenodd" d="M55.4606 74.8264C56.8447 75.7366 57.2299 77.5982 56.3211 78.9843L45.828 94.9883C44.9191 96.3744 43.0604 96.7603 41.6763 95.8501C40.2923 94.9399 39.907 93.0783 40.8159 91.6922L51.309 75.6882C52.2178 74.3021 54.0766 73.9162 55.4606 74.8264ZM40.4704 77.829C41.8545 78.7392 42.2397 80.6007 41.3309 81.9869L30.8378 97.9909C29.929 99.377 28.0702 99.7628 26.6862 98.8526C25.3021 97.9424 24.9169 96.0809 25.8257 94.6947C25.8257 94.6947 35.41 80.0769 36.3188 78.6908C37.2276 77.3046 39.0864 76.9188 40.4704 77.829ZM67.4528 80.8315C68.8368 81.7417 69.222 83.6033 68.3132 84.9894L57.8201 100.993C56.9113 102.38 55.0525 102.765 53.6685 101.855C52.2844 100.945 51.8992 99.0834 52.808 97.6973L63.3011 81.6933C64.21 80.3072 66.0687 79.9213 67.4528 80.8315Z" fill="url(#paint1_linear_682_105)"/>
<path d="M90.1123 80.3596L66.7786 108L75.5287 88.5493L67.7508 87.5256V62.4445H86.2234L79.9038 78.3121L90.1123 80.3596Z" fill="url(#paint2_linear_682_105)"/>
<path fill-rule="evenodd" clip-rule="evenodd" d="M124 37.9858C121.657 39.0264 119.062 39.6048 116.331 39.6048C105.9 39.6048 97.4429 31.1618 97.4429 20.7468C97.4429 16.024 99.1818 11.7066 102.055 8.39821C100.552 8.13646 99.0046 8 97.4257 8C82.6404 8 70.6545 19.9664 70.6545 34.7278C70.6545 49.4891 82.6404 61.4556 97.4257 61.4556C111.106 61.4556 122.39 51.2105 124 37.9858Z" fill="url(#paint3_radial_682_105)"/>
<path d="M39.5719 54.6667C30.9718 54.6667 24 47.7022 24 39.1111C24 31.6072 29.3189 25.3443 36.396 23.8793C38.8289 14.7366 47.172 8 57.0902 8C68.3026 8 77.5021 16.6094 78.4253 27.5716C85.0655 28.4822 90.1804 34.1722 90.1804 41.0556C90.1804 48.5728 84.0802 54.6667 76.5551 54.6667H58.0635H39.5719Z" fill="#343434" fill-opacity="0.9"/>
<path d="M36.7 25.3482L37.6073 25.1604L37.8455 24.2651C40.1077 15.7638 47.8679 9.5 57.0902 9.5C67.5177 9.5 76.0724 17.5069 76.9306 27.6975L77.0315 28.8945L78.2216 29.0577C84.1303 29.868 88.6804 34.9333 88.6804 41.0556C88.6804 47.7429 83.2532 53.1667 76.5551 53.1667H58.0635H39.5719C31.7987 53.1667 25.5 46.8723 25.5 39.1111C25.5 32.3337 30.3043 26.6721 36.7 25.3482Z" stroke="#1F1F1F" stroke-opacity="0.8" stroke-width="3"/>
<path d="M53.2477 76.8889C42.9242 76.8889 34.5553 68.515 34.5553 58.1852C34.5553 49.1627 40.9401 41.6323 49.4354 39.8708C52.3558 28.8778 62.3709 20.7778 74.2767 20.7778C87.736 20.7778 98.779 31.1296 99.8873 44.3104C107.858 45.4052 113.998 52.2468 113.998 60.5232C113.998 69.5618 106.675 76.8889 97.6422 76.8889H75.445H53.2477Z" fill="#343434" fill-opacity="0.9"/>
<path d="M49.7399 41.3396L50.6472 41.1515L50.8851 40.256C53.6355 29.9032 63.0685 22.2778 74.2767 22.2778C86.949 22.2778 97.349 32.025 98.3926 44.4361L98.4932 45.633L99.6832 45.7964C106.921 46.7906 112.498 53.0058 112.498 60.5232C112.498 68.7342 105.846 75.3889 97.6422 75.3889H75.445H53.2477C43.7535 75.3889 36.0553 67.6874 36.0553 58.1852C36.0553 49.8874 41.9274 42.9595 49.7399 41.3396Z" stroke="#1F1F1F" stroke-opacity="0.8" stroke-width="3"/>
</g>
<defs>
<filter id="filter0_d_682_105" x="0" y="0" width="132" height="132" filterUnits="userSpaceOnUse" color-interpolation-filters="sRGB">
<feFlood flood-opacity="0" result="BackgroundImageFix"/>
<feColorMatrix in="SourceAlpha" type="matrix" values="0 0 0 0 0 0 0 0 0 0 0 0 0 0 0 0 0 0 127 0" result="hardAlpha"/>
<feOffset dx="-8" dy="8"/>
<feGaussianBlur stdDeviation="8"/>
<feComposite in2="hardAlpha" operator="out"/>
<feColorMatrix type="matrix" values="0 0 0 0 0.164271 0 0 0 0 0.31478 0 0 0 0 0.475 0 0 0 0.1 0"/>
<feBlend mode="normal" in2="BackgroundImageFix" result="effect1_dropShadow_682_105"/>
<feBlend mode="normal" in="SourceGraphic" in2="effect1_dropShadow_682_105" result="shape"/>
</filter>
<linearGradient id="paint0_linear_682_105" x1="101.404" y1="74.3334" x2="101.404" y2="102.348" gradientUnits="userSpaceOnUse">
<stop stop-color="#0066FF"/>
<stop offset="1" stop-color="#00C2FF"/>
</linearGradient>
<linearGradient id="paint1_linear_682_105" x1="47.0695" y1="74.3334" x2="47.0695" y2="102.348" gradientUnits="userSpaceOnUse">
<stop stop-color="#0066FF"/>
<stop offset="1" stop-color="#00C2FF"/>
</linearGradient>
<linearGradient id="paint2_linear_682_105" x1="78.4455" y1="62.4445" x2="78.4455" y2="108" gradientUnits="userSpaceOnUse">
<stop stop-color="#FFC700"/>
<stop offset="1" stop-color="#FAFF00"/>
</linearGradient>
<radialGradient id="paint3_radial_682_105" cx="0" cy="0" r="1" gradientUnits="userSpaceOnUse" gradientTransform="translate(101.59 29.6792) rotate(126.311) scale(35.2878 35.3049)">
<stop stop-color="#CFDDF9"/>
<stop offset="1" stop-color="#465897"/>
</radialGradient>
</defs>
</svg>
