<svg width="132" height="132" viewBox="0 0 132 132" fill="none" xmlns="http://www.w3.org/2000/svg">
<g filter="url(#filter0_d_682_144)">
<path d="M106.112 80.3585L82.7786 107.999L91.5287 88.5482L83.7508 87.5245V62.4434H102.223L95.9038 78.311L106.112 80.3585Z" fill="url(#paint0_linear_682_144)"/>
<path d="M74.4933 90.3807H71.7223L72.9645 89.1469C73.2945 88.8193 73.2945 88.2881 72.9646 87.9605C72.6348 87.6329 72.1 87.6328 71.7702 87.9604L69.3334 90.3807H65.2377L67.06 88.4353C67.3777 88.0961 67.3584 87.5654 67.0169 87.2496C66.8769 87.1203 66.7044 87.048 66.5276 87.0302C66.4204 87.025 64.1069 87.0299 64.1069 87.0299L66.8146 84.3404H70.2139C70.6805 84.3404 71.0585 83.9649 71.0585 83.5015C71.0585 83.0381 70.6805 82.6626 70.2139 82.6626H68.5037L70.4959 80.6838C70.8257 80.3561 70.8257 79.825 70.4959 79.4972C70.1659 79.1697 69.6125 79.1697 69.2826 79.4972L67.2484 81.4992V79.7543C67.2484 79.2909 66.8704 78.9154 66.4038 78.9154C65.9372 78.9154 65.5592 79.2909 65.5592 79.7543V83.1772L62.7622 85.9741L62.7155 83.4411C62.7153 83.4371 62.7194 83.4333 62.7193 83.4292C62.7153 83.2252 62.64 83.022 62.4862 82.8633C62.1626 82.5298 61.6103 82.5199 61.2743 82.8416L59.478 84.5448V80.6052L61.8958 78.2222C62.2257 77.8944 62.235 77.3633 61.9052 77.0357C61.5752 76.7082 61.0265 76.7082 60.6966 77.0357L59.478 78.2321V75.5037C59.478 75.0403 59.1 74.6648 58.6334 74.6648C58.1668 74.6648 57.7888 75.0403 57.7888 75.5037V78.2322L56.6029 77.0358C56.273 76.7083 55.7478 76.7083 55.4178 77.0358C55.0879 77.3636 55.0739 77.8947 55.4037 78.2223L57.7888 80.6053V84.5674L55.9671 82.8364C55.6283 82.5179 55.1034 82.5324 54.7824 82.8687C54.6614 82.9958 54.5929 83.1506 54.5669 83.3111C54.5509 83.3763 54.544 83.444 54.5442 83.5137L54.5343 85.8883L51.7077 83.0981V79.7543C51.7077 79.2909 51.3296 78.9154 50.8631 78.9154C50.3965 78.9154 50.0185 79.2909 50.0185 79.7543V81.4203L48.1011 79.4972C47.7711 79.1697 47.2459 79.1697 46.9159 79.4972C46.5861 79.825 46.5908 80.3561 46.9207 80.6838L48.9176 82.6626H47.1279C46.6613 82.6626 46.2833 83.0381 46.2833 83.5015C46.2833 83.9649 46.6613 84.3404 47.1279 84.3404H50.6068L53.3933 87.1082L50.7968 87.2011C50.3439 87.2175 49.9494 87.5854 49.945 88.0309C49.9446 88.0434 49.9057 88.0561 49.9057 88.0686C49.9057 88.0689 49.9057 88.0694 49.9057 88.0698C49.9057 88.0707 49.9446 88.0717 49.9446 88.0725C49.9497 88.2822 50.0521 88.4904 50.2143 88.6495L51.9982 90.3807H48.0879L45.6512 87.9603C45.3212 87.6328 44.7865 87.6328 44.4567 87.9603C44.1268 88.2881 44.1268 88.8192 44.4567 89.1468L45.6988 90.3806H42.8485C42.382 90.3806 42.0039 90.7561 42.0039 91.2195C42.0039 91.6829 42.382 92.0584 42.8485 92.0584H45.6661L44.4567 93.2598C44.1268 93.5875 44.1268 94.1186 44.4567 94.4462C44.6216 94.61 44.8379 94.6919 45.054 94.6919C45.2701 94.6919 45.4863 94.61 45.6513 94.4462L48.0551 92.0585H51.9997L50.282 93.8923C49.9643 94.2315 49.9836 94.7622 50.3251 95.078C50.4877 95.2283 50.6942 95.3027 50.9001 95.3027C50.904 95.3027 50.9078 95.3022 50.9117 95.3022C50.9142 95.3022 50.9167 95.3025 50.9191 95.3025C50.9211 95.3025 50.9232 95.3025 50.9252 95.3025L53.4033 95.2885L50.574 98.0988H47.1279C46.6613 98.0988 46.2833 98.4743 46.2833 98.9377C46.2833 99.4011 46.6613 99.7767 47.1279 99.7767H48.8848L46.9254 101.723C46.5955 102.051 46.5955 102.582 46.9254 102.909C47.0904 103.073 47.3066 103.155 47.5227 103.155C47.7388 103.155 47.9362 103.073 48.1012 102.909L50.0185 100.986V102.685C50.0185 103.148 50.3965 103.524 50.8631 103.524C51.3296 103.524 51.7077 103.148 51.7077 102.685V99.3085L54.5732 96.481L54.6832 99.2092C54.6999 99.6618 55.0793 100.026 55.5314 100.017C55.685 100.014 55.8517 99.9654 56.017 99.8448C56.1367 99.7574 57.7889 98.0761 57.7889 98.0761V102.034L55.4272 104.398C55.0973 104.726 55.1067 105.257 55.4365 105.585C55.6015 105.749 55.8222 105.831 56.0384 105.831C56.2545 105.831 56.4543 105.749 56.6192 105.585L57.7889 104.407V107.159C57.7889 107.623 58.1669 107.998 58.6335 107.998C59.1001 107.998 59.4781 107.623 59.4781 107.159V104.328L60.7624 105.585C60.9274 105.749 61.1529 105.831 61.369 105.831C61.5851 105.831 61.8061 105.749 61.971 105.585C62.3008 105.257 62.2844 104.726 61.9545 104.399L59.4781 101.955V97.9618C59.4781 97.9618 61.0242 99.4043 61.2682 99.6369C61.5123 99.8696 61.7122 100 62.0031 100C62.0047 100 62.0064 100 62.0082 100C62.4747 100 62.8506 99.5973 62.8478 99.134L62.8133 96.4835L65.5593 99.2297V102.685C65.5593 103.148 65.9374 103.524 66.4039 103.524C66.8705 103.524 67.2485 103.148 67.2485 102.685V100.907L69.2828 102.909C69.4478 103.073 69.6732 103.155 69.8895 103.155C70.1056 103.155 70.3264 103.073 70.4914 102.909C70.8212 102.582 70.8236 102.05 70.4938 101.723L68.5365 99.7767H70.2139C70.6805 99.7767 71.0585 99.4011 71.0585 98.9377C71.0585 98.4743 70.6805 98.0988 70.2139 98.0988H66.8474L63.9485 95.2194L66.5453 95.1264C66.5545 95.1261 66.5635 95.1246 66.5726 95.1241C66.576 95.1239 66.5794 95.1235 66.5828 95.1232C67.0306 95.0875 67.3752 94.7083 67.3589 94.2579C67.3491 93.9867 67.2102 93.751 67.0036 93.605L65.4433 92.0585H69.3663L71.77 94.4462C71.935 94.6101 72.1511 94.692 72.3673 94.692C72.5834 94.692 72.7997 94.6101 72.9645 94.4463C73.2945 94.1187 73.2945 93.5875 72.9646 93.26L71.7552 92.0586H74.4933C74.9598 92.0586 75.3379 91.6831 75.3379 91.2197C75.3379 90.7563 74.9598 90.3807 74.4933 90.3807ZM64.5038 88.7009L62.9303 90.3807H60.7335L62.423 88.7026L64.5038 88.7009ZM61.0595 85.3789L61.0995 87.6162L59.478 89.2175V86.8751L61.0595 85.3789ZM56.223 85.3879L57.7888 86.8782V89.1383L56.2206 87.5714L56.223 85.3879ZM52.7994 88.8084L55.0249 88.7288L56.688 90.3807H54.402L52.7994 88.8084ZM52.8426 93.622L54.3071 92.0585H56.6552L55.0965 93.6067L52.8426 93.622ZM56.2906 97.215L56.1944 94.8613L57.7888 93.2684V95.6849L56.2906 97.215ZM61.128 97.1775L59.478 95.6699V93.1891L61.1044 94.7952L61.128 97.1775ZM64.5258 93.5198L62.317 93.5988L60.7663 92.0585H63.0515L64.5258 93.5198Z" fill="url(#paint1_linear_682_144)"/>
<path d="M124 34.7257C124 49.4865 112.034 61.4525 97.2726 61.4525C82.5115 61.4525 70.5453 49.4865 70.5453 34.7257C70.5453 19.9649 82.5115 7.9989 97.2726 7.9989C112.034 7.9989 124 19.9649 124 34.7257Z" fill="url(#paint2_radial_682_144)"/>
<path d="M39.5725 54.6656C30.972 54.6656 24 47.7011 24 39.11C24 31.6061 29.3191 25.3432 36.3965 23.8782C38.8295 14.7355 47.1729 7.9989 57.0915 7.9989C68.3044 7.9989 77.5042 16.6083 78.4275 27.5705C85.0679 28.4811 90.1831 34.1711 90.1831 41.0545C90.1831 48.5717 84.0825 54.6656 76.5572 54.6656H58.0648H39.5725Z" fill="#343434" fill-opacity="0.9"/>
<path d="M36.7005 25.3471L37.6077 25.1593L37.846 24.264C40.1083 15.7628 47.8687 9.4989 57.0915 9.4989C67.5195 9.4989 76.0745 17.5059 76.9328 27.6964L77.0336 28.8934L78.2237 29.0566C84.1328 29.8669 88.6831 34.9322 88.6831 41.0545C88.6831 47.7417 83.2557 53.1656 76.5572 53.1656H58.0648H39.5725C31.7989 53.1656 25.5 46.8711 25.5 39.11C25.5 32.3327 30.3045 26.671 36.7005 25.3471Z" stroke="#1F1F1F" stroke-opacity="0.8" stroke-width="3"/>
<path d="M53.249 76.8878C42.925 76.8878 34.5558 68.5139 34.5558 58.1841C34.5558 49.1616 40.9408 41.6312 49.4365 39.8697C52.357 28.8767 62.3725 20.7767 74.2788 20.7767C87.7386 20.7767 98.7821 31.1286 99.8904 44.3093C107.862 45.4041 114.002 52.2457 114.002 60.5221C114.002 69.5607 106.679 76.8878 97.6452 76.8878H75.4471H53.249Z" fill="#343434" fill-opacity="0.9"/>
<path d="M49.741 41.3385L50.6482 41.1504L50.8862 40.2549C53.6366 29.9022 63.07 22.2767 74.2788 22.2767C86.9516 22.2767 97.3521 32.0239 98.3957 44.435L98.4963 45.6319L99.6863 45.7953C106.924 46.7895 112.502 53.0048 112.502 60.5221C112.502 68.733 105.849 75.3878 97.6452 75.3878H75.4471H53.249C43.7542 75.3878 36.0558 67.6863 36.0558 58.1841C36.0558 49.8863 41.9281 42.9584 49.741 41.3385Z" stroke="#1F1F1F" stroke-opacity="0.8" stroke-width="3"/>
</g>
<defs>
<filter id="filter0_d_682_144" x="0" y="-0.00109863" width="132" height="132" filterUnits="userSpaceOnUse" color-interpolation-filters="sRGB">
<feFlood flood-opacity="0" result="BackgroundImageFix"/>
<feColorMatrix in="SourceAlpha" type="matrix" values="0 0 0 0 0 0 0 0 0 0 0 0 0 0 0 0 0 0 127 0" result="hardAlpha"/>
<feOffset dx="-8" dy="8"/>
<feGaussianBlur stdDeviation="8"/>
<feComposite in2="hardAlpha" operator="out"/>
<feColorMatrix type="matrix" values="0 0 0 0 0.164271 0 0 0 0 0.31478 0 0 0 0 0.475 0 0 0 0.1 0"/>
<feBlend mode="normal" in2="BackgroundImageFix" result="effect1_dropShadow_682_144"/>
<feBlend mode="normal" in="SourceGraphic" in2="effect1_dropShadow_682_144" result="shape"/>
</filter>
<linearGradient id="paint0_linear_682_144" x1="94.4455" y1="62.4434" x2="94.4455" y2="107.999" gradientUnits="userSpaceOnUse">
<stop stop-color="#FFC700"/>
<stop offset="1" stop-color="#FAFF00"/>
</linearGradient>
<linearGradient id="paint1_linear_682_144" x1="58.6709" y1="74.6648" x2="58.6709" y2="107.998" gradientUnits="userSpaceOnUse">
<stop stop-color="#5EC5FF"/>
<stop offset="1" stop-color="#00A3FF"/>
</linearGradient>
<radialGradient id="paint2_radial_682_144" cx="0" cy="0" r="1" gradientUnits="userSpaceOnUse" gradientTransform="translate(108.029 21.8186) rotate(127.113) scale(45.5113 45.5115)">
<stop stop-color="#FFD600"/>
<stop offset="1" stop-color="#FF6B00"/>
</radialGradient>
</defs>
</svg>
