<svg width="216" height="217" viewBox="0 0 216 217" fill="none" xmlns="http://www.w3.org/2000/svg">
<g filter="url(#filter0_d_634_190)">
<path d="M103 127.92H149.761C167.08 125.27 157.743 100.743 142.307 110.13M103 147.906H190.951C213.164 145.786 205.634 106.269 178.827 121.712M103 168.648H164.445C178.827 168.648 175.589 195.977 157.065 185.681" stroke="url(#paint0_linear_634_190)" stroke-width="8" stroke-linecap="round" stroke-linejoin="round"/>
<path fill-rule="evenodd" clip-rule="evenodd" d="M204.004 61.9744C199.785 63.8476 195.115 64.8885 190.2 64.8885C171.422 64.8885 156.2 49.6912 156.2 30.9443C156.2 22.4432 159.33 14.672 164.503 8.71678C161.796 8.24563 159.011 8 156.169 8C129.555 8 107.98 29.5396 107.98 56.11C107.98 82.6804 129.555 104.22 156.169 104.22C180.795 104.22 201.106 85.7788 204.004 61.9744Z" fill="url(#paint1_radial_634_190)"/>
<path d="M46.6172 38.0517L47.5245 37.8639L47.7627 36.9685C51.9714 21.1532 66.4063 9.5 83.5636 9.5C102.961 9.5 118.876 24.3945 120.473 43.3548L120.574 44.5518L121.764 44.715C132.985 46.2538 141.627 55.871 141.627 67.5C141.627 80.201 131.32 90.5 118.601 90.5H85.3155H52.0299C37.3763 90.5 25.5 78.634 25.5 64C25.5 51.2195 34.5596 40.5475 46.6172 38.0517Z" fill="url(#paint2_linear_634_190)" stroke="url(#paint3_linear_634_190)" stroke-width="3"/>
<path d="M57.5886 68.8776L58.4959 68.6889L58.7332 67.793C64.1153 47.4681 82.5712 32.5 104.5 32.5C129.291 32.5 149.642 51.6312 151.684 76.0002L151.785 77.1969L152.974 77.3609C167.388 79.3472 178.5 91.7642 178.5 106.792C178.5 123.205 165.247 136.5 148.912 136.5H106.721H64.5294C45.7409 136.5 30.5 121.209 30.5 102.333C30.5 85.849 42.1269 72.0939 57.5886 68.8776Z" fill="url(#paint4_linear_634_190)" stroke="url(#paint5_linear_634_190)" stroke-width="3"/>
</g>
<defs>
<filter id="filter0_d_634_190" x="0" y="0" width="216" height="216.002" filterUnits="userSpaceOnUse" color-interpolation-filters="sRGB">
<feFlood flood-opacity="0" result="BackgroundImageFix"/>
<feColorMatrix in="SourceAlpha" type="matrix" values="0 0 0 0 0 0 0 0 0 0 0 0 0 0 0 0 0 0 127 0" result="hardAlpha"/>
<feOffset dx="-8" dy="8"/>
<feGaussianBlur stdDeviation="8"/>
<feComposite in2="hardAlpha" operator="out"/>
<feColorMatrix type="matrix" values="0 0 0 0 0.164271 0 0 0 0 0.31478 0 0 0 0 0.475 0 0 0 0.1 0"/>
<feBlend mode="normal" in2="BackgroundImageFix" result="effect1_dropShadow_634_190"/>
<feBlend mode="normal" in="SourceGraphic" in2="effect1_dropShadow_634_190" result="shape"/>
</filter>
<linearGradient id="paint0_linear_634_190" x1="170.5" y1="178.5" x2="103" y2="122.5" gradientUnits="userSpaceOnUse">
<stop stop-color="#0066FF"/>
<stop offset="1" stop-color="#00C2FF"/>
</linearGradient>
<radialGradient id="paint1_radial_634_190" cx="0" cy="0" r="1" gradientUnits="userSpaceOnUse" gradientTransform="translate(163.665 47.0226) rotate(126.312) scale(63.5185 63.5498)">
<stop stop-color="#CFDDF9"/>
<stop offset="1" stop-color="#465897"/>
</radialGradient>
<linearGradient id="paint2_linear_634_190" x1="24" y1="8" x2="145.046" y2="89.1383" gradientUnits="userSpaceOnUse">
<stop stop-color="white" stop-opacity="0.9"/>
<stop offset="1" stop-color="white" stop-opacity="0.4"/>
</linearGradient>
<linearGradient id="paint3_linear_634_190" x1="24" y1="8" x2="125.659" y2="84.3502" gradientUnits="userSpaceOnUse">
<stop stop-color="white" stop-opacity="0.9"/>
<stop offset="1" stop-color="white" stop-opacity="0.2"/>
</linearGradient>
<linearGradient id="paint4_linear_634_190" x1="29" y1="31" x2="182.899" y2="133.654" gradientUnits="userSpaceOnUse">
<stop stop-color="white" stop-opacity="0.9"/>
<stop offset="1" stop-color="white" stop-opacity="0.4"/>
</linearGradient>
<linearGradient id="paint5_linear_634_190" x1="29" y1="31" x2="158.315" y2="127.644" gradientUnits="userSpaceOnUse">
<stop stop-color="white" stop-opacity="0.9"/>
<stop offset="1" stop-color="white" stop-opacity="0.2"/>
</linearGradient>
</defs>
</svg>
