<svg width="212" height="212" viewBox="0 0 212 212" fill="none" xmlns="http://www.w3.org/2000/svg">
<g filter="url(#filter0_d_633_56)">
<path d="M55.9143 50.3009L56.8217 50.1115L57.0582 49.2153C63.0941 26.3409 83.7897 9.5 108.375 9.5C136.169 9.5 158.991 31.0249 161.282 58.4519L161.381 59.6484L162.571 59.8129C178.762 62.052 191.25 76.0508 191.25 93C191.25 111.512 176.356 126.5 158.007 126.5H110.857H63.7059C42.6158 126.5 25.5 109.273 25.5 88C25.5 69.4213 38.5575 53.9242 55.9143 50.3009Z" fill="url(#paint0_linear_633_56)" stroke="url(#paint1_linear_633_56)" stroke-width="3"/>
<path d="M119 100.669C103.301 108.458 84.5914 108.142 69 99.5109C70.1828 104.774 72.1183 109.721 74.8064 114.142C78.5699 120.458 86.2043 123.721 93.4086 122.037C96.8495 121.3 100.183 119.932 103.409 118.142C110.505 114.142 115.989 108.037 119 100.669Z" fill="url(#paint2_radial_633_56)"/>
<path d="M134.806 41.5109C129.86 39.9319 124.484 39.0898 119 39.0898H118.892C111.366 39.0898 104.806 43.932 102.548 50.8793C101.581 54.1425 100.935 57.6162 100.935 61.3004C100.935 69.4056 103.731 77.0898 108.677 83.3004C109.645 66.1425 119.323 50.4583 134.806 41.5109Z" fill="url(#paint3_radial_633_56)"/>
<path d="M103.194 136.669C108.14 138.248 113.516 139.09 119 139.09H119.108C126.634 139.09 133.194 134.248 135.452 127.3C136.419 124.037 137.065 120.564 137.065 116.879C137.065 108.774 134.269 101.09 129.323 94.8793C128.355 112.037 118.677 127.721 103.194 136.669Z" fill="url(#paint4_radial_633_56)"/>
<path d="M152.656 87.7214C145.452 83.7214 137.28 82.1425 129.323 83.3004C144.054 92.6688 153.194 108.669 153.301 126.248C157.28 122.774 160.72 118.669 163.409 114.142C167.172 107.827 166.312 99.7214 161.151 94.353C158.677 91.7214 155.882 89.5109 152.656 87.7214Z" fill="url(#paint5_radial_633_56)"/>
<path d="M119 77.5109C134.699 69.7214 153.409 70.0372 169 78.6688C167.817 73.4056 165.882 68.4583 163.194 64.0372C159.43 57.7214 151.796 54.4583 144.591 56.1425C141.151 56.8793 137.817 58.2477 134.591 60.0372C127.495 64.0372 122.011 70.1425 119 77.5109Z" fill="url(#paint6_radial_633_56)"/>
<path d="M85.3441 90.4583C92.5484 94.4583 100.72 96.0372 108.677 94.8793C93.9462 85.5109 84.8065 69.5109 84.6989 51.932C80.7204 55.4056 77.2796 59.5109 74.5914 64.1425C70.828 70.4583 71.6882 78.5635 76.8495 83.932C79.3226 86.4583 82.1183 88.6688 85.3441 90.4583Z" fill="url(#paint7_radial_633_56)"/>
<path d="M119 96.1425C122.979 96.1425 126.204 92.9849 126.204 89.0898C126.204 85.1948 122.979 82.0372 119 82.0372C115.021 82.0372 111.796 85.1948 111.796 89.0898C111.796 92.9849 115.021 96.1425 119 96.1425Z" fill="url(#paint8_radial_633_56)"/>
<path d="M107.593 134.111L108.501 133.923L108.739 133.028C112.943 117.23 127.362 105.59 144.5 105.59C163.876 105.59 179.773 120.468 181.368 139.407L181.469 140.604L182.659 140.767C193.868 142.304 202.5 151.911 202.5 163.526C202.5 176.213 192.204 186.5 179.5 186.5H146.25H113C98.3629 186.5 86.5 174.648 86.5 160.03C86.5 147.264 95.5494 136.604 107.593 134.111Z" fill="url(#paint9_linear_633_56)" stroke="url(#paint10_linear_633_56)" stroke-width="3"/>
</g>
<defs>
<filter id="filter0_d_633_56" x="0" y="0" width="212" height="212" filterUnits="userSpaceOnUse" color-interpolation-filters="sRGB">
<feFlood flood-opacity="0" result="BackgroundImageFix"/>
<feColorMatrix in="SourceAlpha" type="matrix" values="0 0 0 0 0 0 0 0 0 0 0 0 0 0 0 0 0 0 127 0" result="hardAlpha"/>
<feOffset dx="-8" dy="8"/>
<feGaussianBlur stdDeviation="8"/>
<feComposite in2="hardAlpha" operator="out"/>
<feColorMatrix type="matrix" values="0 0 0 0 0.164271 0 0 0 0 0.31478 0 0 0 0 0.475 0 0 0 0.1 0"/>
<feBlend mode="normal" in2="BackgroundImageFix" result="effect1_dropShadow_633_56"/>
<feBlend mode="normal" in="SourceGraphic" in2="effect1_dropShadow_633_56" result="shape"/>
</filter>
<linearGradient id="paint0_linear_633_56" x1="24" y1="8" x2="196.363" y2="122.565" gradientUnits="userSpaceOnUse">
<stop stop-color="white" stop-opacity="0.9"/>
<stop offset="1" stop-color="white" stop-opacity="0.4"/>
</linearGradient>
<linearGradient id="paint1_linear_633_56" x1="24" y1="8" x2="168.881" y2="115.896" gradientUnits="userSpaceOnUse">
<stop stop-color="white" stop-opacity="0.9"/>
<stop offset="1" stop-color="white" stop-opacity="0.2"/>
</linearGradient>
<radialGradient id="paint2_radial_633_56" cx="0" cy="0" r="1" gradientUnits="userSpaceOnUse" gradientTransform="translate(119 89.0898) rotate(92.6585) scale(57.9571 57.9519)">
<stop stop-color="#00B0FF"/>
<stop offset="1" stop-color="#0066FF"/>
</radialGradient>
<radialGradient id="paint3_radial_633_56" cx="0" cy="0" r="1" gradientUnits="userSpaceOnUse" gradientTransform="translate(119 89.0898) rotate(92.6585) scale(57.9571 57.9519)">
<stop stop-color="#00B0FF"/>
<stop offset="1" stop-color="#0066FF"/>
</radialGradient>
<radialGradient id="paint4_radial_633_56" cx="0" cy="0" r="1" gradientUnits="userSpaceOnUse" gradientTransform="translate(119 89.0898) rotate(92.6585) scale(57.9571 57.9519)">
<stop stop-color="#00B0FF"/>
<stop offset="1" stop-color="#0066FF"/>
</radialGradient>
<radialGradient id="paint5_radial_633_56" cx="0" cy="0" r="1" gradientUnits="userSpaceOnUse" gradientTransform="translate(119 89.0898) rotate(92.6585) scale(57.9571 57.9519)">
<stop stop-color="#00B0FF"/>
<stop offset="1" stop-color="#0066FF"/>
</radialGradient>
<radialGradient id="paint6_radial_633_56" cx="0" cy="0" r="1" gradientUnits="userSpaceOnUse" gradientTransform="translate(119 89.0898) rotate(92.6585) scale(57.9571 57.9519)">
<stop stop-color="#00B0FF"/>
<stop offset="1" stop-color="#0066FF"/>
</radialGradient>
<radialGradient id="paint7_radial_633_56" cx="0" cy="0" r="1" gradientUnits="userSpaceOnUse" gradientTransform="translate(119 89.0898) rotate(92.6585) scale(57.9571 57.9519)">
<stop stop-color="#00B0FF"/>
<stop offset="1" stop-color="#0066FF"/>
</radialGradient>
<radialGradient id="paint8_radial_633_56" cx="0" cy="0" r="1" gradientUnits="userSpaceOnUse" gradientTransform="translate(119 89.0898) rotate(92.6585) scale(57.9571 57.9519)">
<stop stop-color="#00B0FF"/>
<stop offset="1" stop-color="#0066FF"/>
</radialGradient>
<linearGradient id="paint9_linear_633_56" x1="85" y1="104.09" x2="205.916" y2="185.141" gradientUnits="userSpaceOnUse">
<stop stop-color="white" stop-opacity="0.9"/>
<stop offset="1" stop-color="white" stop-opacity="0.4"/>
</linearGradient>
<linearGradient id="paint10_linear_633_56" x1="85" y1="104.09" x2="186.55" y2="180.358" gradientUnits="userSpaceOnUse">
<stop stop-color="white" stop-opacity="0.9"/>
<stop offset="1" stop-color="white" stop-opacity="0.2"/>
</linearGradient>
</defs>
</svg>
