<svg width="31" height="105" viewBox="0 0 31 105" fill="none" xmlns="http://www.w3.org/2000/svg">
<mask id="path-1-outside-1_652_8" maskUnits="userSpaceOnUse" x="-1" y="0" width="33" height="105" fill="black">
<rect fill="white" x="-1" width="33" height="105"/>
<path d="M3.00005 73.5763L15.5 102L28 73.5763L16.01 83.4918L3.00005 73.5763Z"/>
</mask>
<path d="M3.00005 73.5763L15.5 102L28 73.5763L16.01 83.4918L3.00005 73.5763Z" fill="white" fill-opacity="0.5"/>
<path d="M28 2H29.5C29.5 1.26813 28.9718 0.643097 28.2502 0.521011C27.5286 0.398933 26.8242 0.815445 26.5835 1.5066L28 2ZM28 16.25L29.0737 17.2975C29.347 17.0173 29.5 16.6414 29.5 16.25H28ZM18 26.5L16.9263 25.4525C16.6547 25.7309 16.5018 26.104 16.5 26.493L18 26.5ZM15.75 16.25L15.7203 14.7503L15.75 16.25ZM3.00005 2L4.40821 1.4832C4.15767 0.800537 3.45357 0.395905 2.7376 0.52314C2.02163 0.650368 1.50005 1.27282 1.50005 2H3.00005ZM3.00005 16.25H1.50005C1.50005 16.6541 1.66309 17.0411 1.95224 17.3233L3.00005 16.25ZM13.5 26.5L15 26.493C14.9982 26.0914 14.8353 25.7072 14.5478 25.4266L13.5 26.5ZM16.25 80.7429C16.2462 81.5714 16.9147 82.246 17.7431 82.2498C18.5715 82.2537 19.2462 81.5852 19.25 80.7568L16.25 80.7429ZM26.5 2V16.25H29.5V2H26.5ZM26.9263 15.2025L16.9263 25.4525L19.0737 27.5474L29.0737 17.2975L26.9263 15.2025ZM28 2C26.5835 1.5066 26.5836 1.50633 26.5836 1.50612C26.5836 1.50612 26.5837 1.50596 26.5837 1.50596C26.5837 1.50596 26.5836 1.50617 26.5835 1.5066C26.5832 1.50745 26.5826 1.50913 26.5817 1.51165C26.5799 1.51669 26.577 1.52503 26.5728 1.53658C26.5646 1.55968 26.5517 1.59559 26.5342 1.64346C26.4992 1.73922 26.4459 1.88272 26.3748 2.06716C26.2326 2.43626 26.02 2.96812 25.7419 3.6086C25.1839 4.89349 24.3704 6.5966 23.3432 8.29369C22.3099 10.0008 21.0964 11.641 19.7561 12.8469C18.4113 14.0569 17.0602 14.7237 15.7203 14.7503L15.7798 17.7497C18.1084 17.7035 20.1228 16.5526 21.7627 15.0771C23.4072 13.5975 24.7977 11.6843 25.9097 9.84715C27.0278 7.99994 27.9011 6.16783 28.4936 4.8036C28.7907 4.11951 29.0192 3.54832 29.1743 3.14551C29.2519 2.944 29.3113 2.78433 29.3519 2.67341C29.3721 2.61794 29.3877 2.57463 29.3985 2.54435C29.4039 2.52921 29.4081 2.51733 29.4111 2.5088C29.4126 2.50453 29.4138 2.50111 29.4147 2.49854C29.4152 2.49725 29.4156 2.49619 29.4159 2.49532C29.416 2.4949 29.4162 2.49442 29.4162 2.4942C29.4164 2.49377 29.4165 2.4934 28 2ZM15.7203 14.7503C14.3603 14.7772 12.9771 14.1448 11.5863 12.9486C10.1992 11.7557 8.93133 10.1075 7.84476 8.38141C6.76478 6.66581 5.90222 4.93517 5.30807 3.62707C5.01191 2.97501 4.7846 2.43275 4.63231 2.05609C4.5562 1.86787 4.49895 1.72131 4.46132 1.62343C4.44251 1.5745 4.42862 1.53776 4.41973 1.51408C4.41529 1.50225 4.4121 1.49369 4.41017 1.4885C4.40921 1.48591 4.40857 1.48416 4.40824 1.48328C4.40807 1.48283 4.40799 1.4826 4.40798 1.48259C4.40798 1.48258 4.40804 1.48273 4.40804 1.48273C4.40811 1.48294 4.40821 1.4832 3.00005 2C1.59189 2.5168 1.59202 2.51717 1.59218 2.5176C1.59226 2.51781 1.59244 2.5183 1.59259 2.51873C1.59291 2.51959 1.59331 2.52067 1.59379 2.52197C1.59475 2.52457 1.59603 2.52804 1.59764 2.53237C1.60085 2.54102 1.60535 2.55311 1.61114 2.56851C1.6227 2.59931 1.63939 2.6434 1.6611 2.69989C1.70452 2.81284 1.76809 2.97547 1.85106 3.18066C2.0169 3.59082 2.26074 4.17224 2.57662 4.8677C3.20655 6.25459 4.13163 8.11421 5.30592 9.97962C6.47361 11.8346 7.92663 13.7581 9.6301 15.2231C11.3298 16.6849 13.4068 17.7967 15.7798 17.7497L15.7203 14.7503ZM1.50005 2V16.25H4.50005V2H1.50005ZM1.95224 17.3233L12.4522 27.5733L14.5478 25.4266L4.04785 15.1766L1.95224 17.3233ZM12 26.5069L12.25 80.7568L15.25 80.7429L15 26.493L12 26.5069ZM16.5 26.493L16.25 80.7429L19.25 80.7568L19.5 26.5069L16.5 26.493ZM15.0541 82.3358L15.0441 82.3441L16.956 84.656L16.966 84.6477L15.0541 82.3358ZM15.5 102L12.7538 103.208C13.2328 104.297 14.3102 105 15.5 105C16.6898 105 17.7672 104.297 18.2462 103.208L15.5 102ZM3.00005 73.5763L4.81854 71.1903C3.73047 70.361 2.21919 70.3729 1.14429 71.2191C0.0693836 72.0654 -0.296858 73.5317 0.253872 74.784L3.00005 73.5763ZM16.01 83.4918L14.1915 85.8778C15.301 86.7234 16.8469 86.6926 17.9219 85.8036L16.01 83.4918ZM28 73.5763L30.7462 74.784C31.3059 73.5113 30.9178 72.0209 29.8085 71.1827C28.6993 70.3446 27.1595 70.3784 26.0881 71.2644L28 73.5763ZM18.2462 100.792L5.74622 72.3686L0.253872 74.784L12.7538 103.208L18.2462 100.792ZM1.18156 75.9623L14.1915 85.8778L17.8285 81.1057L4.81854 71.1903L1.18156 75.9623ZM18.2462 103.208L30.7462 74.784L25.2538 72.3686L12.7538 100.792L18.2462 103.208ZM26.0881 71.2644L14.0982 81.1799L17.9219 85.8036L29.9119 75.8881L26.0881 71.2644Z" fill="white" mask="url(#path-1-outside-1_652_8)"/>
</svg>
