<svg width="356" height="356" viewBox="0 0 356 356" fill="none" xmlns="http://www.w3.org/2000/svg">
<path d="M160 56C160 57.6569 161.343 59 163 59C164.657 59 166 57.6569 166 56H160ZM163 16L165.4 14.2C164.625 13.167 163.276 12.7456 162.051 13.154C160.826 13.5623 160 14.7087 160 16H163ZM193 56L190.6 57.8C191.375 58.833 192.724 59.2544 193.949 58.846C195.174 58.4377 196 57.2913 196 56H193ZM196 16C196 14.3431 194.657 13 193 13C191.343 13 190 14.3431 190 16H196ZM308 198H305C305 199.657 306.343 201 308 201V198ZM338 201C339.657 201 341 199.657 341 198C341 196.343 339.657 195 338 195V201ZM308 158V155C306.343 155 305 156.343 305 158H308ZM338 161C339.657 161 341 159.657 341 158C341 156.343 339.657 155 338 155V161ZM333 181C334.657 181 336 179.657 336 178C336 176.343 334.657 175 333 175V181ZM20.936 157.384C20.5956 155.762 19.0051 154.724 17.3836 155.064C15.7621 155.404 14.7236 156.995 15.064 158.616L20.936 157.384ZM26.2927 197.5L23.3567 198.116C23.6391 199.461 24.7993 200.443 26.1725 200.498C27.5457 200.553 28.7807 199.668 29.1699 198.349L26.2927 197.5ZM37.5122 159.5L40.3924 158.661C40.0198 157.382 38.8491 156.502 37.5175 156.5C36.1859 156.498 35.0121 157.373 34.635 158.651L37.5122 159.5ZM48.7317 198L45.8515 198.839C46.2333 200.15 47.4513 201.037 48.8155 200.999C50.1797 200.961 51.3462 200.007 51.6543 198.677L48.7317 198ZM60.9226 158.677C61.2966 157.063 60.2913 155.451 58.6772 155.077C57.0631 154.703 55.4514 155.709 55.0774 157.323L60.9226 158.677ZM185 313C185 314.657 186.343 316 188 316C189.657 316 191 314.657 191 313H185ZM168 313L165 313L168 313ZM171 333C171 331.343 169.657 330 168 330C166.343 330 165 331.343 165 333H171ZM178 350C83.007 350 6 272.993 6 178H0C0 276.307 79.6933 356 178 356V350ZM350 178C350 272.993 272.993 350 178 350V356C276.307 356 356 276.307 356 178H350ZM178 6C272.993 6 350 83.007 350 178H356C356 79.6933 276.307 0 178 0V6ZM178 0C79.6933 0 0 79.6933 0 178H6C6 83.007 83.007 6 178 6V0ZM166 56V16H160V56H166ZM160.6 17.8L190.6 57.8L195.4 54.2L165.4 14.2L160.6 17.8ZM196 56V16H190V56H196ZM308 201H338V195H308V201ZM308 161H338V155H308V161ZM305 158V178H311V158H305ZM305 178V198H311V178H305ZM308 181H333V175H308V181ZM15.064 158.616L23.3567 198.116L29.2287 196.884L20.936 157.384L15.064 158.616ZM29.1699 198.349L40.3894 160.349L34.635 158.651L23.4155 196.651L29.1699 198.349ZM34.632 160.339L45.8515 198.839L51.6119 197.161L40.3924 158.661L34.632 160.339ZM51.6543 198.677L60.9226 158.677L55.0774 157.323L45.8091 197.323L51.6543 198.677ZM191 313C191 305.82 185.18 300 178 300V306C181.866 306 185 309.134 185 313H191ZM178 300C170.82 300 165 305.82 165 313L171 313C171 309.134 174.134 306 178 306V300ZM165 313C165 316.838 166.854 319.533 169.248 321.454C171.485 323.248 174.381 324.51 176.774 325.582C179.359 326.74 181.458 327.715 182.959 328.961C184.307 330.079 185 331.268 185 333H191C191 329.107 189.193 326.338 186.791 324.344C184.542 322.478 181.641 321.187 179.226 320.106C176.619 318.938 174.515 317.987 173.002 316.773C171.646 315.686 171 314.579 171 313L165 313ZM185 333C185 336.866 181.866 340 178 340V346C185.18 346 191 340.18 191 333H185ZM178 340C174.134 340 171 336.866 171 333H165C165 340.18 170.82 346 178 346V340Z" fill="white" fill-opacity="0.8"/>
</svg>
