<svg width="310" height="310" viewBox="0 0 310 310" fill="none" xmlns="http://www.w3.org/2000/svg">
    <path
        d="M24.354 170L16.0302 140.909H22.7489L27.5643 161.122H27.8058L33.1183 140.909H38.8711L44.1694 161.165H44.4251L49.2404 140.909H55.9592L47.6353 170H41.641L36.1012 150.98H35.8739L30.3484 170H24.354Z"
        fill="white" />
    <path d="M271.782 170V140.909H291.385V145.98H277.933V152.912H290.376V157.983H277.933V164.929H291.441V170H271.782Z"
        fill="white" />
    <path
        d="M159.704 272.276C159.591 271.13 159.103 270.24 158.241 269.605C157.379 268.971 156.21 268.653 154.733 268.653C153.729 268.653 152.881 268.795 152.19 269.08C151.499 269.354 150.968 269.738 150.599 270.23C150.239 270.723 150.059 271.281 150.059 271.906C150.04 272.427 150.149 272.882 150.386 273.27C150.632 273.658 150.968 273.994 151.395 274.278C151.821 274.553 152.313 274.795 152.872 275.003C153.431 275.202 154.027 275.372 154.662 275.514L157.275 276.139C158.544 276.423 159.709 276.802 160.77 277.276C161.83 277.749 162.749 278.331 163.525 279.023C164.302 279.714 164.903 280.528 165.329 281.466C165.765 282.403 165.987 283.478 165.997 284.69C165.987 286.471 165.533 288.014 164.633 289.321C163.743 290.618 162.455 291.627 160.77 292.347C159.093 293.057 157.072 293.412 154.704 293.412C152.356 293.412 150.31 293.052 148.568 292.332C146.835 291.613 145.481 290.547 144.505 289.136C143.539 287.716 143.033 285.959 142.985 283.866H148.937C149.003 284.842 149.283 285.656 149.775 286.31C150.277 286.954 150.945 287.441 151.778 287.773C152.621 288.095 153.573 288.256 154.633 288.256C155.675 288.256 156.579 288.104 157.346 287.801C158.123 287.498 158.724 287.077 159.15 286.537C159.576 285.997 159.789 285.377 159.789 284.676C159.789 284.023 159.595 283.473 159.207 283.028C158.828 282.583 158.27 282.205 157.531 281.892C156.802 281.58 155.907 281.295 154.846 281.04L151.679 280.244C149.226 279.648 147.289 278.715 145.869 277.446C144.449 276.177 143.743 274.468 143.752 272.318C143.743 270.557 144.212 269.018 145.159 267.702C146.115 266.385 147.427 265.358 149.093 264.619C150.76 263.881 152.654 263.511 154.775 263.511C156.934 263.511 158.819 263.881 160.429 264.619C162.048 265.358 163.307 266.385 164.207 267.702C165.107 269.018 165.571 270.543 165.599 272.276H159.704Z"
        fill="white" />
    <path
        d="M167.154 17.9091V47H161.841L149.185 28.6903H148.972V47H142.821V17.9091H148.219L160.776 36.2045H161.032V17.9091H167.154Z"
        fill="white" />
    <path
        d="M155 307.5C239.223 307.5 307.5 239.223 307.5 155C307.5 70.7766 239.223 2.5 155 2.5C70.7766 2.5 2.5 70.7766 2.5 155C2.5 239.223 70.7766 307.5 155 307.5Z"
        stroke="white" stroke-width="5" />
</svg>