<svg width="118" height="119" viewBox="0 0 118 119" fill="none" xmlns="http://www.w3.org/2000/svg">
    <path
        d="M117.533 59.0367C117.515 43.994 111.755 29.5256 101.429 18.5866C91.103 7.64766 76.9905 1.06336 61.9738 0.178507V0.00488281H55.0289V0.178507C40.1996 1.31838 26.347 8.01394 16.2412 18.9263C6.13545 29.8387 0.52124 44.1637 0.52124 59.0367C0.52124 73.9098 6.13545 88.2347 16.2412 99.1471C26.347 110.06 40.1996 116.755 55.0289 117.895V118.069H61.9738V117.895C76.9905 117.01 91.103 110.426 101.429 99.4868C111.755 88.5478 117.515 74.0795 117.533 59.0367ZM6.41442 59.0367C6.38498 45.8035 11.3935 33.0552 20.4228 23.381C29.4521 13.7068 41.8251 7.83199 55.0289 6.94981V111.124C41.8251 110.241 29.4521 104.367 20.4228 94.6925C11.3935 85.0182 6.38498 72.2699 6.41442 59.0367Z"
        fill="#fff" />
</svg>