<svg width="119" height="119" viewBox="0 0 119 119" fill="none" xmlns="http://www.w3.org/2000/svg">
    <path
        d="M59.3084 0.612305C47.633 0.612305 36.2198 4.07446 26.512 10.561C16.8043 17.0475 9.23803 26.267 4.77005 37.0536C0.302067 47.8403 -0.866961 59.7096 1.4108 71.1607C3.68855 82.6118 9.31079 93.1302 17.5665 101.386C25.8223 109.642 36.3408 115.264 47.7918 117.542C59.2429 119.819 71.1122 118.65 81.8989 114.182C92.6855 109.714 101.905 102.148 108.392 92.4405C114.878 82.7328 118.34 71.3196 118.34 59.6442C118.34 51.892 116.813 44.2157 113.847 37.0536C110.88 29.8916 106.532 23.3839 101.05 17.9023C95.5686 12.4207 89.061 8.07247 81.8989 5.10584C74.7368 2.13921 67.0605 0.612305 59.3084 0.612305Z"
        fill="#fff" />
</svg>