<svg width="119" height="119" viewBox="0 0 119 119" fill="none" xmlns="http://www.w3.org/2000/svg">
    <path
        d="M59.705 0.495605C48.0296 0.495605 36.6164 3.95776 26.9086 10.4443C17.2009 16.9308 9.63464 26.1503 5.16665 36.9369C0.698673 47.7236 -0.470354 59.5929 1.8074 71.044C4.08516 82.4951 9.7074 93.0135 17.9632 101.269C26.2189 109.525 36.7374 115.147 48.1884 117.425C59.6395 119.703 71.5088 118.534 82.2955 114.066C93.0821 109.598 102.302 102.032 108.788 92.3238C115.275 82.6161 118.737 71.2029 118.737 59.5275C118.737 51.7753 117.21 44.099 114.243 36.9369C111.277 29.7749 106.928 23.2672 101.447 17.7856C95.9652 12.304 89.4576 7.95577 82.2955 4.98914C75.1334 2.02251 67.4571 0.495605 59.705 0.495605ZM59.705 111.614C49.4031 111.614 39.3327 108.56 30.767 102.836C22.2014 97.1128 15.5253 88.9779 11.5829 79.4603C7.64059 69.9426 6.60909 59.4697 8.61888 49.3658C10.6287 39.2619 15.5895 29.9809 22.874 22.6964C30.1584 15.4119 39.4394 10.4511 49.5433 8.44136C59.6472 6.43158 70.1201 7.46307 79.6378 11.4054C89.1554 15.3477 97.2903 22.0239 103.014 30.5895C108.737 39.1552 111.792 49.2256 111.792 59.5275C111.792 73.3418 106.304 86.5903 96.536 96.3585C86.7678 106.127 73.5193 111.614 59.705 111.614Z"
        fill="#fff" />
</svg>