<svg width="120" height="119" viewBox="0 0 120 119" fill="none" xmlns="http://www.w3.org/2000/svg">
    <path
        d="M59.5015 0.23373C56.0072 0.25013 52.5212 0.575493 49.0842 1.20602H48.4244C34.9655 3.81208 22.8332 11.0211 14.1095 21.5961C5.38575 32.171 0.614502 45.4525 0.614502 59.1614C0.614502 72.8703 5.38575 86.1518 14.1095 96.7267C22.8332 107.302 34.9655 114.511 48.4244 117.117H49.0842C57.2204 118.759 65.6116 118.667 73.7099 116.847C81.8082 115.027 89.4316 111.519 96.0826 106.553C102.734 101.587 108.262 95.2744 112.308 88.027C116.354 80.7795 118.827 72.7602 119.563 64.4926C120.3 56.225 119.285 47.8949 116.585 40.0462C113.884 32.1974 109.559 25.0063 103.891 18.9424C98.2232 12.8785 91.3402 8.07797 83.6914 4.85427C76.0426 1.63057 67.8 0.0561338 59.5015 0.23373ZM67.5576 110.727L68.3563 110.241L69.6759 109.443C70.6018 108.864 71.5047 108.274 72.3844 107.672L73.3914 106.838C74.6067 105.935 75.7874 105.033 76.8638 104.026C77.975 103.088 79.0168 102.081 80.0585 101.039L81.0308 100.032C81.7716 99.2452 82.5008 98.4465 83.2185 97.6363L84.156 96.5251C84.9431 95.5528 85.6955 94.5689 86.4131 93.5735L86.8993 92.9137C87.7674 91.6636 88.566 90.4136 89.33 89.094L89.9203 88.0176C90.4759 87.0221 90.9968 86.0151 91.4829 84.9965L92.1079 83.6423C92.5941 82.6005 93.0108 81.5588 93.4275 80.4823L93.8789 79.3364C94.3998 77.9127 94.8512 76.4543 95.2679 74.9611C95.2679 74.6833 95.2679 74.3708 95.4762 74.093C95.8003 72.8892 96.0781 71.6623 96.3096 70.4122C96.3096 69.926 96.3096 69.4399 96.5527 68.919C96.7379 67.8078 96.8884 66.6504 97.0041 65.4466C97.0041 64.9604 97.0041 64.509 97.0041 64.0229C97.0041 62.4602 97.2125 60.8629 97.2125 59.2656C97.2125 57.6682 97.2125 56.0709 97.0041 54.5083C97.0041 54.0222 97.0041 53.5707 97.0041 53.0846C96.8884 51.9503 96.7379 50.7928 96.5527 49.6121C96.5527 49.126 96.5527 48.6398 96.3096 48.119C96.0781 46.8689 95.8003 45.642 95.4762 44.4382C95.4762 44.1604 95.4762 43.8478 95.2679 43.57C94.8512 42.0769 94.3998 40.6185 93.8789 39.1947L93.4275 38.0488C93.0108 36.9724 92.5941 35.9306 92.1079 34.8889L91.4829 33.5346C90.9968 32.516 90.4759 31.509 89.9203 30.5136L89.33 29.4371C88.566 28.1176 87.7674 26.8675 86.8993 25.6174L86.4131 24.9577C85.6955 23.9391 84.9431 22.9552 84.156 22.0061L83.5657 21.0685C82.8712 20.2351 82.142 19.4364 81.378 18.6725L80.3363 17.596C79.2946 16.5543 78.2528 15.582 77.1416 14.6097C75.9957 13.6374 74.8151 12.6999 73.6692 11.797L72.4885 10.9636C71.6089 10.3386 70.706 9.74827 69.78 9.19268L68.4605 8.39402L67.6618 7.90787C79.9328 9.82619 91.1144 16.0661 99.1901 25.5023C107.266 34.9385 111.704 46.9497 111.704 59.3698C111.704 71.7898 107.266 83.801 99.1901 93.2372C91.1144 102.673 79.9328 108.913 67.6618 110.832L67.5576 110.727Z"
        fill="#fff" />
</svg>