<svg width="119" height="119" viewBox="0 0 119 119" fill="none" xmlns="http://www.w3.org/2000/svg">
    <path
        d="M70.3853 0.977174H69.7256C61.2122 -0.587376 52.4588 -0.260545 44.0858 1.93451C35.7128 4.12957 27.925 8.13914 21.2741 13.6791C14.6232 19.2191 9.27202 26.154 5.59971 33.9923C1.9274 41.8307 0.0238037 50.3808 0.0238037 59.0367C0.0238037 67.6927 1.9274 76.2428 5.59971 84.0811C9.27202 91.9195 14.6232 98.8543 21.2741 104.394C27.925 109.934 35.7128 113.944 44.0858 116.139C52.4588 118.334 61.2122 118.661 69.7256 117.096H70.3853C83.8442 114.49 95.9765 107.281 104.7 96.7062C113.424 86.1313 118.195 72.8498 118.195 59.1409C118.195 45.432 113.424 32.1505 104.7 21.5756C95.9765 11.0006 83.8442 3.79158 70.3853 1.18552V0.977174ZM69.7256 109.943L67.781 109.492L65.4891 108.936L63.3709 108.242L61.2527 107.547L59.3082 106.54L57.2247 105.602L55.2454 104.526L53.3008 103.45L51.4257 102.234L49.5853 101.019C48.995 100.567 48.4046 100.081 47.8143 99.6298C47.224 99.1784 46.6684 98.727 46.1128 98.2756C45.5572 97.8241 45.0016 97.2338 44.4808 96.7477C43.9599 96.2615 43.439 95.7754 42.9181 95.2545C42.3973 94.7336 41.9111 94.1433 41.3903 93.553C40.8694 92.9627 40.418 92.5113 39.9666 91.9557C39.5151 91.4001 39.029 90.7403 38.5776 90.1153C38.1262 89.4902 37.7095 89.0041 37.3275 88.4138C36.9455 87.8234 36.4941 87.0942 36.0774 86.4692C35.6607 85.8441 35.3135 85.3233 34.9662 84.6982C34.619 84.0732 34.237 83.3092 33.855 82.58C33.4731 81.8508 33.1953 81.3647 32.9175 80.7743C32.6397 80.184 32.2924 79.2812 31.9799 78.5172C31.6674 77.7533 31.459 77.3019 31.2159 76.6768C30.9729 76.0518 30.6951 75.0448 30.452 74.2461C30.2089 73.4474 30.0353 73.0308 29.8617 72.4057C29.6881 71.7807 29.445 70.6695 29.2714 69.8014C29.0977 68.9332 28.9936 68.6207 28.8894 68.0304C28.7852 67.4401 28.6116 66.0511 28.5074 65.0441C28.4033 64.0371 28.5074 64.0371 28.2991 63.5162C28.137 62.0115 28.056 60.4836 28.056 58.9326C28.056 57.3815 28.1255 55.8421 28.2644 54.3142C28.2644 53.7933 28.2644 53.3072 28.4727 52.7863C28.6811 52.2654 28.6811 50.7723 28.8547 49.8C29.0283 48.8277 29.1325 48.6193 29.2366 48.029C29.3408 47.4387 29.5839 46.2581 29.827 45.4247C30.07 44.5913 30.2089 44.2093 30.4173 43.5843C30.6256 42.9592 30.9034 41.9522 31.1812 41.1536C31.459 40.3549 31.7021 39.9035 31.9452 39.2784C32.1882 38.6534 32.5355 37.7505 32.8827 37.0213C33.23 36.2921 33.5078 35.806 33.8203 35.2156C34.1328 34.6253 34.5148 33.7919 34.9315 33.0974C35.3482 32.4029 35.6607 31.9168 36.0427 31.3265C36.4246 30.7362 36.8413 30.007 37.2928 29.3819C37.7442 28.7569 38.1262 28.2707 38.5428 27.6804C38.9595 27.0901 39.4457 26.4303 39.9318 25.84C40.418 25.2497 40.8694 24.7635 41.3555 24.2427C41.8417 23.7218 42.3626 23.0968 42.8834 22.5412C43.4043 21.9856 43.9252 21.5689 44.446 21.048C44.9669 20.5271 45.5225 20.0063 46.0781 19.5201C46.6337 19.034 47.224 18.6173 47.7796 18.1659C48.3352 17.7144 48.9255 17.2283 49.5505 16.7769L51.391 15.5615L53.2661 14.3462L55.2107 13.2697L57.1552 12.2279L59.2387 11.2904L61.2875 10.3875L63.4751 9.6236L65.5933 8.92911L67.8851 8.37351L69.8297 7.9221C81.5489 10.3624 92.0699 16.7648 99.6225 26.0521C107.175 35.3394 111.298 46.9446 111.298 58.9152C111.298 70.8858 107.175 82.491 99.6225 91.7783C92.0699 101.066 81.5489 107.468 69.8297 109.908L69.7256 109.943Z"
        fill="#fff" />
</svg>