<svg width="119" height="119" viewBox="0 0 119 119" fill="none" xmlns="http://www.w3.org/2000/svg">
    <path
        d="M70.5783 1.5846H69.9185C61.4051 0.0200454 52.6518 0.346877 44.2788 2.54194C35.9058 4.73699 28.118 8.74656 21.4671 14.2866C14.8162 19.8266 9.46502 26.7614 5.7927 34.5998C2.12039 42.4381 0.216797 50.9882 0.216797 59.6442C0.216797 68.3001 2.12039 76.8502 5.7927 84.6885C9.46502 92.5269 14.8162 99.4618 21.4671 105.002C28.118 110.542 35.9058 114.551 44.2788 116.746C52.6518 118.941 61.4051 119.268 69.9185 117.704H70.5783C84.0372 115.098 96.1695 107.889 104.893 97.3136C113.617 86.7387 118.388 73.4572 118.388 59.7483C118.388 46.0394 113.617 32.758 104.893 22.183C96.1695 11.6081 84.0372 4.399 70.5783 1.79294V1.5846ZM7.41423 59.54C7.41382 47.1216 11.8503 35.1117 19.9237 25.6757C27.9971 16.2398 39.1761 9.99881 51.445 8.0781L50.6464 8.56424L49.3268 9.36291C48.4009 9.9185 47.5096 10.5088 46.653 11.1339L45.6113 11.9673C44.396 12.8701 43.2153 13.7729 42.1388 14.78C41.0624 15.7175 40.0206 16.7245 38.9789 17.7315L37.9719 18.7733C37.2311 19.5372 36.5135 20.3359 35.819 21.1693L34.8467 22.3152C34.0827 23.2643 33.3419 24.2366 32.6243 25.2321L32.1034 25.9266C31.2353 27.1766 30.4367 28.4267 29.7074 29.7463L29.1171 30.8574C28.5847 31.8297 28.0638 32.8252 27.5545 33.8438L26.9295 35.2327C26.4781 36.2745 26.0266 37.3162 25.6099 38.358L25.1585 39.5039C24.6376 40.9276 24.1862 42.386 23.7695 43.8792C23.7695 44.157 23.7695 44.4695 23.5612 44.7473C23.2602 45.9511 22.9824 47.178 22.7278 48.4281C22.7278 48.9142 22.5542 49.4004 22.4847 49.9213C22.2995 51.0324 22.149 52.1899 22.0333 53.3937C22.0333 53.8799 22.0333 54.3313 22.0333 54.8174C22.0333 56.38 21.8249 57.9774 21.8249 59.5747C21.8249 61.172 21.8249 62.7694 22.0333 64.332C22.0333 64.8181 22.0333 65.2695 22.0333 65.7557C22.149 66.89 22.2995 68.0475 22.4847 69.2281C22.4847 69.7143 22.4847 70.2352 22.7278 70.7213C22.9593 71.9482 23.2371 73.1752 23.5612 74.4021C23.5612 74.6799 23.5612 74.9924 23.7695 75.2702C24.1862 76.7634 24.6376 78.2218 25.1585 79.6455L25.6099 80.7914C26.0266 81.8679 26.4433 82.9096 26.9295 83.9167L27.5545 85.3056C28.0407 86.3242 28.5615 87.3197 29.1171 88.292L29.7074 89.4031C30.4714 90.688 31.27 91.9728 32.1034 93.2229L32.6243 93.9174C33.3419 94.9128 34.0827 95.8851 34.8467 96.8342L35.819 97.9801C36.5135 98.7904 37.2311 99.589 37.9719 100.376L38.6664 101.21C39.6734 102.217 40.7151 103.224 41.8263 104.161C42.9722 105.133 44.1529 106.071 45.2988 106.974L46.4794 107.807C47.3591 108.409 48.2504 108.999 49.1532 109.578L50.4728 110.377L51.2714 110.863C39.0578 108.909 27.9382 102.672 19.9027 93.2684C11.8672 83.865 7.44028 71.909 7.41423 59.54Z"
        fill="#fff" />
</svg>