<svg width="120" height="119" viewBox="0 0 120 119" fill="none" xmlns="http://www.w3.org/2000/svg">
    <path
        d="M59.7052 0.90121C56.2108 0.917611 52.7248 1.24297 49.2878 1.8735H48.628C35.1691 4.47956 23.0368 11.6886 14.3131 22.2636C5.58936 32.8385 0.818115 46.12 0.818115 59.8289C0.818115 73.5378 5.58936 86.8193 14.3131 97.3942C23.0368 107.969 35.1691 115.178 48.628 117.784H49.2878C57.424 119.427 65.8152 119.335 73.9135 117.514C82.0118 115.694 89.6353 112.187 96.2862 107.221C102.937 102.255 108.466 95.9419 112.512 88.6944C116.558 81.4469 119.03 73.4277 119.767 65.1601C120.504 56.8925 119.489 48.5624 116.788 40.7136C114.088 32.8649 109.763 25.6738 104.095 19.6099C98.4268 13.5459 91.5438 8.74545 83.895 5.52175C76.2463 2.29805 68.0036 0.723614 59.7052 0.90121ZM7.61823 59.9331C7.62378 47.9314 11.7737 36.2999 19.3664 27.0052C26.9591 17.7105 37.5286 11.3229 49.2878 8.9226L51.2323 9.37402L53.5242 9.92961L55.6424 10.6241L57.83 11.388L59.8788 12.2909L61.9622 13.2284L63.9068 14.2702L65.8514 15.3467L67.7265 16.562L69.5669 17.7774C70.1573 18.2288 70.7476 18.7149 71.3379 19.1664C71.9282 19.6178 72.4838 20.0692 73.0394 20.5206C73.595 20.972 74.1506 21.5624 74.6715 22.0485C75.1923 22.5346 75.7132 23.0208 76.2341 23.5417C76.7549 24.0625 77.2411 24.6528 77.762 25.2432C78.2828 25.8335 78.7342 26.2849 79.1857 26.8405C79.6371 27.3961 80.1232 28.0559 80.5746 28.6809C81.0261 29.3059 81.4428 29.7921 81.8247 30.3824C82.2067 30.9727 82.6581 31.7019 83.0748 32.327C83.4915 32.952 83.8388 33.4729 84.186 34.0979C84.5332 34.723 84.9152 35.4869 85.2972 36.2161C85.6792 36.9454 85.957 37.4315 86.2348 38.0218C86.5126 38.6121 86.8598 39.515 87.1723 40.2789C87.4848 41.0429 87.6932 41.4943 87.9363 42.1541C88.1793 42.8138 88.4571 43.7514 88.7002 44.5848C88.9433 45.4182 89.1169 45.8001 89.2905 46.4252C89.4641 47.0502 89.7072 48.1614 89.8808 49.0295C90.0545 49.8976 90.1586 50.2102 90.2628 50.8005C90.367 51.3908 90.5406 52.7798 90.6448 53.7868C90.749 54.7938 90.6448 54.7938 90.8531 55.3147C90.9226 56.8426 90.9573 58.382 90.9573 59.9331C90.9573 61.4841 90.8878 63.0236 90.749 64.5514C90.749 65.0723 90.749 65.5585 90.5406 66.0793C90.3323 66.6002 90.3323 68.0933 90.1586 69.0656C89.985 70.0379 89.8808 70.2463 89.7767 70.8366C89.6725 71.4269 89.4294 72.6075 89.1864 73.4409C88.9433 74.2743 88.8044 74.6563 88.596 75.2813C88.3877 75.9064 88.1099 76.9134 87.8321 77.7121C87.5543 78.5107 87.3112 78.9274 87.0682 79.5525C86.8251 80.1775 86.4778 81.0804 86.1306 81.8096C85.7833 82.5388 85.5055 83.0249 85.193 83.6152C84.8805 84.2056 84.4985 85.039 84.0818 85.7335C83.6651 86.4279 83.3526 86.9141 82.9706 87.5044C82.5887 88.0947 82.172 88.8239 81.7206 89.449C81.2691 90.074 80.8872 90.5602 80.4705 91.1505C80.0538 91.7408 79.5676 92.4006 79.0815 92.9909C78.5953 93.5812 78.1439 94.0674 77.6578 94.5882C77.1716 95.1091 76.6508 95.7341 76.1299 96.2897C75.609 96.8453 75.0882 97.262 74.5673 97.7829C74.0464 98.3038 73.4908 98.8246 72.9352 99.3108C72.3796 99.7969 71.7893 100.214 71.2337 100.665C70.6781 101.116 70.0878 101.603 69.4628 102.054L67.6224 103.269L65.7472 104.485L63.8027 105.561L61.8234 106.638L59.7399 107.575L57.6911 108.478L55.5035 109.242L53.3853 109.937L51.0934 110.492L49.1489 110.944C37.4153 108.515 26.8778 102.116 19.3126 92.8235C11.7474 83.5315 7.6172 71.9153 7.61823 59.9331Z"
        fill="#fff" />
</svg>