<svg width="95" height="95" viewBox="0 0 95 95" fill="none" xmlns="http://www.w3.org/2000/svg">
    <path
        d="M47.5 58.5C32.586 65.9 14.8118 65.6 0 57.4C1.12366 62.4 2.96236 67.1 5.51612 71.3C9.09139 77.3 16.3441 80.4 23.1882 78.8C26.457 78.1 29.6237 76.8 32.6882 75.1C39.4301 71.3 44.6398 65.5 47.5 58.5Z"
        fill="url(#paint0_radial_635_218)"></path>
    <path
        d="M62.5161 2.29999C57.8172 0.799988 52.7097 0 47.5 0H47.3978C40.2473 0 34.0161 4.60001 31.871 11.2C30.9516 14.3 30.3387 17.6 30.3387 21.1C30.3387 28.8 32.9946 36.1 37.6935 42C38.6129 25.7 47.8064 10.8 62.5161 2.29999Z"
        fill="url(#paint1_radial_635_218)"></path>
    <path
        d="M32.4839 92.7C37.1828 94.2 42.2903 95 47.5 95H47.6022C54.7527 95 60.9839 90.4 63.129 83.8C64.0484 80.7 64.6613 77.4 64.6613 73.9C64.6613 66.2 62.0054 58.9 57.3065 53C56.3871 69.3 47.1936 84.2 32.4839 92.7Z"
        fill="url(#paint2_radial_635_218)"></path>
    <path
        d="M79.4731 46.2C72.629 42.4 64.8656 40.9 57.3065 42C71.3011 50.9 79.9839 66.1 80.086 82.8C83.8656 79.5 87.1344 75.6 89.6882 71.3C93.2634 65.3 92.4462 57.6 87.543 52.5C85.1935 50 82.5376 47.9 79.4731 46.2Z"
        fill="url(#paint3_radial_635_218)"></path>
    <path
        d="M47.5 36.5C62.414 29.1 80.1882 29.4 95 37.6C93.8763 32.6 92.0376 27.9 89.4839 23.7C85.9086 17.7 78.6559 14.6 71.8118 16.2C68.543 16.9 65.3763 18.2 62.3118 19.9C55.5699 23.7 50.3602 29.5 47.5 36.5Z"
        fill="url(#paint4_radial_635_218)"></path>
    <path
        d="M15.5269 48.8C22.371 52.6 30.1344 54.1 37.6935 53C23.6989 44.1 15.0161 28.9 14.914 12.2C11.1344 15.5 7.86559 19.4 5.31183 23.8C1.73656 29.8 2.55377 37.5 7.457 42.6C9.80646 45 12.4624 47.1 15.5269 48.8Z"
        fill="url(#paint5_radial_635_218)"></path>
    <path
        d="M47.5 54.2C51.2799 54.2 54.3441 51.2003 54.3441 47.5C54.3441 43.7997 51.2799 40.8 47.5 40.8C43.7201 40.8 40.6559 43.7997 40.6559 47.5C40.6559 51.2003 43.7201 54.2 47.5 54.2Z"
        fill="url(#paint6_radial_635_218)"></path>
    <defs>
        <radialGradient id="paint0_radial_635_218" cx="0" cy="0" r="1" gradientUnits="userSpaceOnUse"
            gradientTransform="translate(47.5 47.5) rotate(92.6585) scale(55.0593 55.0543)">
            <stop stop-color="#00B0FF"></stop>
            <stop offset="1" stop-color="#0066FF"></stop>
        </radialGradient>
        <radialGradient id="paint1_radial_635_218" cx="0" cy="0" r="1" gradientUnits="userSpaceOnUse"
            gradientTransform="translate(47.5 47.5) rotate(92.6585) scale(55.0593 55.0543)">
            <stop stop-color="#00B0FF"></stop>
            <stop offset="1" stop-color="#0066FF"></stop>
        </radialGradient>
        <radialGradient id="paint2_radial_635_218" cx="0" cy="0" r="1" gradientUnits="userSpaceOnUse"
            gradientTransform="translate(47.5 47.5) rotate(92.6585) scale(55.0593 55.0543)">
            <stop stop-color="#00B0FF"></stop>
            <stop offset="1" stop-color="#0066FF"></stop>
        </radialGradient>
        <radialGradient id="paint3_radial_635_218" cx="0" cy="0" r="1" gradientUnits="userSpaceOnUse"
            gradientTransform="translate(47.5 47.5) rotate(92.6585) scale(55.0593 55.0543)">
            <stop stop-color="#00B0FF"></stop>
            <stop offset="1" stop-color="#0066FF"></stop>
        </radialGradient>
        <radialGradient id="paint4_radial_635_218" cx="0" cy="0" r="1" gradientUnits="userSpaceOnUse"
            gradientTransform="translate(47.5 47.5) rotate(92.6585) scale(55.0593 55.0543)">
            <stop stop-color="#00B0FF"></stop>
            <stop offset="1" stop-color="#0066FF"></stop>
        </radialGradient>
        <radialGradient id="paint5_radial_635_218" cx="0" cy="0" r="1" gradientUnits="userSpaceOnUse"
            gradientTransform="translate(47.5 47.5) rotate(92.6585) scale(55.0593 55.0543)">
            <stop stop-color="#00B0FF"></stop>
            <stop offset="1" stop-color="#0066FF"></stop>
        </radialGradient>
        <radialGradient id="paint6_radial_635_218" cx="0" cy="0" r="1" gradientUnits="userSpaceOnUse"
            gradientTransform="translate(47.5 47.5) rotate(92.6585) scale(55.0593 55.0543)">
            <stop stop-color="#00B0FF"></stop>
            <stop offset="1" stop-color="#0066FF"></stop>
        </radialGradient>
    </defs>
</svg>